<svg id="Layer_1" enable-background="new 0 0 512 512" height="512" viewBox="0 0 512 512" width="512" xmlns="http://www.w3.org/2000/svg"><g><g clip-rule="evenodd" fill-rule="evenodd"><path d="m256 7.512c91.504 0 165.659 74.156 165.659 165.658 0 61.91-33.932 115.883-84.247 144.314-7.795 4.393-12.331 10.488-12.331 19.701v40.565l-72.086 9.014-66.076-9.014v-40.565c0-8.76-4.961-15.535-12.388-19.73-50.259-28.459-84.19-82.402-84.19-144.285 0-91.502 74.156-165.658 165.659-165.658z" fill="#fff9df"/><path d="m256 7.512c91.504 0 165.659 74.156 165.659 165.658 0 61.91-33.932 115.883-84.247 144.314-7.795 4.393-12.331 10.488-12.331 19.701v40.565h-29.111v-40.565c0-9.213 4.535-15.308 12.331-19.701 50.286-28.432 84.246-82.404 84.246-144.314 0-86.6-66.445-157.637-151.117-165.035 4.819-.397 9.667-.623 14.57-.623z" fill="#fff3bf"/><path d="m325.081 435.435c0 38.154-30.926 69.08-69.081 69.08s-69.081-30.926-69.081-69.08l69.563-5.84z" fill="#90d8f9"/><path d="m325.081 435.435c0 38.154-30.926 69.08-69.081 69.08-4.989 0-9.864-.539-14.57-1.559 31.182-6.689 54.54-34.385 54.54-67.522h29.111z" fill="#6bbef6"/><path d="m186.919 377.75h138.162v57.686h-138.162z" fill="#365e7d"/><path d="m229.779 62.73c14.429 0 26.221 11.793 26.221 26.194 0-14.4 11.792-26.193 26.221-26.193 14.4 0 26.193 11.793 26.193 26.193v8.164c5.215-7.852 14.145-13.012 24.264-13.012 16.102 0 29.141 13.039 29.141 29.113 0 5.215-1.389 10.119-3.77 14.342 18.511 4.338 32.287 20.976 32.287 40.82 0 19.842-13.776 36.482-32.287 40.818 2.381 4.252 3.77 9.129 3.77 14.346 0 16.072-13.039 29.111-29.141 29.111-10.119 0-19.049-5.16-24.264-13.012v8.164c0 14.428-11.793 26.221-26.193 26.221-14.429.001-26.221-11.792-26.221-26.22 0 14.428-11.792 26.221-26.221 26.221-14.4 0-26.193-11.793-26.193-26.221v-8.164c-5.215 7.852-14.145 13.012-24.264 13.012-16.102 0-29.141-13.039-29.141-29.111 0-5.217 1.389-10.094 3.771-14.346-18.512-4.336-32.288-20.977-32.288-40.818 0-19.844 13.776-36.482 32.288-40.82-2.382-4.223-3.771-9.127-3.771-14.342 0-16.074 13.039-29.113 29.141-29.113 10.119 0 19.049 5.16 24.264 13.012v-8.164c0-14.402 11.793-26.195 26.193-26.195z" fill="#fca7ac"/><path d="m295.97 377.75h29.111v57.686h-29.111z" fill="#2b4d66"/></g><path d="m229.779 55.219c10.233 0 19.814 4.648 26.221 12.557 6.406-7.908 15.987-12.557 26.221-12.557 9.269 0 17.689 3.799 23.811 9.892 4.337 4.338 7.513 9.865 8.986 16.018l.368-.199c5.188-2.777 11.084-4.365 17.291-4.365 10.12 0 19.276 4.111 25.909 10.744s10.716 15.789 10.716 25.881c0 3.344-.454 6.547-1.332 9.779 7.568 3.26 14.145 8.361 19.19 14.767 6.689 8.42 10.687 19.078 10.687 30.615s-3.997 22.195-10.687 30.643c-5.046 6.377-11.622 11.48-19.19 14.74.878 3.23 1.332 6.436 1.332 9.781 0 10.119-4.083 19.275-10.716 25.879-6.633 6.633-15.789 10.744-25.909 10.744-6.264 0-12.16-1.559-17.659-4.564-1.474 6.152-4.649 11.68-8.986 16.016-1.927 1.928-4.081 3.629-6.406 5.047l-17.519 93.602h35.49v-33.053c0-6.123 1.56-11.31 4.451-15.762 3.061-4.678 7.058-7.795 11.82-10.516 24.35-13.777 44.703-33.904 58.819-58.111 13.663-23.387 21.486-50.6 21.486-79.627 0-21.939-4.45-42.803-12.5-61.738-8.362-19.73-20.608-37.389-35.773-52.047-2.978-2.861-3.091-7.596-.227-10.572 2.862-2.977 7.597-3.063 10.572-.199 16.64 16.045 30.048 35.379 39.203 56.949 8.845 20.807 13.721 43.654 13.721 67.607 0 31.777-8.56 61.57-23.527 87.168-15.421 26.418-37.673 48.416-64.376 63.553-2.495 1.389-5.074 3.287-6.662 5.727-1.304 2.012-2.012 4.479-2.012 7.568v40.565 57.685c0 42.293-34.3 76.565-76.594 76.565-21.146 0-40.281-8.56-54.143-22.422-13.861-13.861-22.45-32.996-22.45-54.143v-57.686-40.565c0-2.779-.709-5.217-2.013-7.258-1.673-2.664-3.94-4.479-6.633-6.01-4.706-2.664-9.326-5.584-13.834-8.758-4.479-3.119-8.844-6.492-13.068-10.092-3.146-2.664-3.515-7.371-.851-10.518 2.666-3.147 7.371-3.514 10.518-.85 3.799 3.232 7.767 6.293 11.962 9.213 4.111 2.891 8.363 5.557 12.729 8.021 4.903 2.779 9.014 6.492 11.849 11.027 2.778 4.422 4.337 9.523 4.337 15.223v33.053h35.491l-17.52-93.602c-2.324-1.418-4.479-3.119-6.406-5.047-4.337-4.336-7.512-9.863-8.986-16.016l-.368.199c-5.188 2.777-11.084 4.365-17.291 4.365-10.12 0-19.275-4.111-25.909-10.744-6.633-6.604-10.716-15.76-10.716-25.879 0-3.346.454-6.551 1.332-9.781-7.568-3.26-14.145-8.363-19.19-14.74-6.689-8.447-10.687-19.105-10.687-30.643 0-11.537 3.997-22.195 10.687-30.615 5.046-6.406 11.622-11.508 19.19-14.767-.878-3.233-1.332-6.436-1.332-9.779 0-10.092 4.083-19.248 10.716-25.881 6.634-6.633 15.789-10.744 25.909-10.744 6.264 0 12.16 1.588 17.659 4.564 1.475-6.152 4.65-11.68 8.986-16.018 6.124-6.09 14.545-9.889 23.813-9.889zm53.717 226.236c-10.602.426-20.835-4.309-27.496-12.529-6.661 8.221-16.895 12.955-27.496 12.529l16.611 88.783h21.77zm34.102 146.469v-42.689h-123.196v42.689h44.618c4.139 0 7.483 3.344 7.483 7.512 0 4.139-3.345 7.484-7.483 7.484h-44.165c1.701 14.002 8.107 26.561 17.604 36.057 11.142 11.139 26.533 18.027 43.541 18.027 31.465 0 57.431-23.613 61.145-54.084h-44.165c-4.139 0-7.483-3.346-7.483-7.484 0-4.168 3.345-7.512 7.483-7.512zm-186.494-157.637c2.552 3.23 1.984 7.936-1.275 10.488-3.26 2.522-7.936 1.955-10.488-1.305-11.679-14.967-20.92-31.861-27.185-50.088-6.037-17.633-9.326-36.541-9.326-56.213 0-47.82 19.39-91.105 50.713-122.459 31.351-31.321 74.636-50.71 122.457-50.71 16.64 0 32.797 2.381 48.133 6.803 15.818 4.564 30.672 11.338 44.249 19.899 3.487 2.213 4.536 6.832 2.353 10.318-2.211 3.486-6.831 4.535-10.317 2.354-12.444-7.852-26.022-14.031-40.45-18.199-13.892-4.025-28.632-6.18-43.967-6.18-43.683 0-83.227 17.717-111.829 46.348-28.629 28.603-46.346 68.146-46.346 111.828 0 18 3.004 35.264 8.532 51.338 5.725 16.723 14.172 32.171 24.746 45.778zm213.706-64.689c-3.486-2.352-7.682-3.713-12.133-3.713-2.381 0-4.393.313-6.661 1.049-3.94 1.275-8.163-.879-9.44-4.818-1.275-3.912.879-8.135 4.791-9.439 3.543-1.135 7.597-1.785 11.31-1.785 7.484 0 14.599 2.268 20.523 6.293 2.947 1.984 5.612 4.422 7.88 7.229 5.699-2.27 10.659-5.982 14.373-10.688 4.62-5.84 7.398-13.266 7.398-21.373s-2.778-15.533-7.398-21.373c-4.734-5.982-11.425-10.348-19.106-12.162-4.025-.936-6.549-4.961-5.613-8.984.199-.852.539-1.645.992-2.326.794-1.502 1.446-3.09 1.899-4.789.454-1.73.681-3.572.681-5.527 0-5.953-2.41-11.367-6.321-15.279-3.912-3.912-9.326-6.322-15.308-6.322-3.713 0-7.171.908-10.204 2.523-4.706 2.524-8.334 6.719-10.148 11.707-.821 2.268-1.247 4.734-1.247 7.371 0 4.393 1.275 8.447 3.516 11.848 2.295 3.516 5.584 6.322 9.467 8.021 3.771 1.645 5.5 6.039 3.855 9.838-1.644 3.799-6.038 5.527-9.836 3.855-6.576-2.863-12.161-7.598-16.045-13.521-3.77-5.756-5.98-12.643-5.98-20.041 0-4.338.793-8.533 2.211-12.445.709-1.984 1.615-3.912 2.664-5.727v-6.094c0-5.131-2.125-9.809-5.499-13.209-3.402-3.402-8.079-5.5-13.21-5.5-5.159 0-9.837 2.098-13.21 5.5-3.401 3.4-5.499 8.078-5.499 13.209v77.5c0 5.158 2.069 9.836 5.471 13.209 3.374 3.402 8.051 5.5 13.238 5.5 5.159 0 9.837-2.098 13.21-5.5 3.401-3.373 5.499-8.051 5.499-13.209 0-4.168 3.346-7.512 7.484-7.512 4.139 0 7.512 3.344 7.512 7.512 0 9.297-3.771 17.717-9.894 23.811-6.095 6.123-14.514 9.893-23.811 9.893-6.945 0-13.38-2.098-18.709-5.668v53.32c0 5.131 2.098 9.809 5.499 13.209 3.373 3.402 8.051 5.5 13.21 5.5 5.131 0 9.808-2.098 13.21-5.5 3.374-3.4 5.499-8.078 5.499-13.209v-8.164c0-4.139 3.346-7.512 7.484-7.512 2.777 0 5.188 1.502 6.491 3.742 1.927 2.807 4.535 5.131 7.568 6.746s6.491 2.551 10.204 2.551c5.982 0 11.396-2.438 15.308-6.35 3.911-3.91 6.321-9.297 6.321-15.277 0-1.957-.227-3.799-.681-5.529-1.331-5.05-4.449-9.442-8.815-12.391zm-193.891-5.186c2.268-2.807 4.933-5.244 7.88-7.229 5.925-4.025 13.039-6.293 20.523-6.293 3.713 0 7.767.65 11.31 1.785 3.912 1.305 6.066 5.527 4.791 9.439-1.275 3.939-5.499 6.094-9.439 4.818-2.268-.736-4.28-1.049-6.661-1.049-4.451 0-8.646 1.361-12.133 3.713-4.365 2.949-7.483 7.342-8.816 12.389-.454 1.73-.681 3.572-.681 5.529 0 5.98 2.41 11.367 6.321 15.277 3.912 3.912 9.326 6.35 15.308 6.35 3.713 0 7.172-.936 10.204-2.551 3.033-1.615 5.642-3.939 7.569-6.746 1.304-2.24 3.713-3.742 6.49-3.742 4.139 0 7.484 3.373 7.484 7.512v8.164c0 5.131 2.125 9.809 5.527 13.209 3.374 3.402 8.052 5.5 13.182 5.5 5.159 0 9.837-2.098 13.21-5.5 3.401-3.4 5.499-8.078 5.499-13.209v-53.32c-5.329 3.57-11.764 5.668-18.709 5.668-9.298 0-17.717-3.77-23.811-9.893-6.123-6.094-9.894-14.514-9.894-23.811 0-4.168 3.374-7.512 7.512-7.512 4.139 0 7.484 3.344 7.484 7.512 0 5.158 2.098 9.836 5.499 13.209 3.373 3.402 8.051 5.5 13.21 5.5 5.188 0 9.864-2.098 13.238-5.5 3.401-3.373 5.471-8.051 5.471-13.209v-77.5c0-5.131-2.098-9.809-5.499-13.209-3.373-3.402-8.051-5.5-13.21-5.5-5.13 0-9.808 2.098-13.182 5.5-3.402 3.4-5.527 8.078-5.527 13.209v6.094c1.049 1.814 1.955 3.742 2.664 5.727 1.418 3.912 2.211 8.107 2.211 12.445 0 7.398-2.211 14.285-5.98 20.041-3.884 5.924-9.468 10.658-16.045 13.521-3.77 1.672-8.191-.057-9.836-3.855s.085-8.193 3.855-9.838c3.883-1.699 7.172-4.506 9.468-8.021 2.239-3.4 3.515-7.455 3.515-11.848 0-2.637-.425-5.104-1.247-7.371-1.814-4.988-5.442-9.184-10.148-11.707-3.032-1.615-6.491-2.523-10.204-2.523-5.981 0-11.395 2.41-15.308 6.322-3.911 3.912-6.321 9.326-6.321 15.279 0 1.955.227 3.797.681 5.527.737 2.721 2.353 4.875 2.892 7.115.936 4.023-1.588 8.049-5.613 8.984-7.682 1.814-14.372 6.18-19.106 12.162-4.62 5.84-7.398 13.266-7.398 21.373s2.778 15.533 7.398 21.373c3.741 4.708 8.673 8.421 14.372 10.69z"/></g></svg>