<svg height="512pt" viewBox="-26 0 512 512.00242" width="512pt" xmlns="http://www.w3.org/2000/svg"><path d="m273.066406 121.347656c0-84.054687 32-111.105468 34.050782-112.726562-14.726563 5.835937-28.753907 13.308594-41.816407 22.273437-65.707031 42.699219-104.714843 116.296875-103.167969 194.644531 0 34.730469 17.070313 86.785157-25.597656 86.785157-3.957031-.042969-7.859375-.945313-11.433594-2.648438-14.851562-7.984375-23.710937-23.871093-22.699218-40.703125 0-26.027344 25.597656-52.136718 25.597656-52.136718-13.816406 3.71875-26.972656 9.5625-38.996094 17.320312-34.816406 21.589844-80.46875 68.523438-80.46875 165.035156 0 66.730469 39.421875 109.398438 163.839844 112.640625 4.949219.085938 10.070312.171875 15.359375.171875 76.800781 0 204.800781-26.027344 204.800781-164.949218 0-121.515626-119.46875-147.542969-119.46875-225.707032zm0 0" fill="#ff6e2c"/><path d="m392.535156 347.054688c0 138.921874-128 164.949218-204.800781 164.949218-5.289063 0-10.410156-.085937-15.359375-.171875 77.398438-2.304687 194.558594-31.828125 194.558594-164.777343 0-121.515626-119.464844-147.542969-119.464844-225.707032 0-44.714844 9.042969-73.300781 17.832031-90.453125 13.0625-8.964843 27.089844-16.4375 41.816407-22.273437-2.050782 1.621094-34.050782 28.671875-34.050782 112.726562 0 78.164063 119.46875 104.191406 119.46875 225.707032zm0 0" fill="#e15919"/><path d="m187.734375 512.003906c68.265625 0 110.933594-43.402344 110.933594-112.847656 0-69.441406-68.265625-112.84375-68.265625-112.84375s34.132812 156.246094-68.269532 156.246094c-42.664062 0-59.730468-34.722656-59.730468-69.445313 0 0-25.601563 26.042969-25.601563 78.125 0 52.078125 76.800781 60.765625 110.933594 60.765625zm0 0" fill="#ffc900"/><path d="m34.132812 213.335938c-4.710937 0-8.53125-3.820313-8.53125-8.535157v-34.132812c0-4.710938 3.820313-8.53125 8.53125-8.53125 4.714844 0 8.535157 3.820312 8.535157 8.53125v34.132812c0 4.714844-3.820313 8.535157-8.535157 8.535157zm0 0"/><path d="m51.203125 196.269531h-34.136719c-4.710937 0-8.53125-3.820312-8.53125-8.535156 0-4.710937 3.820313-8.53125 8.53125-8.53125h34.136719c4.710937 0 8.53125 3.820313 8.53125 8.53125 0 4.714844-3.820313 8.535156-8.53125 8.535156zm0 0"/><path d="m384 51.203125c-4.710938 0-8.53125-3.820313-8.53125-8.535156v-34.132813c0-4.710937 3.820312-8.53124975 8.53125-8.53124975 4.714844 0 8.535156 3.82031275 8.535156 8.53124975v34.132813c0 4.714843-3.820312 8.535156-8.535156 8.535156zm0 0"/><path d="m401.066406 34.136719h-34.132812c-4.710938 0-8.53125-3.820313-8.53125-8.535157 0-4.710937 3.820312-8.53125 8.53125-8.53125h34.132812c4.714844 0 8.535156 3.820313 8.535156 8.53125 0 4.714844-3.820312 8.535157-8.535156 8.535157zm0 0"/><path d="m435.203125 512.003906c-4.714844 0-8.535156-3.820312-8.535156-8.535156v-34.132812c0-4.714844 3.820312-8.535157 8.535156-8.535157 4.710937 0 8.53125 3.820313 8.53125 8.535157v34.132812c0 4.714844-3.820313 8.535156-8.53125 8.535156zm0 0"/><path d="m452.269531 494.9375h-34.136719c-4.710937 0-8.53125-3.820312-8.53125-8.535156 0-4.710938 3.820313-8.535156 8.53125-8.535156h34.136719c4.710938 0 8.53125 3.824218 8.53125 8.535156 0 4.714844-3.820312 8.535156-8.53125 8.535156zm0 0"/><path d="m187.734375 512.003906c-128.078125 0-187.734375-37.957031-187.734375-119.46875 0-82.59375 34.132812-129.160156 62.710938-153.675781 18.285156-16.019531 40.015624-27.609375 63.507812-33.871094 3.695312-.789062 7.46875.949219 9.273438 4.265625 1.808593 3.320313 1.21875 7.429688-1.449219 10.105469-.230469.230469-23.109375 23.476563-23.109375 45.175781 0 21.085938 13.289062 34.132813 25.601562 34.132813 5.492188.570312 10.960938-1.246094 15.027344-4.980469 7.542969-8.320312 5.519531-28.734375 3.738281-46.746094-.855469-8.441406-1.707031-17.152344-1.707031-25.074218.007812-166.246094 149.265625-220.847657 150.765625-221.378907 3.972656-1.402343 8.378906.304688 10.367187 4.019531 1.988282 3.714844.96875 8.328126-2.40625 10.855469-.230468.179688-30.71875 25.035157-30.71875 104.105469 0 30.71875 22 53.035156 47.460938 78.90625 33.757812 34.296875 72.003906 73.15625 72.003906 142.960938 0 158.363281-163.285156 170.667968-213.332031 170.667968zm-83.867187-280.519531c-33.328126 16.746094-86.800782 59.4375-86.800782 161.050781 0 47.675782 19.398438 102.402344 170.667969 102.402344 177.144531 0 196.265625-107.417969 196.265625-153.601562 0-62.804688-34.132812-97.46875-67.097656-130.988282-26.929688-27.363281-52.367188-53.210937-52.367188-90.878906-1.050781-30.609375 4.742188-61.066406 16.964844-89.148438-69.601562 38.363282-112.257812 112.089844-110.832031 191.546876 0 7.074218.785156 15.003906 1.613281 23.382812 2.234375 22.605469 4.546875 45.96875-8.074219 59.90625-7.246093 7.378906-17.347656 11.242188-27.671875 10.578125-20.523437 0-42.667968-19.574219-42.667968-51.199219.476562-11.6875 3.917968-23.058594 10-33.050781zm0 0"/><path d="m187.734375 512.003906c-19.949219 0-119.464844-3.296875-119.464844-68.269531 0-54.109375 26.945313-81.679687 28.097657-82.832031 2.441406-2.4375 6.109374-3.167969 9.300781-1.847656 3.1875 1.320312 5.265625 4.429687 5.265625 7.882812 0 28.875 13.449218 59.730469 51.199218 59.730469 17.851563 1.183593 35.183594-6.269531 46.601563-20.035157 31.515625-39.253906 13.515625-122.351562 13.339844-123.179687-.746094-3.355469.59375-6.832031 3.402343-8.816406 2.804688-1.984375 6.53125-2.09375 9.449219-.269531 2.949219 1.84375 72.277344 46.003906 72.277344 118.167968 0 72.578125-46.894531 119.46875-119.46875 119.46875zm-91.007813-120.894531c-7.734374 16.453125-11.628906 34.449219-11.390624 52.625 0 49.769531 91.917968 51.203125 102.398437 51.203125 63.148437 0 102.398437-39.253906 102.398437-102.402344 0-42.265625-28.808593-74.4375-47.84375-91.066406 3.660157 29.867188 5.65625 83.558594-20.242187 115.839844-14.648437 17.8125-36.878906 27.621094-59.914063 26.425781-39.097656 0-58.621093-24.90625-65.40625-52.625zm0 0"/></svg>