<svg id="Capa_1" enable-background="new 0 0 512 512" height="512" viewBox="0 0 512 512" width="512" xmlns="http://www.w3.org/2000/svg"><g><g><g><path d="m458.35 395.953v92.31h-289.1c-25.49 0-46.15-20.67-46.15-46.16 0-2.44.19-4.83.55-7.17 3.45-22.08 22.55-38.98 45.6-38.98z" fill="#aa5e33"/><path d="m424.31 395.953c-6.31 8.81-13.35 17.19-21.1 25.05-38.3 38.86-89.42 60.73-143.93 61.58-1.11.02-2.2.03-3.31.03h-.01c-48.99-.01-95.31-16.81-132.31-47.68 3.45-22.08 22.55-38.98 45.6-38.98z" fill="#9d552e"/><circle cx="458.347" cy="442.107" fill="#e6ac8e" r="46.153"/><path d="m504.5 442.103c0 25.492-20.665 46.158-46.149 46.158-5.14 0-10.083-.839-14.696-2.391 18.292-6.139 31.462-23.413 31.462-43.766 0-20.344-13.17-37.618-31.462-43.757 4.613-1.553 9.556-2.391 14.696-2.391 25.484-.002 46.149 20.664 46.149 46.147z" fill="#e09977"/></g><g><path d="m441.106 251.683c-1.028-7.916-10.382-11.482-16.464-6.312-9.061 7.702-18.87 14.55-29.299 20.428 18.983-135.304-81.081-241.663-167.635-242.059-34.122-.156 44.087 82.511-45.003 167.061-10.187 9.668-18.737 18.742-25.926 27.241-12.832-16.389-22.991-34.972-29.804-55.1-2.537-7.496-12.403-9.085-17.321-2.885-25.275 31.866-40.35 72.172-40.325 116.004.06 104.591 85.058 188.157 189.637 186.527 101.722-1.585 183.703-84.538 183.703-186.637.001-8.225-.532-16.325-1.563-24.268z" fill="#fb6a3b"/><path d="m442.67 275.953c0 102.1-81.98 185.05-183.7 186.64-9.29.14-18.42-.38-27.35-1.54 91.62-11.91 162.38-90.24 162.38-185.1 0-8.23-.53-16.33-1.56-24.27-1.03-7.92-10.38-11.48-16.47-6.31-3.655 3.106-7.43 6.074-11.318 8.895-6.883 4.995-16.449-.351-15.984-8.843 5.776-105.554-60.076-190.155-130.048-214.563.58-4.63 3.11-7.15 9.09-7.12 86.55.39 186.62 106.75 167.63 242.06 10.43-5.88 20.24-12.73 29.3-20.43 6.08-5.17 15.44-1.61 16.47 6.31 1.03 7.941 1.56 16.041 1.56 24.271z" fill="#fb5532"/><path d="m378.601 322.907c-.681-5.243-6.876-7.605-10.905-4.181-6.001 5.101-12.498 9.637-19.406 13.53 12.573-89.615-53.702-160.06-111.029-160.322-22.6-.103 29.2 54.649-29.807 110.649-6.747 6.403-12.41 12.413-17.171 18.042-8.499-10.855-15.227-23.163-19.74-36.494-1.68-4.965-8.215-6.017-11.472-1.911-16.74 21.106-26.725 47.801-26.708 76.833.04 69.274 56.337 124.622 125.602 123.542 67.373-1.05 121.672-55.992 121.672-123.615 0-5.446-.353-10.812-1.036-16.073z" fill="#fcc16d"/><path d="m379.64 338.983c0 67.62-54.3 122.56-121.67 123.61-6.99.11-13.84-.36-20.52-1.35 59.56-8.88 105.24-60.24 105.24-122.26 0-5.45-.36-10.81-1.04-16.08-.68-5.24-6.88-7.6-10.91-4.18-6 5.11-12.49 9.64-19.4 13.53 10.34-73.73-32.68-134.48-80.19-153.85-.05-4.18 1.45-6.49 6.11-6.47 57.33.26 123.6 70.71 111.03 160.32 6.91-3.89 13.4-8.42 19.41-13.53 4.02-3.42 10.22-1.06 10.9 4.18.68 5.27 1.04 10.63 1.04 16.08z" fill="#fcb44d"/><path d="m305.745 408.078c14.911-59.33-3.502-101.84-17.569-123.712-4.393-6.83-14.592-5.923-17.694 1.581-6.21 15.025-20.871 36.796-55.482 55.845-39.752 21.878-39.165 52.079-36.182 66.286z" fill="#ffeed3"/><path d="m305.75 408.083h-35.19c11.73-46.66 2.84-82.92-8.34-106.92 3.74-5.51 6.39-10.67 8.26-15.22 3.1-7.5 13.3-8.41 17.7-1.58 14.06 21.88 32.48 64.39 17.57 123.72z" fill="#fddaa9"/></g><g><path d="m53.653 488.26c-25.489 0-46.153-20.663-46.153-46.153s20.663-46.153 46.153-46.153h262.33v92.305h-262.33z" fill="#c76d3d"/><circle cx="315.983" cy="442.107" fill="#ebbba5" r="46.153"/><path d="m362.137 442.103c0 25.492-20.665 46.158-46.158 46.158-5.131 0-10.074-.839-14.687-2.391 18.292-6.139 31.462-23.413 31.462-43.766 0-20.344-13.17-37.618-31.462-43.757 4.613-1.553 9.556-2.391 14.687-2.391 25.493-.002 46.158 20.664 46.158 46.147z" fill="#e6ac8e"/></g><g><path d="m428.154 164.434c-2.761 0-5-2.239-5-5v-18.138c0-16.492 13.37-29.862 29.862-29.862 2.761 0 5 2.239 5 5v18.138c-.001 16.493-13.37 29.862-29.862 29.862z" fill="#fb6a3b"/></g><g><path d="m155.164 95.034c2.761 0 5-2.239 5-5v-18.139c0-16.492-13.37-29.862-29.862-29.862-2.761 0-5 2.239-5 5v18.138c0 16.493 13.369 29.863 29.862 29.863z" fill="#fb6a3b"/></g></g><g><path d="m458.348 388.455h-44.134c23.067-32.444 35.957-71.634 35.957-112.503 0-8.438-.548-16.928-1.627-25.235-.828-6.375-5.06-11.771-11.042-14.082-6.004-2.318-12.794-1.161-17.717 3.022-4.89 4.156-10.018 8.059-15.338 11.676 4.798-63.074-15.073-124.957-55.632-171.819-34.125-39.429-79.386-63.082-121.072-63.273-.043 0-.084 0-.126 0-5.792 0-10.212 1.826-13.137 5.429-5.676 6.992-3.426 17.473-.312 31.98 3.22 14.998 7.629 35.538 4.398 58.217-3.831 26.892-17.25 50.932-41.024 73.495-7.341 6.966-14.139 13.917-20.292 20.745-9.896-14.038-17.674-29.328-23.17-45.569-2.042-6.03-7.213-10.455-13.497-11.547-6.355-1.105-12.794 1.35-16.805 6.406-23.572 29.721-37.809 65.376-41.17 103.111-.367 4.126 2.68 7.769 6.806 8.136 4.113.365 7.768-2.678 8.136-6.805 3.1-34.809 16.233-67.701 37.98-95.12.838-1.057 1.919-1.048 2.483-.95.642.111 1.484.476 1.857 1.578 7.012 20.714 17.442 39.999 31.003 57.319 1.391 1.776 3.508 2.833 5.764 2.875 2.291.053 4.411-.933 5.868-2.655 7.324-8.659 15.856-17.624 25.362-26.644 25.957-24.635 41.282-52.311 45.549-82.259 3.607-25.327-1.127-47.379-4.583-63.481-1.482-6.902-3.484-16.229-2.736-19.142.302-.059.816-.119 1.576-.119 37.42.171 78.466 21.887 109.799 58.089 41.045 47.425 59.431 111.366 50.442 175.427-.396 2.825.845 5.631 3.202 7.238 2.356 1.607 5.42 1.739 7.908.337 10.785-6.079 21.038-13.227 30.474-21.247 1.029-.873 2.068-.661 2.598-.458.515.199 1.403.726 1.571 2.022.997 7.669 1.502 15.509 1.502 23.302 0 56.174-26.37 108.921-70.919 142.749-.539-1.107-1.124-2.186-1.736-3.249 16.101-22.38 24.621-48.78 24.621-76.469 0-5.696-.37-11.43-1.099-17.04-.668-5.145-4.083-9.499-8.912-11.364-4.845-1.871-10.32-.938-14.287 2.434-1.838 1.563-3.728 3.07-5.664 4.518 1.217-27.365-4.421-54.223-16.58-78.49-1.854-3.704-6.359-5.201-10.064-3.346-3.703 1.855-5.201 6.362-3.346 10.065 13.118 26.184 17.849 55.734 13.679 85.456-.396 2.826.845 5.631 3.202 7.238 2.358 1.608 5.422 1.738 7.908.337 6.832-3.85 13.346-8.335 19.383-13.343.518 4.468.78 9.014.78 13.535 0 23.07-6.675 45.128-19.333 64.157-9.349-8.838-21.859-14.353-35.638-14.654 6.727-49.598-8.462-86.067-22.683-108.176-3.549-5.519-9.791-8.586-16.32-7.997-6.51.586-12.108 4.713-14.612 10.77-5.718 13.834-19.409 34.11-52.167 52.139-29.53 16.253-38.711 37.116-40.779 53.233h-19.792c-7.252-15.438-10.939-32.033-10.949-49.405-.015-25.981 8.318-50.472 24.12-70.936 4.726 13.394 11.582 25.881 20.395 37.137 1.391 1.776 3.508 2.833 5.764 2.875 2.271.051 4.411-.933 5.868-2.655 4.795-5.669 10.383-11.539 16.608-17.446 40.786-38.708 32.381-77.862 27.865-98.896-.709-3.305-1.547-7.208-1.788-9.669 24.659.679 51.26 15.57 71.455 40.082 2.633 3.196 7.359 3.654 10.558 1.02 3.196-2.634 3.652-7.361 1.019-10.558-23.396-28.398-54.959-45.432-84.431-45.567-5.806-.005-9.071 2.45-10.762 4.532-4.524 5.572-2.927 13.012-.717 23.309 4.441 20.689 11.153 51.956-23.524 84.868-4.063 3.855-7.88 7.707-11.412 11.513-5.57-8.375-10.008-17.399-13.233-26.928-1.649-4.874-5.827-8.45-10.904-9.333-5.119-.888-10.315 1.088-13.548 5.165-18.552 23.39-28.35 51.572-28.332 81.498.01 17.23 3.227 33.794 9.572 49.396h-18.11c-22.364-27.768-35.787-61.263-38.823-96.927-.352-4.127-3.987-7.185-8.108-6.837-4.128.352-7.188 3.982-6.837 8.109 2.954 34.709 14.991 67.523 34.97 95.655h-43.875c-29.584-.001-53.652 24.067-53.652 53.651s24.068 53.653 53.652 53.653h404.695c29.584 0 53.652-24.068 53.652-53.653.001-29.584-24.067-53.652-53.651-53.652zm-103.712 53.652c0 21.313-17.34 38.653-38.653 38.653s-38.652-17.339-38.652-38.653c0-21.313 17.34-38.652 38.652-38.652 21.313 0 38.653 17.339 38.653 38.652zm-339.636 0c0-3.048.365-6.01 1.036-8.856 11.511-3.299 40.166-5.137 86.116 6.936 21.229 5.578 37.934 7.273 50.404 7.273 18.675 0 27.849-3.805 28.467-4.072 3.803-1.641 5.594-6.07 3.952-9.874-1.64-3.802-6.012-5.573-9.82-3.931-.053.021-5.437 2.16-16.561 2.755-10.346.555-27.869-.153-52.63-6.66-39.552-10.392-65.776-10.787-81.339-9.054 7.089-8.066 17.47-13.171 29.027-13.171h145.52c4.143 0 7.5-3.358 7.5-7.5s-3.357-7.5-7.5-7.5h-13.407c2.708-16.1 13.73-29.568 32.852-40.092 36.574-20.129 52.161-43.495 58.798-59.551.512-1.239 1.532-1.509 2.095-1.56.569-.045 1.628.034 2.359 1.171 13.027 20.254 26.93 53.926 20.142 100.032h-69.848c-4.143 0-7.5 3.358-7.5 7.5s3.357 7.5 7.5 7.5h46.668c-10.159 9.768-16.5 23.48-16.5 38.652 0 2.088.133 4.144.366 6.17-4.031 2.645-13.476 7.614-27.56 7.614-4.143 0-7.5 3.358-7.5 7.5s3.357 7.5 7.5 7.5c14.169 0 24.843-4.002 31.567-7.59 2.855 6.613 7.007 12.535 12.128 17.459h-131.496c-33.681-29.142-98.095-30.684-100.882-30.736-4.181-.106-7.561 3.217-7.639 7.358-.077 4.142 3.218 7.562 7.359 7.639.16.003 16.31.345 36.077 4.175 14.416 2.794 26.971 6.703 37.285 11.564h-65.884c-21.312.002-38.652-17.338-38.652-38.651zm338.135 38.653c10.159-9.768 16.5-23.48 16.5-38.653 0-2.812-.22-5.573-.639-8.27 12.408-8.894 23.592-19.106 33.408-30.383h18.79c-10.159 9.768-16.5 23.48-16.5 38.652 0 15.173 6.341 28.884 16.5 38.653h-68.059zm105.213 0c-21.313 0-38.653-17.339-38.653-38.653 0-21.313 17.34-38.652 38.653-38.652s38.652 17.339 38.652 38.652-17.34 38.653-38.652 38.653z"/><path d="m480.677 434.607c-4.143 0-7.5 3.358-7.5 7.5 0 8.177-6.652 14.83-14.829 14.83s-14.829-6.652-14.829-14.83c0-8.177 6.652-14.829 14.829-14.829 4.143 0 7.5-3.358 7.5-7.5s-3.357-7.5-7.5-7.5c-16.448 0-29.829 13.381-29.829 29.829s13.381 29.83 29.829 29.83 29.829-13.381 29.829-29.83c0-4.142-3.358-7.5-7.5-7.5z"/><path d="m286.153 442.107c0 16.448 13.381 29.83 29.829 29.83s29.83-13.381 29.83-29.83c0-4.142-3.357-7.5-7.5-7.5s-7.5 3.358-7.5 7.5c0 8.177-6.652 14.83-14.83 14.83-8.177 0-14.829-6.652-14.829-14.83 0-8.177 6.652-14.829 14.829-14.829 4.143 0 7.5-3.358 7.5-7.5s-3.357-7.5-7.5-7.5c-16.448 0-29.829 13.381-29.829 29.829z"/><path d="m241.456 435.103h.045c4.121 0 7.475-3.329 7.499-7.457.024-4.142-3.314-7.519-7.456-7.543h-.084c-.016 0-.03 0-.045 0-4.121 0-7.433 3.33-7.457 7.457-.024 4.141 3.356 7.519 7.498 7.543z"/><path d="m428.153 171.935c20.602 0 37.362-16.76 37.362-37.362v-18.138c0-6.893-5.607-12.5-12.5-12.5-20.602 0-37.362 16.76-37.362 37.361v18.139c0 6.892 5.608 12.5 12.5 12.5zm2.5-30.639c0-11.485 8.704-20.976 19.862-22.223v15.5c0 11.485-8.704 20.976-19.862 22.223z"/><path d="m155.164 102.534c6.893 0 12.5-5.607 12.5-12.5v-18.138c0-20.602-16.761-37.362-37.362-37.362-6.893 0-12.5 5.607-12.5 12.5v18.138c0 20.601 16.761 37.362 37.362 37.362zm-22.362-52.862c11.158 1.247 19.862 10.738 19.862 22.223v15.5c-11.158-1.247-19.862-10.738-19.862-22.223z"/></g></g></svg>