<svg height="512" viewBox="0 0 60 60" width="512" xmlns="http://www.w3.org/2000/svg"><g id="Page-1" fill="none" fill-rule="evenodd"><g id="016---Fire"><g id="Icons_copy" transform="translate(1 1)"><path id="Path" d="m43 58h-26l2.2-6.61c.0339324-.1055808.0740006-.2090903.12-.31.3344255-.8827696.8486266-1.6864217 1.51-2.36.3874227-.4033097.824209-.7560986 1.3-1.05l4.17-2.61c1.113883-.6917986 2.3987718-1.0589097 3.71-1.06h3.71c2.0788689-.0019421 4.0507021.9216675 5.38 2.52l.33.4 1.26 1.5c.2110719.2568469.4048325.5274438.58.81.5245269.8554895.8587633 1.8138612.98 2.81z" fill="#9e9e9e"/><path id="Path" d="m42.25 52.04c-.1212367-.9961388-.4554731-1.9545105-.98-2.81-.1751675-.2825562-.3689281-.5531531-.58-.81l-1.26-1.5-.33-.4c-1.3292979-1.5983325-3.3011311-2.5219421-5.38-2.52l-3-.0000031c2.0788689-.001939 4.0507021.9216706 5.38 2.5200031l.33.4 1.26 1.5c.2110719.2568469.4048325.5274438.58.81.5245269.8554895.8587633 1.8138612.98 2.81l.75 5.96h3z" fill="#707070"/><path id="Path" d="m19.32 51.08c-.0459994.1009097-.0860676.2044192-.12.31l-2.2 6.61h-17l1.35-4.74c.42089085-1.4663386 1.30928589-2.7550382 2.53-3.67l.25-.19c1.21234899-.9074644 2.6856422-1.3985621 4.2-1.4h4.43c.12 0 .23 0 .35.01 1.3362706.0734858 2.6251155.5204239 3.72 1.29z" fill="#9e9e9e"/><path id="Path" d="m16.83 49.3c-1.0948845-.7695761-2.3837294-1.2165142-3.72-1.29-.12-.01-.23-.01-.35-.01h-3c.12 0 .23 0 .35.01 1.3362706.0734858 2.6251155.5204239 3.72 1.29l2.49 1.78c-.0459994.1009097-.0860676.2044192-.12.31l-2.2 6.61h3l2.2-6.61c.0339324-.1055808.0740006-.2090903.12-.31z" fill="#707070"/><path id="Path" d="m58 58h-15l-.75-5.96c-.1212367-.9961388-.4554731-1.9545105-.98-2.81 1.0811478-.7349415 2.3442184-1.1571185 3.65-1.22.11-.01.21-.01.32-.01h4.43c1.5143578.0014379 2.987651.4925356 4.2 1.4l.25.19c1.2207141.9149618 2.1091092 2.2036614 2.53 3.67z" fill="#9e9e9e"/><path id="Path" d="m56.65 53.26c-.4208908-1.4663386-1.3092859-2.7550382-2.53-3.67l-.25-.19c-1.212349-.9074644-2.6856422-1.3985621-4.2-1.4h-3c1.5143578.0014379 2.987651.4925356 4.2 1.4l.25.19c1.2207141.9149618 2.1091092 2.2036614 2.53 3.67l1.35 4.74h3z" fill="#707070"/><path id="Path" d="m49 35c.0080947 4.6527208-1.4164264 9.1951276-4.08 13.01-1.3057816.0628815-2.5688522.4850585-3.65 1.22-.1751675-.2825562-.3689281-.5531531-.58-.81l-1.59-1.9c-1.3292979-1.5983325-3.3011311-2.5219421-5.38-2.52h-3.71c-1.3112282.0010903-2.596117.3682014-3.71 1.06l-4.17 2.61c-1.2865721.7962704-2.2743366 1.9949456-2.81 3.41l-2.49-1.78c-1.0948845-.7695761-2.3837294-1.2165142-3.72-1.29-2.672165-3.432343-4.11897655-7.6601306-4.11-12.01 0-9.53 5.88-19.33 5.88-19.33s-1.17 7.15 4.71 7.15 8.23-15.48 2.35-23.82c0 0 10.59 1.19 14.12 13.1 0 0 2.35 0 3.53-4.76 0 0 9.41 9.98 9.41 26.66z" fill="#ff9801"/><path id="Path" d="m35.358 11.38c.0233333-.0353333.0463333-.0713333.069-.108-2.1728551-5.88727613-7.3075227-10.17866579-13.487-11.272.241.342.463.7.677 1.065 4.4562632 1.85884726 7.9635417 5.45205656 9.714 9.952.2263876.5993528.7673043 1.0230722 1.40343 1.0993569.6361256.0762846 1.2618897-.2075256 1.62357-.7363569z" fill="#f57c00"/><path id="Path" d="m39.59 8.34c-.2104975.90482094-.5368583 1.7787016-.971 2.6 4.838638 7.0881751 7.4123718 15.477829 7.381 24.06.0080947 4.6527208-1.4164264 9.1951276-4.08 13.01-.4686419.0269899-.933346.1013694-1.387.222l.157.188c.2110719.2568469.4048325.5274438.58.81 1.0811478-.7349415 2.3442184-1.1571185 3.65-1.22 2.6635736-3.8148724 4.0880947-8.3572792 4.08-13.01 0-16.68-9.41-26.66-9.41-26.66z" fill="#f57c00"/><path id="Path" d="m39.43 46.92-.33-.4c-1.3292979-1.5983325-3.3011311-2.5219421-5.38-2.52h-3.71c-1.3112282.0010903-2.596117.3682014-3.71 1.06l-4.17 2.61c-.475791.2939014-.9125773.6466903-1.3 1.05-2.66-2.99-3.31-7.54-2.51-11.6 0 0 9.34 2.7 6.67-8.12 4.2263156 1.0695668 7.693077 4.0834964 9.34 8.12 0 0 2.67-1.36 2.67-4.06 0 0 4.65 8.25 2.43 13.86z" fill="#ffdf00"/></g><g id="Icons" fill="#000" fill-rule="nonzero"><path id="Shape" d="m1 60h58c.3137063.0000848.6092714-.1470467.7983117-.3973973s.2496438-.574902.1636883-.8766027l-1.351-4.743c-.4816862-1.6729064-1.4946922-3.1436254-2.886-4.19l-.257-.2c-1.3839183-1.0402004-3.0687452-1.6018094-4.8-1.6h-2.888c2.0896493-3.6530765 3.198905-7.7845374 3.22-11.993 0-16.883-9.287-26.927-9.683-27.346-.2508422-.26721062-.6277618-.37579211-.9823173-.282982-.3545555.09281012-.6299337.37214014-.7176827.727982-.562 2.271-1.375 3.256-1.933 3.682-2.149749-6.62983582-7.772773-11.53922149-14.632-12.775-.3912314-.04398969-.7718671.14566811-.9723558.48449172-.2004886.3388236-.1835167.7637537.0433558 1.08550828 4 5.668 4.031 14.922 1.563 19.683-.606 1.168-1.635 2.561-3.1 2.561-1.0385682.0798842-2.0564489-.3207082-2.762-1.087-1.452-1.7-.966-4.872-.961-4.9.0775704-.4737457-.192447-.9357718-.643277-1.1007096s-.9552567.013755-1.201723.4257096c-.242.407-6.018 10.147-6.018 19.842-.01186483 3.8978929 1.0990719 7.7167378 3.2 11h-2.87c-1.73123135-.0016641-3.41601341.5599299-4.8 1.6l-.243.185c-1.3960075 1.0477738-2.41207924 2.5223769-2.894 4.2l-1.35 4.74c-.08609524.3009911-.02626438.6249317.16166728.8753109s.48227345.3982987.79533272.3996891zm18.388-2 1.764-5.3c.442335-1.322871 1.3306794-2.450888 2.513-3.191l4.163-2.6c.9536417-.5955327 2.0556827-.9105501 3.18-.909h3.714c1.7807902-.0020895 3.4699261.7893264 4.608 2.159l1.588 1.9c.7358293.8832836 1.2026484 1.9592237 1.345 3.1l.6 4.839zm7.917-26.538c3.2398244 1.2518711 5.8110683 3.7977469 7.095 7.025.103396.2623459.3127496.4688441.5764907.5686277.263741.0997836.5573527.083577.8085093-.0446277.9742207-.5343214 1.8032311-1.2984527 2.415-2.226.979 2.306 2.2 6 1.726 9.15-1.4463974-1.2483555-3.2933831-1.935119-5.204-1.935h-3.714c-1.4994727-.0008136-2.9688753.4206-4.24 1.216l-4.164 2.6c-.221.138-.415.31-.621.468-1.6947267-2.6660751-2.3512912-5.8617113-1.845-8.98 1.446.21 4 .288 5.714-1.358 1.418-1.362 1.904-3.539 1.453-6.484zm26.961 19.738.256.2c1.0440347.7847681 1.8043189 1.8879876 2.166 3.143l.988 3.457h-12.793l-.636-5.088c-.1013646-.7925358-.320796-1.5654334-.651-2.293.8226395-.4051437 1.727009-.6168701 2.644-.619h4.43c1.2970287-.0002174 2.5590272.4209166 3.596 1.2zm-39.215-29.759c.2089426.9469034.6370754 1.831597 1.25 2.583 1.0796073 1.2237216 2.6594224 1.8867356 4.289 1.8 1.924 0 3.654-1.293 4.871-3.641 2.447-4.723 2.682-13.416-.461-19.673 3.121 1.01 8.735 3.9 11.1 11.874.1258023.4247264.5160341.7160778.959.716.279 0 2.481-.118 3.921-3.7 5.2329177 7.1325505 8.0435687 15.7537494 8.02 24.6.0008881 4.2942581-1.2687276 8.4927928-3.649 12.067-.9775622.1098528-1.9266377.398304-2.8.851-.035-.044-.061-.092-.1-.135l-.903-1.083c1.865-5.931-2.484-13.784-2.677-14.126-.2227853-.3950041-.6834918-.5906366-1.1224248-.4766219-.438933.1140146-.7461905.509129-.7485752.9626219-.0382816.9863411-.4942242 1.9098612-1.254 2.54-1.9367645-3.7917775-5.424199-6.5560381-9.558-7.576-.3357264-.0675079-.6826501.0414709-.9194673.2888313s-.3305909.5986991-.2485327.9311687c.747 3.028.556 5.193-.55 6.262-1.616 1.559-4.841.666-4.872.658-.2696188-.0798886-.5604901-.0413481-.8.106-.2395757.1459216-.4068459.3857602-.461.661-.9443973 4.0532199-.1463968 8.3167191 2.2 11.754-.2177936.286457-.4162342.5871246-.594.9l-1.542-1.1c-1.1054317-.7779521-2.3895024-1.2639933-3.733-1.413-2.3851953-3.1982692-3.6719059-7.0822547-3.668-11.072 0-5.884 2.358-11.958 4.051-15.559zm-11.74 33.1c.36303671-1.2581177 1.12580951-2.3638399 2.173-3.15l.244-.184c1.03766533-.7829475 2.30209386-1.2066469 3.602-1.207h4.43c1.2499611.0002665 2.4689063.3892246 3.488 1.113l1.88 1.344-1.848 5.543h-14.956z"/></g></g></g></svg>