<svg id="Layer_1" enable-background="new 0 0 511.91 511.91" height="512" viewBox="0 0 511.91 511.91" width="512" xmlns="http://www.w3.org/2000/svg"><g id="XMLID_1526_"><g fill="#bfdbff"><path id="XMLID_1325_" d="m369.07 157.48-49.491-51.782c-2.584-2.704-6.531-3.608-10.035-2.299l-90.558 33.842 36.034 23.723z"/><path id="XMLID_1936_" d="m365.695 347.803c-15.478 2.517-31.359 3.834-47.548 3.834-.996 0-1.97-.017-2.953-.027v48.449c0 7.577 8.824 11.804 14.677 6.992 17.097-14.056 29.387-33.321 34.819-55.097l1.035-4.15z"/><path id="XMLID_1864_" d="m236.805 336.565-48.129 23.883c-15.973 7.926-34.264-5.387-31.631-23.023.574-3.844.122-7.771-1.309-11.385l-16.706-42.17z"/><path id="XMLID_1854_" d="m255.021 160.965-57.524-31.621-58.467 51.503 30.695 30.649z"/><path id="XMLID_1760_" d="m107.578 279.894c-18.296 21.877-45.793 35.793-76.543 35.793-4.543 0-9.014-.307-13.394-.899-6.84-.924-9.983-8.936-5.702-14.351 12.084-15.286 21.727-32.591 28.334-51.33-6.606-18.739-16.249-36.043-28.334-51.329-4.28-5.415-1.138-13.427 5.702-14.351 4.38-.592 8.851-.899 13.394-.899 33.278 0 62.745 16.297 80.865 41.344z"/></g><path id="XMLID_1698_" d="m127.236 223.873c19.585 0 38.409-7.313 53.05-20.321 36.67-32.577 84.95-52.368 137.86-52.368 76.474 0 143.284 41.334 179.332 102.877 8.617 14.711 4.545 33.613-9.358 43.483-47.99 34.066-106.643 54.094-169.975 54.094-57.543 0-93.76-16.534-131.51-45.109-22.683-17.17-50.371-26.437-78.82-26.437l-22.313-28.681 22.313-27.538z" fill="#a0c8ff"/><path id="XMLID_2242_" d="m493.54 247.61c11.523 18.125 6.435 42.061-11.382 54.057-14.139 9.519-29.153 17.836-44.89 24.82-23.502-10.697-42.123-30.248-51.604-54.391 5.215-34.893 28.5-63.88 60.029-77.132 18.801 14.652 35.018 32.466 47.847 52.646z" fill="#80b6ff"/><path id="XMLID_1866_" d="m385.664 272.096-64.989-24.568c-7.967-3.012-15.179 5.856-10.608 13.042l24.019 37.757c1.626 2.556 4.446 4.104 7.475 4.104h59.095z" fill="#bfdbff"/><g id="XMLID_419_"><path id="XMLID_421_" d="m444.456 239.852c-1.86 1.86-2.93 4.44-2.93 7.07s1.069 5.21 2.93 7.07c1.86 1.859 4.44 2.93 7.07 2.93 2.64 0 5.21-1.07 7.069-2.93 1.87-1.86 2.931-4.44 2.931-7.07s-1.061-5.21-2.931-7.07c-1.859-1.859-4.43-2.93-7.069-2.93-2.629 0-5.209 1.07-7.07 2.93z"/><path id="XMLID_728_" d="m506.108 249.007c-5.977-10.203-12.844-19.997-20.411-29.11-3.527-4.25-9.833-4.836-14.081-1.306-4.249 3.527-4.834 9.832-1.306 14.081 6.874 8.279 13.112 17.177 18.54 26.444.776 1.324 1.394 2.703 1.874 4.112l-23.754 5.562c-5.378 1.259-8.717 6.639-7.457 12.016 1.079 4.611 5.188 7.723 9.728 7.723.755 0 1.522-.086 2.288-.266l15.736-3.685c-1.367 1.81-3.007 3.445-4.932 4.812-14.258 10.121-29.277 18.817-44.888 26.062-18.419-9.532-33.285-25.474-41.454-44.528 2.873-15.933 10.015-30.761 20.751-43.031 3.637-4.156 3.215-10.475-.941-14.111-4.157-3.636-10.474-3.215-14.111.941-11.141 12.733-19.11 27.727-23.419 43.889l-54.06-20.436c-7.727-2.924-16.088-.669-21.301 5.741-5.212 6.408-5.714 15.053-1.28 22.021l24.018 37.756c3.48 5.472 9.429 8.738 15.913 8.738h58.66c4.446 4.537 9.272 8.703 14.43 12.419-30.656 11.075-63.188 16.787-96.505 16.787-56.901 0-91.313-17.223-125.475-43.083-22.932-17.357-51.13-27.341-79.896-28.374l-14.504-18.644 14.313-17.664h14.651c21.911 0 43.109-8.113 59.692-22.845 36.18-32.143 82.781-49.844 131.219-49.844 29.744 0 58.331 6.439 84.967 19.14 4.981 2.374 10.952.263 13.33-4.723 2.377-4.985.263-10.953-4.723-13.33-12.122-5.78-24.615-10.364-37.405-13.776l-47.507-49.705c-5.354-5.604-13.504-7.472-20.765-4.758l-90.499 33.82-13.231-7.273c-3.694-2.03-8.265-1.527-11.427 1.26l-58.467 51.504c-2.074 1.827-3.299 4.43-3.385 7.191s.974 5.437 2.93 7.389l20.987 20.955c-8.144 3.265-16.855 4.995-25.715 4.995h-10.397c-20.749-25.975-52.438-41.344-85.805-41.344-4.921 0-9.877.333-14.732.988-6.788.917-12.369 5.252-14.932 11.597-2.542 6.296-1.499 13.524 2.723 18.865 10.839 13.712 19.42 28.879 25.536 45.128-6.116 16.25-14.697 31.418-25.536 45.128-4.222 5.34-5.265 12.568-2.723 18.864 2.562 6.345 8.143 10.681 14.931 11.599 4.855.655 9.812.988 14.733.988 30.872 0 60.038-12.886 80.818-35.517 6.676.229 13.317 1.015 19.843 2.339l14.742 37.213c.782 1.973 1.029 4.125.715 6.225-1.77 11.857 3.152 23.605 12.844 30.66 5.602 4.077 12.205 6.155 18.854 6.155 4.855 0 9.736-1.108 14.269-3.357l44.01-21.838c19.505 7.707 41.442 12.59 68.063 13.777v38.715c0 7.431 4.179 14.021 10.906 17.199 2.621 1.239 5.397 1.847 8.148 1.847 4.278 0 8.496-1.471 11.973-4.329 18.16-14.929 31.428-35.539 37.58-58.219 43.071-7.949 83.87-25.135 120.11-50.859 17.984-12.764 23.341-37.667 12.199-56.69zm-185.764 9.087 57.768 21.837c1.908 4.311 4.101 8.484 6.547 12.501h-42.471zm-7.698-145.177 28.131 29.433c-7.469-.765-15.013-1.166-22.63-1.166-21.174 0-42.026 3.083-61.972 9.002l-17.508-9.624zm-113.81 28.574 32.372 17.795c-20.832 9.077-40.278 21.435-57.563 36.791-.924.821-1.871 1.608-2.83 2.375l-17.175-17.149zm-121.225 116.061 16.943 21.779c-16.788 16.835-39.525 26.356-63.52 26.356-3.358 0-6.736-.189-10.066-.563 12.375-15.982 22.04-33.701 28.735-52.691.758-2.152.758-4.498 0-6.65-6.695-18.989-16.359-36.707-28.734-52.69 3.331-.373 6.708-.563 10.065-.563 25.094 0 49.035 10.627 65.922 28.862l-19.222 23.724c-2.927 3.613-2.978 8.766-.123 12.436zm106.619 93.937c-4.103 2.036-8.761 1.642-12.463-1.053s-5.509-7.007-4.833-11.535c.833-5.579.176-11.301-1.902-16.546l-8.739-22.058c8.61 3.766 16.792 8.516 24.308 14.205 10.934 8.277 21.899 15.742 33.501 22.165zm140.964 46.428v-36.368c8.927-.202 17.794-.792 26.587-1.756-5.528 14.651-14.72 27.883-26.587 38.124z"/><path id="XMLID_767_" d="m445.697 204.962c2.63 0 5.21-1.07 7.07-2.93 1.859-1.86 2.93-4.44 2.93-7.07s-1.07-5.2-2.93-7.07c-1.86-1.859-4.44-2.93-7.07-2.93s-5.21 1.07-7.07 2.93c-1.859 1.86-2.93 4.44-2.93 7.07s1.07 5.21 2.93 7.07 4.44 2.93 7.07 2.93z"/></g></g></svg>