<svg id="Capa_1" enable-background="new 0 0 512 512" height="512" viewBox="0 0 512 512" width="512" xmlns="http://www.w3.org/2000/svg"><g><g><path d="m256 236.304c-37.082 0-191.697 66.211-235.591 119.37 11.373 55.569 160.82 110.826 235.591 110.826 77.437 0 224.218-55.257 235.591-110.826-38.642-50.204-198.509-119.37-235.591-119.37z" fill="#f5fcff"/><path d="m256 459.5c-74.771 0-220.591-59.182-220.591-104.826 0-2.16.07-4.393.203-6.687-5.987 0-12.305 1.711-15.203 7.687 0 58.014 158.154 118.826 235.591 118.826s235.591-57.994 235.591-118.826c-28.887 51.442-158.154 103.826-235.591 103.826z" fill="#d8e2f3"/><path d="m227.135 473.464c1.252 15.518 13.045 23.036 33.865 23.036 19.658 0 27.844-7.518 35.88-14.794 1.322-2.592 2.585-5.348 3.89-8.242z" fill="#f5fcff"/><path d="m227.135 473.464h-15.905c8.212 18.209 14.757 31.036 44.77 31.036 25.244 0 33.885-9.076 40.88-22.794-6.088 4.934-16.222 7.794-35.88 7.794-20.82 0-28.42-6.176-33.865-16.036z" fill="#d8e2f3"/><path d="m204.169 369.669-18.716 59.644c-2.859 20.018 10.805 38.187 34.382 38.187h72.331c18.445 0 34.294-12.892 35.518-25.091.426-4.246.089-8.666-1.137-13.096l-18.716-59.644z" fill="#f5fcff"/><path d="m292.166 459.5h-72.331c-21.195 0-30.562-15.885-27.226-27.941l-7.156-2.246c-6.287 22.723 10.805 45.187 34.382 45.187h72.331c18.98 0 33.747-14.56 35.508-32.092-4.344 11.546-18.573 17.092-35.508 17.092z" fill="#d8e2f3"/><path d="m312.844 132.13s-33.08-7.176-56.844-7.176-56.844 7.176-56.844 7.176-88.434 46.519-123.445 94.278c-27.651 43.886-46.915 87.573-40.1 121.579 68.364-30.001 151.266-6.883 187.545 68.318h65.687c39.016-80.875 131.96-101.524 202.747-60.63 0-29.66-20.291-81.508-55.303-129.266-35.01-47.76-123.443-94.279-123.443-94.279z" fill="#ebb044"/><path d="m75.712 226.408c-35.011 47.759-55.303 99.606-55.303 129.266 4.966-2.869 10.045-5.424 15.203-7.687 1.927-33.346 17.618-80.277 40.1-121.579z" fill="#e38523"/><path d="m256 436.5c9.338 0 28.647-9.679 32.844-20.196 0-12.468-9.08-14.986-32.844-14.986-14.764 0-23.857.974-28.629 4.7 0 15.659 20.44 30.482 28.629 30.482z" fill="#8c818f"/><path d="m223.156 416.304c0 12.468 21.823 28.196 32.844 28.196s32.844-15.728 32.844-28.196c-4.382 5.78-23.506 13.196-32.844 13.196-8.189 0-24.692-12.096-28.629-23.481-2.909 2.271-4.215 5.564-4.215 10.285z" fill="#655e67"/><path d="m111.397 7.5c-16.705 6.775-46.855 105.65-29.563 200.092 41.448-41.898 117.323-75.462 117.323-75.462-.001-51.354-61.723-124.63-87.76-124.63z" fill="#f5fcff"/><path d="m111.397 7.5c-28.945 0-58.162 133.694-35.685 218.908 73.722-73.242 123.445-68.012 123.445-94.278 0 0-62.343 17.822-111.692 58.351-11.753-79.105 14.321-173.546 23.932-182.981z" fill="#d8e2f3"/><path d="m400.603 7.5c-26.037 0-87.759 73.276-87.759 124.63 0 0 120.153 75.462 127.843 73.165 13.44-84.48-13.435-197.795-40.084-197.795z" fill="#f5fcff"/><path d="m424.535 190.481c-49.349-40.53-111.692-58.351-111.692-58.351 0 26.266 49.722 21.036 123.445 94.278 1.784-6.762 3.239-13.832 4.398-21.113-5.077-5.156-10.466-10.145-16.151-14.814z" fill="#d8e2f3"/></g><g><path d="m256 512c-31.729 0-41.588-13.848-50.168-32.299-4.095-1.394-7.948-3.4-11.445-5.962-33.654-7.825-68.675-20.234-98.716-34.987-3.718-1.826-5.252-6.32-3.426-10.038 1.826-3.717 6.318-5.252 10.038-3.426 23.66 11.619 50.528 21.738 77.283 29.184-3.35-8.556-3.874-18.007-1.342-27.159.023-.082.047-.164.073-.246l13.586-43.295c-15.297-16.179-34.226-28.153-55.588-34.864-35.198-11.057-74.397-7.041-108.028 10.975 2.626 15.714 19.631 33.816 48.55 51.496 3.534 2.161 4.647 6.777 2.487 10.311-2.161 3.534-6.777 4.647-10.311 2.487-36.69-22.431-56.083-46.118-56.083-68.502 0-32.97 21.877-85.188 54.668-130.827-3.864-15.793-6.229-33.622-7.035-53.061-.171-4.139 3.044-7.633 7.183-7.805 4.137-.175 7.633 3.044 7.805 7.183.606 14.627 2.13 28.24 4.543 40.641 18.501-17.222 35.358-29.623 50.135-39.018l-15.76-73.926c-.863-4.051 1.721-8.036 5.772-8.899 4.051-.865 8.035 1.72 8.898 5.771l14.681 68.865c8.48-4.843 16.068-8.713 22.654-12.073 19.046-9.716 25.204-13.441 25.204-20.397 0-21.221-12.187-50.026-32.601-77.052-19.663-26.031-39.231-40.077-47.66-40.077-2.67 0-11.672 6.499-21.142 36.172-8.102 25.388-13.471 58.504-14.732 90.857-.161 4.139-3.655 7.372-7.786 7.202-4.139-.161-7.364-3.647-7.202-7.786 1.311-33.647 6.935-68.212 15.43-94.833 9.87-30.929 21.791-46.612 35.432-46.612 12.016 0 33.991 12.094 59.628 46.037 25.919 34.316 33.203 61.639 35.054 77.077 11.569-2.156 32.98-5.66 49.92-5.66 16.939 0 38.351 3.504 49.92 5.66 1.851-15.438 9.135-42.761 35.054-77.077 25.639-33.943 47.614-46.037 59.63-46.037 13.641 0 25.562 15.683 35.432 46.612 8.495 26.621 14.12 61.187 15.43 94.833.162 4.139-3.063 7.625-7.202 7.786-4.132.163-7.625-3.063-7.786-7.202-1.261-32.354-6.63-65.47-14.732-90.857-9.47-29.673-18.472-36.172-21.142-36.172-8.429 0-27.997 14.046-47.659 40.078-20.414 27.026-32.601 55.831-32.601 77.052 0 6.956 6.157 10.681 25.204 20.397 6.586 3.36 14.174 7.23 22.654 12.073l14.681-68.865c.864-4.051 4.851-6.639 8.898-5.771 4.051.863 6.635 4.848 5.772 8.899l-15.76 73.926c14.776 9.395 31.634 21.796 50.135 39.018 2.413-12.401 3.937-26.014 4.543-40.641.172-4.138 3.64-7.36 7.805-7.183 4.138.172 7.354 3.666 7.183 7.805-.807 19.439-3.171 37.268-7.035 53.061 32.791 45.639 54.668 97.857 54.668 130.827 0 56.853-111.192 102.691-182.117 118.524-3.325 2.343-6.959 4.193-10.806 5.502-8.573 18.445-18.401 32.298-50.168 32.298zm-32.177-30c5.86 9.891 13.316 15 32.177 15 18.884 0 26.328-5.109 32.18-15zm39.677-15h28.666c8.875 0 17.047-4.051 22.421-11.114 5.35-7.031 7.083-15.939 4.764-24.458l-10.635-33.892c-4.652 6.423-8.832 13.345-12.48 20.724-1.539 13.975-19.081 28.127-32.735 32.424v16.316zm-70.851-35.572c-2.319 8.519-.586 17.427 4.764 24.458 5.374 7.063 13.546 11.114 22.421 11.114h28.666v-16.315c-13.654-4.297-31.196-18.449-32.735-32.424-3.64-7.362-7.817-14.284-12.481-20.723zm127.468-47.657 13.586 43.297c.026.082.05.164.073.246 2.583 9.336 1.985 18.986-1.548 27.677 34.888-9.415 69.943-23.365 96.738-38.7 32.905-18.832 52.126-38.675 54.802-56.39-13.426-7.204-27.728-12.213-42.556-14.899-4.076-.739-6.781-4.641-6.042-8.717s4.636-6.783 8.717-6.042c13.477 2.442 26.552 6.617 39.015 12.448-4.408-26.828-21.185-68.77-52.315-111.375-38.646-38.283-70.652-54.611-91.854-65.427-16.765-8.552-29.506-15.052-32.643-27.475-9.994-1.941-32.772-5.959-50.089-5.959-17.315 0-40.093 4.018-50.089 5.959-3.136 12.423-15.877 18.924-32.643 27.476-21.203 10.816-53.208 27.144-91.854 65.427-31.133 42.608-47.91 84.556-52.316 111.383 35.327-16.487 75.397-19.503 111.693-8.101 21.201 6.661 40.233 17.941 56.162 33.019l.061-.193c1.24-3.952 5.45-6.152 9.401-4.91 3.952 1.24 6.15 5.449 4.91 9.401l-2.583 8.23c5.175 6.173 9.907 12.816 14.153 19.894 8.245-6.221 22.01-6.221 33.104-6.221 11.093 0 24.857 0 33.102 6.219 4.256-7.099 8.989-13.746 14.151-19.909l-2.578-8.214c-1.24-3.952.958-8.162 4.91-9.401 3.957-1.241 8.162.959 9.401 4.91l.053.167c26.084-24.712 60.24-38.988 97.835-39.808 4.14-.11 7.572 3.193 7.662 7.334s-3.193 7.571-7.334 7.662c-36.309.792-69.056 15.577-93.085 40.992zm-89.46 32.622c.066 2.583 3.042 7.661 9.486 12.838 6.28 5.046 12.857 7.769 15.857 7.769s9.577-2.723 15.857-7.769c6.444-5.178 9.419-10.255 9.486-12.838-.001-.083-.001-.167.001-.251-.004-4.261-.319-7.323-25.344-7.323s-25.34 3.062-25.344 7.323c.002.083.002.167.001.251zm77.174-69.734c-1.889 0-3.779-.709-5.237-2.132-2.964-2.893-3.023-7.641-.13-10.606l35.183-36.06c2.893-2.965 7.641-3.023 10.606-.13s3.023 7.641.13 10.606l-35.183 36.06c-1.471 1.506-3.419 2.262-5.369 2.262zm-103.662 0c-1.951 0-3.899-.756-5.369-2.262l-35.183-36.06c-2.893-2.965-2.834-7.713.13-10.606 2.965-2.893 7.713-2.834 10.606.13l35.183 36.06c2.893 2.965 2.834 7.713-.13 10.606-1.458 1.423-3.348 2.132-5.237 2.132z"/></g></g></svg>