<svg id="Capa_1" enable-background="new 0 0 512 512" height="512" viewBox="0 0 512 512" width="512" xmlns="http://www.w3.org/2000/svg"><g><g><path d="m460.84 50.78c-10.367-10.515-25.629-14.769-39.923-11.068-31.369 8.122-60.457 23.891-84.456 45.954-22.532 20.713-40.58 46.972-51.771 77.719-15.527 42.659-15.422 87.191-2.63 127.342 6.144 3.258 12.579 6.14 19.3 8.586 78.543 28.588 165.389-11.905 193.974-90.443 2.936-8.066 5.118-16.22 6.63-24.389 9.12-49.281-7.034-99.123-41.124-133.701z" fill="#ff8f71"/><path d="m476.689 158.649c8.907 8.144 17.341 16.776 25.274 25.832 9.121-49.281-7.034-99.123-41.124-133.701-10.367-10.515-25.629-14.769-39.923-11.068-31.369 8.122-60.457 23.891-84.456 45.954 46.426 10.519 87.938 30.243 123.709 58.848 5.624 4.496 11.18 9.251 16.52 14.135z" fill="#926f72"/></g><g><path d="m227.31 163.385c-11.182-30.722-29.21-56.963-51.716-77.668-24.01-22.089-53.117-37.876-84.51-46.004-14.295-3.702-29.558.552-39.924 11.067-34.135 34.624-50.287 84.55-41.088 133.894 1.511 8.104 3.681 16.193 6.594 24.195 28.585 78.538 115.431 119.03 193.974 90.443 6.721-2.446 13.156-5.328 19.3-8.586 12.791-40.15 12.896-84.682-2.63-127.341z" fill="#ff6f4d"/><path d="m35.533 158.628c5.349-4.889 10.896-9.635 16.492-14.111 35.578-28.45 77.447-48.263 123.568-58.801-24.01-22.089-53.117-37.876-84.51-46.004-14.294-3.701-29.557.553-39.923 11.068-34.135 34.624-50.287 84.55-41.088 133.894 7.988-9.133 16.484-17.837 25.461-26.046z" fill="#775257"/></g><g><path d="m331.171 248.516c-2.828-21.955-.354-44.226 7.397-65.521 14.697-40.38 47.055-71.61 87.587-85.083 20.522 25.426 26.594 60.322 15.302 91.348-16.498 45.326-64.454 70.296-110.286 59.256z" fill="#ffdbe0"/></g><path d="m503.023 328.635c-1.411-4.893-2.967-9.725-4.656-14.493-14.22-40.141-38.123-75.681-68.917-103.837-4.203-3.843-8.545-7.562-12.997-11.122-33.734-26.977-74.417-43.355-118.932-49.519-6.28-.87-12.638-1.53-19.061-1.996-7.369-.535-14.824-.813-22.359-.813-60.656 0-116.4 17.178-160.354 52.327-4.451 3.56-8.775 7.263-12.977 11.105-30.794 28.157-54.716 63.714-68.936 103.855-1.689 4.769-3.245 9.599-4.656 14.492-.422 1.464-.787 2.931-1.097 4.397-2.986 14.151 5.839 28 19.652 31.702l-1.243 4.638c-3.263 12.178 2.209 25.096 13.345 31.008 4.832 2.565 10.086 4.536 15.692 5.791 19.453 4.356 38.065 10.931 55.576 19.423 8.995 4.362 17.704 9.221 26.076 14.564 21.565 13.764 46.701 23.396 72.512 28.679 15.435 3.159 31.111 4.763 46.41 4.763 15.989 0 32.379-1.759 48.486-5.207 25.077-5.368 49.452-14.842 70.436-28.234 8.37-5.342 17.076-10.199 26.068-14.56 17.513-8.494 36.128-15.07 55.584-19.427 5.605-1.255 10.86-3.226 15.692-5.791 11.136-5.912 16.608-18.83 13.345-31.009l-1.243-4.637c12.878-3.451 24.166-16.639 18.554-36.099z" fill="#ff8f71"/><g><path d="m180.829 248.516c2.828-21.955.354-44.226-7.397-65.521-14.697-40.38-47.055-71.61-87.587-85.083-20.522 25.426-26.594 60.322-15.302 91.348 16.498 45.326 64.454 70.296 110.286 59.256z" fill="#ffb5c0"/></g><path d="m278.46 147.669c-7.369-.535-14.824-.813-22.359-.813-60.656 0-116.4 17.178-160.354 52.327-4.451 3.56-8.775 7.263-12.977 11.105-30.794 28.157-54.716 63.714-68.936 103.855-1.689 4.769-3.245 9.599-4.656 14.492-.422 1.464-.787 2.931-1.097 4.397-2.986 14.151 5.839 28 19.652 31.702l-1.243 4.638c-3.263 12.178 2.209 25.096 13.345 31.008 4.832 2.565 10.086 4.536 15.692 5.791 19.453 4.356 38.065 10.931 55.576 19.423 8.995 4.362 17.704 9.221 26.076 14.564 21.565 13.764 46.701 23.396 72.512 28.679-11.338-32.582-17.52-67.579-17.52-104.024 0-84.073 32.8-160.478 86.289-217.144z" fill="#ff6f4d"/><path d="m256.096 314.132c-69.519 0-127.982 47.295-144.993 111.462 8.995 4.362 17.704 9.221 26.076 14.564 34.462 21.995 78.039 33.441 118.922 33.441 15.989 0 32.379-1.759 48.486-5.207 25.077-5.368 49.452-14.842 70.436-28.234 8.37-5.342 17.076-10.199 26.068-14.56-17.01-64.169-75.475-111.466-144.995-111.466z" fill="#fff1d4"/><path d="m273.774 337.526c-9.763-5.858-25.592-5.858-35.355 0-9.763 5.858-9.763 15.355 0 21.213l17.678 10.607 17.678-10.607c9.762-5.858 9.762-15.356-.001-21.213z" fill="#775257"/><path d="m194.385 327.382c-40.656 18.378-71.654 54.351-83.282 98.212 8.995 4.362 17.704 9.221 26.076 14.564 21.565 13.764 46.701 23.396 72.512 28.679-11.338-32.582-17.52-67.579-17.52-104.024 0-12.667.767-25.153 2.214-37.431z" fill="#fce3a0"/><g><path d="m296.064 359.892c-4.143 0-7.5 3.358-7.5 7.5 0 13.169-17.899 17.355-23.724 5.478l12.757-7.653c14.633-8.779 14.607-25.314 0-34.077-12.078-7.245-31-7.245-43.078 0-14.634 8.779-14.606 25.314 0 34.077l12.757 7.653c-5.831 11.888-23.724 7.688-23.724-5.478 0-4.142-3.357-7.5-7.5-7.5s-7.5 3.358-7.5 7.5c0 24.785 30.461 36.923 47.506 18.844 17.07 18.105 47.506 5.909 47.506-18.844 0-4.142-3.357-7.5-7.5-7.5zm-41.111.091-12.716-7.629c-2.718-1.63-3.682-3.268-3.682-4.175s.964-2.545 3.682-4.175c7.361-4.417 20.281-4.418 27.645 0 2.718 1.63 3.682 3.268 3.682 4.175s-.964 2.545-3.682 4.175l-12.716 7.629c-.815-.121-1.4-.121-2.213 0z"/><path d="m180.965 315.584v-12c0-4.143-3.358-7.5-7.5-7.5s-7.5 3.357-7.5 7.5v12c0 4.143 3.358 7.5 7.5 7.5s7.5-3.357 7.5-7.5z"/><path d="m345.862 315.584v-12c0-4.143-3.358-7.5-7.5-7.5s-7.5 3.357-7.5 7.5v12c0 4.143 3.358 7.5 7.5 7.5s7.5-3.357 7.5-7.5z"/><path d="m512 157.159c0-22.317-4.64-44.021-13.747-64.51-1.682-3.785-6.115-5.488-9.899-3.807-3.785 1.683-5.49 6.115-3.808 9.9 8.249 18.558 12.432 38.212 12.432 58.417 0 29.802-9.427 60.214-28.237 85.618-8.837-11.963-18.482-22.959-28.865-32.951 22.826-37.543 18.134-84.342-7.885-116.579-1.965-2.435-5.239-3.394-8.201-2.407-32.819 10.909-60.576 32.806-78.779 61.985-13.779-4.526-28.11-7.942-42.92-10.213 25.155-48.072 69.51-82.337 120.708-95.593 11.878-3.076 24.382.633 32.702 9.073 5.448 5.525 10.487 11.547 14.979 17.896 2.393 3.381 7.071 4.184 10.454 1.792 3.382-2.392 4.184-7.072 1.792-10.454-4.96-7.012-10.525-13.662-16.543-19.765-11.775-11.945-29.706-17.577-47.144-13.064-56.817 14.713-106.003 53.45-132.766 108.143-9.435-.91-19.045-1.372-28.815-1.372-10.384 0-20.999.534-31.627 1.58-26.854-55.035-76.254-93.691-132.868-108.35-16.843-4.358-34.901.647-47.144 13.064-29.625 30.049-45.819 70.323-45.819 111.671 0 9.6.333 19.088 2.123 28.692 4.772 25.597 16.19 49.649 32.271 69.926-4.769 7.322-9.204 14.908-13.208 22.625-1.907 3.677-.474 8.204 3.203 10.111 3.677 1.906 8.203.475 10.111-3.204 41.334-79.664 118.411-131.115 222.957-131.115 86.372 0 158.773 37.887 204.759 105.209 20.357 29.805 34.784 67.716 34.784 79.126 0 11.112-7.798 17.144-14.475 18.933-3.999 1.072-6.375 5.186-5.303 9.187l1.242 4.634c2.357 8.81-1.54 18.158-9.617 22.446-12.087 6.417-32.69 7.663-63.097 21.204-21.052-64.22-81.335-108.328-149.656-108.328-68.322 0-128.605 44.108-149.656 108.329-30.37-13.514-50.951-14.764-63.088-21.205-8.012-4.255-11.994-13.555-9.617-22.444l1.243-4.638c1.071-4-1.303-8.113-5.304-9.185-8.638-2.314-14.672-10.094-14.672-18.916 0-5.98 5.511-21.04 7.635-26.663 1.464-3.875-.49-8.203-4.365-9.667-3.874-1.463-8.203.491-9.666 4.366-3.62 9.58-8.604 23.521-8.604 31.964 0 13.075 7.45 24.842 18.805 30.704-3.144 14.907 3.728 30.409 17.514 37.728 19.375 10.286 47.766 8.165 96.825 39.476 34.884 22.264 78.601 34.525 123.099 34.525 44.957 0 87.426-11.939 122.814-34.525 49.072-31.317 77.539-29.239 96.825-39.476 13.63-7.236 20.699-22.646 17.51-37.749 10.062-5.222 18.608-15.736 18.608-30.7 0-17.131-17.333-56.942-34.273-82.903 22.544-28.498 34.273-63.548 34.273-98.541zm-428.491 42.433c-16.702-29.605-14.065-65.902 4.999-92.733 26.317 9.928 48.687 27.849 64.073 51.271-25.332 9.983-48.477 23.875-69.072 41.462zm83.552-46.65c-18.2-29.238-45.985-51.177-78.849-62.101-2.97-.986-6.237-.028-8.202 2.407-26.185 32.441-30.598 79.305-7.833 116.665-10.347 10-19.963 21.019-28.803 33.018-12.837-17.289-21.828-37.593-25.928-59.585-8.604-46.15 5.996-93.722 39.056-127.254 8.496-8.618 21.026-12.098 32.702-9.073 50.703 13.129 95.415 47.11 120.822 95.809-14.874 2.26-29.214 5.637-42.965 10.114zm261.457 46.603c-20.633-17.557-43.814-31.47-69.055-41.484 15.387-23.388 37.738-41.285 64.029-51.203 18.791 26.447 21.92 62.697 5.026 92.687zm-57.532 234.338c-32.502 20.745-73.253 32.169-114.744 32.169-41.674 0-82.525-11.425-115.028-32.17-7.485-4.777-14.522-8.823-21.14-12.28 18.461-59.14 73.526-99.924 136.022-99.924s117.561 40.785 136.022 99.926c-6.615 3.459-13.65 7.504-21.132 12.279z"/></g></g></svg>