<svg height="511pt" viewBox="-12 0 511 511.99621" width="511pt" xmlns="http://www.w3.org/2000/svg"><path d="m364.199219 123.109375c22.96875-30.546875 20.828125-75.949219 9.964843-105.945313-2.386718-6.582031-9.113281-10.570312-16.03125-9.492187-33.992187 5.289063-76.53125 21.472656-88.714843 60.859375zm0 0" fill="#4e5660"/><path d="m374.480469 18.078125c10.582031 30 12.457031 74.789063-10.28125 105.03125l-59.195313-34.085937c12.078125-28.222657 37.035156-55.015626 69.476563-70.945313zm0 0" fill="#f2d1a5"/><path d="m121.714844 471.09375c.09375 4.542969 4.648437 7.734375 8.953125 6.269531 20.039062-6.816406 44.722656-1.484375 66.082031-31.984375 12.558594-17.941406 13.3125-48.765625-6.5-62.640625-19.808594-13.871093-48.519531-2.621093-61.082031 15.320313-21.355469 30.5-7.902344 51.871094-7.453125 73.035156zm0 0" fill="#4e5660"/><g fill="#e9901b"><path d="m223.335938 504.496094c-7.078126 0-13.972657-3.644532-17.8125-10.191406-18.242188-31.089844-22.886719-65.316407-13.425782-98.976563 3.082032-10.972656 14.472656-17.363281 25.441406-14.285156 10.96875 3.082031 17.363282 14.476562 14.28125 25.445312-8.023437 28.558594.625 52.160157 9.289063 66.933594 5.769531 9.828125 2.476563 22.46875-7.351563 28.234375-3.28125 1.925781-6.875 2.839844-10.421874 2.839844zm0 0"/><path d="m326.714844 476.960938c-.839844 0-1.691406-.050782-2.546875-.15625-11.308594-1.390626-19.347657-11.6875-17.957031-23 1.519531-12.347657-3.871094-40.066407-19.605469-49.027344-9.898438-5.636719-13.355469-18.234375-7.714844-28.136719 5.636719-9.902344 18.234375-13.355469 28.136719-7.71875 33.007812 18.796875 43.34375 63.90625 40.140625 89.925781-1.289063 10.453125-10.183594 18.113282-20.453125 18.113282zm0 0"/><path d="m56.976562 386.242188c-3.492187 0-7.03125-.886719-10.273437-2.753907-9.875-5.683593-13.273437-18.296875-7.589844-28.171875 26.554688-46.128906 67.394531-69.203125 114.996094-64.960937 11.351563 1.007812 19.734375 11.03125 18.722656 22.378906s-11.019531 19.738281-22.378906 18.71875c-31.5625-2.808594-56.984375 12.144531-75.578125 44.449219-3.816406 6.628906-10.761719 10.339844-17.898438 10.339844zm0 0"/><path d="m399.945312 320.078125c-32.855468 0-69.894531-14.734375-94.546874-29.398437-9.792969-5.824219-13.011719-18.484376-7.1875-28.277344 5.824218-9.792969 18.484374-13.011719 28.28125-7.1875 29.199218 17.367187 64.59375 26.863281 84.164062 22.570312 11.132812-2.441406 22.132812 4.605469 24.574219 15.734375 2.4375 11.128907-4.605469 22.128907-15.738281 24.570313-6.242188 1.371094-12.808594 1.988281-19.546876 1.988281zm0 0"/></g><path d="m255.597656 415.351562c62.992188-11.105468 102.632813-49.082031 87.394532-110.890624-15.328126-62.175782-75.113282-104.351563-123.832032-95.761719-48.71875 8.589843-90.46875 68.667969-83.609375 132.339843 6.820313 63.292969 57.058594 85.417969 120.046875 74.3125zm0 0" fill="#eea849"/><path d="m53.59375 177.875c-32.027344-20.847656-45.546875-64.242188-45.59375-96.144531-.011719-7.003907 4.945312-13.050781 11.8125-14.402344 33.753906-6.65625 79.261719-5.996094 104.183594 26.84375zm0 0" fill="#4e5660"/><path d="m8.011719 82.695312c.316406 31.808594 13.875 74.539063 45.582031 95.179688l43.96875-52.273438c-21-22.390624-53.617188-39.035156-89.550781-42.90625zm0 0" fill="#f2d1a5"/><path d="m69.183594 143.753906c-11.964844-11.964844-31.367188-11.964844-43.332032 0-11.96875 11.964844-11.96875 31.367188 0 43.335938 11.964844 11.964844 31.367188 11.964844 43.332032 0 11.96875-11.96875 11.96875-31.371094 0-43.335938zm0 0" fill="#8eafe2"/><path d="m372.773438 79.523438c-16.460938-3.9375-32.992188 6.21875-36.929688 22.675781-3.933594 16.460937 6.21875 32.996093 22.679688 36.929687 16.460937 3.933594 32.992187-6.21875 36.929687-22.679687 3.933594-16.460938-6.21875-32.992188-22.679687-36.925781zm0 0" fill="#8eafe2"/><path d="m193.222656 61.601562c117.25-20.671874 132.296875 49.964844 208.730469 78.382813 14.449219 5.371094 20.335937 22.667969 11.808594 35.515625-37.335938 56.246094-97.917969 101.921875-179.933594 116.382812-82.015625 14.460938-154.5625-7.742187-208.886719-47.824218-12.40625-9.152344-12.792968-27.421875-1.050781-37.414063 62.105469-52.839843 52.085937-124.367187 169.332031-145.042969zm0 0" fill="#eea849"/><path d="m129.5 83.445312c-52.761719 31.136719-57.96875 82.664063-105.609375 123.199219-11.742187 9.992188-11.359375 28.257813 1.050781 37.414063 54.320313 40.082031 126.871094 62.285156 208.886719 47.824218 9.421875-1.660156 18.542969-3.75 27.390625-6.203124-149.71875 6.109374-165.46875-135.238282-131.71875-202.234376zm0 0" fill="#e9901b"/><path d="m413.761719 175.5c5.335937-8.035156 5.027343-17.8125.515625-25.324219-96.730469 81.972657-144.3125-7.414062-204.859375 3.261719s-74.6875 110.949219-193.621094 67.003906c-1.671875 8.601563 1.382813 17.894532 9.144531 23.617188 54.320313 40.085937 126.871094 62.289062 208.886719 47.828125 82.015625-14.464844 142.597656-60.140625 179.933594-116.386719zm0 0" fill="#f7ef87"/><path d="m127.035156 213.066406c-24.933594 17.574219-57.3125 27.296875-111.238281 7.371094-1.671875 8.605469 1.382813 17.894531 9.144531 23.621094 54.320313 40.082031 126.871094 62.285156 208.886719 47.824218 9.421875-1.660156 18.539063-3.75 27.390625-6.203124-74.222656 3.027343-115.519531-30.1875-134.183594-72.613282zm0 0" fill="#efd176"/><path d="m145.183594 195.308594c-2.984375-16.914063-22.625-27.59375-43.867188-23.84375-21.242187 3.746094-36.046875 20.496094-33.0625 37.414062 2.984375 16.917969 22.625 27.59375 43.867188 23.847656 21.246094-3.746093 36.046875-20.5 33.0625-37.417968zm0 0" fill="#fff"/><path d="m361.027344 157.273438c-2.984375-16.917969-22.621094-27.597657-43.863282-23.851563-21.246093 3.746094-36.046874 20.496094-33.066406 37.410156 2.980469 16.917969 22.621094 27.597657 43.863282 23.851563 21.242187-3.746094 36.046874-20.496094 33.066406-37.410156zm0 0" fill="#fff"/><path d="m254.589844 309.539062-34.230469 6.035157c-4.6875.828125-7.816406 5.296875-6.992187 9.984375.9375 5.304687 3.078124 10.328125 6.265624 14.671875l1.324219 1.8125c4.355469 5.941406 11.710938 8.894531 18.96875 7.617187l7.933594-1.398437c7.257813-1.28125 13.160156-6.574219 15.21875-13.648438l.628906-2.152343c1.503907-5.171876 1.800781-10.625.867188-15.929688-.828125-4.6875-5.296875-7.816406-9.984375-6.992188zm0 0" fill="#8eafe2"/><path d="m410.546875 351.882812-24.867187-17.410156c-9.734376-6.816406-12.097657-20.234375-5.28125-29.96875l35.710937-51.003906c6.816406-9.734375 20.234375-12.101562 29.96875-5.285156l24.867187 17.414062c9.734376 6.8125 12.101563 20.230469 5.285157 29.964844l-35.714844 51.007812c-6.816406 9.734376-20.234375 12.097657-29.96875 5.28125zm0 0" fill="#4e5660"/><path d="m455.785156 281.078125-19.042968-13.332031c-1.5625-1.09375-3.71875-.714844-4.816407.851562l-13.332031 19.039063c-1.09375 1.566406-.714844 3.722656.851562 4.816406l19.039063 13.335937c1.566406 1.09375 3.722656.714844 4.816406-.851562l13.332031-19.039062c1.097657-1.566407.71875-3.722657-.847656-4.820313zm0 0" fill="#a3defe"/><path d="m235.589844 218.367188c-2.875 4.773437-7.660156 8.0625-13.132813 9.027343-5.472656.964844-11.09375-.492187-15.429687-3.992187-3.222656-2.601563-7.941406-2.097656-10.546875 1.125-2.601563 3.222656-2.097657 7.941406 1.125 10.546875 6.144531 4.964843 13.75 7.613281 21.519531 7.613281 1.976562 0 3.960938-.171875 5.9375-.523438 9.738281-1.714843 18.261719-7.566406 23.375-16.054687 2.136719-3.550781.996094-8.15625-2.554688-10.296875-3.542968-2.136719-8.15625-.996094-10.292968 2.554688zm-142.910156 189.539062-21.53125 3.796875c-5.746094 1.011719-9.933594 6.003906-9.933594 11.839844v31.722656c-1.90625-.121094-3.925782-.011719-6.023438.359375-11.34375 2-20.539062 10.832031-20.539062 19.726562 0 8.898438 9.195312 14.488282 20.539062 12.488282s20.539063-10.832032 20.539063-19.730469v-39.476563l11.769531-2.074218c5.691406-1.003906 9.839844-5.949219 9.839844-11.726563v-3.015625c0-2.46875-2.226563-4.339844-4.660156-3.910156zm331.898437-193.851562c1.546875 8.757812 11.574219 12.667968 22.398437 8.726562 10.824219-3.9375 18.34375-14.234375 16.800782-22.996094l-6.855469-38.875 11.230469-4.089844c5.429687-1.972656 8.65625-7.5625 7.65625-13.253906l-.523438-2.96875c-.429687-2.433594-2.949218-3.886718-5.269531-3.042968l-20.546875 7.480468c-5.484375 1.992188-8.742188 7.636719-7.730469 13.382813l5.511719 31.242187c-1.898438.210938-3.867188.671875-5.867188 1.398438-10.824218 3.9375-18.347656 14.234375-16.804687 22.996094zm-231.199219-10.058594 17.78125 4.425781c5.292969 1.316406 10.898438.328125 15.425782-2.71875l15.195312-10.242187c5.476562-3.691407 6.277344-11.4375 1.671875-16.171876-3.410156-3.503906-7.976563-5.65625-12.851563-6.054687-11.769531-.960937-23.589843 1.121094-34.320312 6.050781-4.445312 2.042969-8 5.625-10.003906 10.085938-2.710938 6.023437.691406 13.03125 7.101562 14.625zm-53.445312-58.835938c-5.910156-4.136718-13.078125-5.726562-20.183594-4.472656-7.105469 1.25-13.300781 5.195312-17.4375 11.105469-4.140625 5.910156-5.730469 13.082031-4.476562 20.183593.644531 3.640626 3.808593 6.199219 7.378906 6.199219.433594 0 .871094-.035156 1.3125-.113281 4.078125-.722656 6.800781-4.609375 6.082031-8.6875-.558594-3.160156.148437-6.351562 1.988281-8.976562 1.839844-2.628907 4.59375-4.382813 7.757813-4.941407 3.160156-.558593 6.347656.148438 8.976562 1.988281 2.628907 1.84375 4.382813 4.597657 4.9375 7.753907.71875 4.082031 4.613281 6.808593 8.6875 6.085937 4.082031-.71875 6.804688-4.609375 6.085938-8.6875-1.25-7.105468-5.195313-13.296875-11.109375-17.4375zm335.316406 114.324219-24.867188-17.414063c-13.109374-9.175781-31.238281-5.980468-40.414062 7.128907l-15.320312 21.878906c-3.171876-.246094-6.523438-.703125-10-1.339844 14.457031-19.082031 20.890624-41.652343 19.59375-68.667969 5.5625-6.847656 10.832031-13.984374 15.769531-21.421874 5.285156-7.957032 6.621093-17.734376 3.664062-26.824219-3-9.226563-9.964843-16.472657-19.109375-19.871094-2.394531-.890625-4.714844-1.839844-6.992187-2.816406 5.203125-8.007813 7.335937-17.816407 5.640625-27.433594-1.742188-9.875-7.164063-18.191406-14.601563-23.800781.730469-6.183594 1.03125-12.574219.882813-19.070313-.097656-4.082031-3.433594-7.328125-7.496094-7.328125-.058594 0-.117188 0-.175781.003906-4.144531.09375-7.421875 3.53125-7.324219 7.671876.09375 4.054687-.011719 8.054687-.304688 11.976562-4.839843-1.121094-9.972656-1.308594-15.167968-.390625-10.460938 1.84375-19.480469 7.894531-25.175782 16.5-4.71875-3.601563-9.539062-7.164063-14.542968-10.582031 11.867187-19.578125 29.859375-36.835938 50.804687-48.773438 1.511719 3.296875 5.230469 5.101563 8.832031 4.09375 3.988282-1.117187 6.3125-5.257812 5.195313-9.246094-.773437-2.753906-1.632813-5.4375-2.546875-8.039062-.035156-.101562-.066406-.207031-.105469-.308594-.09375-.261718-.175781-.535156-.269531-.796875-3.605469-9.941406-13.796875-15.976562-24.234375-14.351562-13.734375 2.136719-33.992187 6.835937-52.539063 17.09375-17.085937 9.449219-29.558593 21.78125-37.179687 36.703125-22.027344-5.019532-46.414063-4.941406-75.34375.160156-28.929687 5.097656-51.871094 13.367188-70.855469 25.621094-12.261718-11.417969-28.203125-18.738282-47.488281-21.777344-20.9375-3.292969-41.582031-.78125-55.214844 1.90625-10.367187 2.042969-17.882812 11.199219-17.863281 21.773438 0 .285156.011719.578124.015625.863281-.003906.070312 0 .132812.003906.199219.207031 21 5.617188 43.210937 15.007813 61.863281-5.277344 8.125-7.261719 17.789062-5.570313 27.378906 1.695313 9.617187 7.054688 18.101563 14.683594 23.847656-1.808594 1.699219-3.664063 3.382813-5.609375 5.039063-7.429688 6.320312-11.496094 15.507812-11.160156 25.207031.332031 9.550781 4.929687 18.28125 12.617187 23.953125 7.199219 5.3125 14.601563 10.234375 22.1875 14.773438 5.574219 17.925781 13.910157 32.582031 25.222657 44.199218-13.464844 10.972656-25.324219 25.207032-35.285157 42.507813-7.738281 13.441406-3.097656 30.675781 10.347657 38.414062 4.269531 2.457031 9.113281 3.753907 14.015624 3.753907 10.042969 0 19.394532-5.402344 24.398438-14.101563 12.433594-21.597656 28.074219-34.765625 46.578125-39.253906.046875.484375.089844.96875.140625 1.457031 1.507812 13.984375 5.019531 26.351562 10.472656 37.050781-6.195312 4.082031-11.574218 9.195313-15.539062 14.859375-17.550782 25.066406-13.84375 45.445313-10.863282 61.820313 1 5.515625 1.949219 10.722656 2.054688 15.675781.09375 4.515625 2.371094 8.769531 6.09375 11.375 2.4375 1.707031 5.320312 2.589844 8.222656 2.589844 1.53125 0 3.070313-.246094 4.546875-.75.785157-.269532 1.613281-.523438 2.457031-.765625 3.984376-1.128907 6.300782-5.273438 5.167969-9.261719-1.128906-3.984375-5.273437-6.292969-9.261719-5.167969-.765624.21875-1.519531.445313-2.261718.683594-.214844-5.8125-1.257813-11.523437-2.261719-17.0625-2.863281-15.734375-5.566406-30.597656 8.394531-50.53125 2.84375-4.0625 6.734375-7.753906 11.242188-10.761719 4.382812 5.71875 9.492187 10.792969 15.34375 15.191406 5.605468 4.210938 11.796875 7.707032 18.503906 10.511719-1.0625 11.410157-.597656 22.832031 1.347656 34.089844-4.875 4.578125-10.152344 7.875-16.382812 10.226563-3.875 1.460937-5.828125 5.789062-4.367188 9.664062 1.132813 3.003906 3.988282 4.855469 7.019532 4.855469.878906 0 1.773437-.15625 2.644531-.488281 5.414062-2.039063 10.359375-4.71875 14.945312-8.042969 3.1875 10.445312 7.671875 20.660156 13.441407 30.492187 5.03125 8.574219 14.335937 13.898438 24.285156 13.898438 4.980468 0 9.894531-1.335938 14.214844-3.871094 13.378906-7.851562 17.878906-25.121094 10.027343-38.5-5.902343-10.058594-12.316406-25.554688-11.324219-44.363281 6.664063-.4375 13.550782-1.273438 20.644532-2.527344 10.914062-1.921875 21.035156-4.589844 30.304687-7.960937 3.640625 3.835937 6.742188 9.632812 8.914063 16.769531 2.597656 8.523437 3.199218 16.867187 2.648437 21.347656-1.894531 15.398437 9.089844 29.460937 24.484375 31.359375 1.144532.140625 2.308594.210938 3.464844.210938 14.167969 0 26.160156-10.617188 27.894531-24.695313 1.925781-15.664063-.640625-37.421875-9.394531-57.230469.203125-.078125.40625-.152344.605469-.230468 20.644531-7.976563 41.800781-22.335938 62.953125-42.710938 4.324218 2.421875 9.132812 3.691406 14.054687 3.691406 1.691407 0 3.394531-.148437 5.097657-.449218 7.632812-1.347657 14.285156-5.582032 18.730468-11.933594l35.714844-51.007813c9.175781-13.105469 5.980469-31.234375-7.125-40.410156zm-90.355469 25.519531-10.640625 15.199219c-1.882812 2.691406-3.269531 5.625-4.148437 8.695313-6.414063-1.46875-13.003907-3.367188-19.699219-5.671876-.042969-.1875-.085938-.371093-.132812-.558593-.179688-.746094-.378907-1.484375-.574219-2.226563 8.914062-5.457031 16.714843-11.398437 23.441406-17.839844 4.015625.992188 7.949219 1.800782 11.753906 2.402344zm-40.015625.664063c-2.152344-5.519531-4.65625-10.90625-7.519531-16.144531 6.226563 3 12.578125 5.660156 18.902344 7.929687-3.507813 2.839844-7.296875 5.582031-11.382813 8.214844zm23.671875-19.941407c-8.148437-2.519531-16.53125-5.808593-24.644531-9.703124 16.269531-10.859376 31.332031-23.414063 44.957031-37.554688-1.855469 18.335938-8.582031 33.914062-20.3125 47.257812zm-6.921875-179.191406c12.570313-2.210937 24.597656 6.203125 26.8125 18.773438.972656 5.503906-.125 11.113281-2.902344 15.8125-.441406-1.3125-.882812-2.621094-1.320312-3.921875-.703125-2.097657-1.40625-4.179688-2.097656-6.242188-1.316406-3.925781-5.5625-6.046875-9.492188-4.730469-3.191406 1.070313-5.1875 4.074219-5.121094 7.269532-7.617187-5.148438-14.75-10.585938-21.734374-16.007813 3.40625-5.71875 9.140624-9.769531 15.855468-10.953125zm-2.339844-71.453125c1.347657-.210937 2.6875-.019531 3.882813.488281-23.257813 13.15625-43.292969 32.316407-56.570313 54.105469-7.070312-4.082031-14.578124-7.75-22.746093-10.738281-.597657-.21875-1.207031-.410156-1.804688-.621094 8.867188-15.28125 29.492188-35.804687 77.238281-43.234375zm-338.023437 59.601563c47.410156-9.347656 73.808594 2.882812 87.367187 14.210937-.492187.402344-1 .792969-1.484374 1.203125-6.65625 5.597656-12.457032 11.617188-17.707032 17.867188-19.925781-15.929688-45.304687-27.082032-71.65625-31.492188.949219-.882812 2.136719-1.523437 3.480469-1.789062zm-5.316406 16.714844c23.71875 4.070312 46.476562 14.125 64.292969 28.4375-3.53125 4.921874-6.839844 9.917968-10.046876 14.917968-8.292968-6.140625-18.84375-8.738281-29.300781-6.894531-5.109375.902344-9.878906 2.792969-14.109375 5.53125-5.789062-12.929687-9.601562-27.710937-10.835937-41.992187zm12.613281 60.75c3.542969-5.0625 8.851562-8.445313 14.9375-9.519532 6.71875-1.183594 13.492188.660156 18.644531 4.871094-4.707031 7.480469-9.546875 15.03125-14.945312 22.472656-1.023438-3.035156-3.914063-5.195312-7.296875-5.078125-4.140625.109375-7.410156 3.550781-7.304688 7.691407.058594 2.191406.109375 4.402343.164063 6.632812.035156 1.351562.066406 2.71875.101562 4.085938-4.21875-3.460938-7.167969-8.359376-8.136719-13.867188-1.074218-6.085938.289063-12.226562 3.835938-17.289062zm34.472656 123.777343c11.769532 5.753907 23.894532 10.628907 36.308594 14.617188-6.609375 2.605469-12.964844 5.816406-19.050781 9.628906-6.957031-6.769531-12.699219-14.8125-17.257813-24.246094zm5.339844 96.234375c-2.335938 4.0625-6.707031 6.582032-11.398438 6.582032-2.28125 0-4.539062-.605469-6.53125-1.753907-6.277343-3.609375-8.441406-11.65625-4.832031-17.929687 9.515625-16.527344 20.894531-29.910156 33.824219-39.941406 3.851562 2.847656 7.949219 5.457031 12.324219 7.808593 4.339843 2.332031 8.933593 4.402344 13.765625 6.238281-14.386719 8.011719-26.820313 21.042969-37.152344 38.996094zm58.972656-48.140625c-10.710937-2.425781-20.21875-5.863281-28.484375-10.308593-2.054687-1.101563-4.015625-2.289063-5.933593-3.523438 11.167968-6.214844 23.261718-10.21875 36.125-11.902344.414062.085938.832031.167969 1.25.25-1.777344 8.453125-2.761719 16.96875-2.957032 25.484375zm-74.671875-70.671875c-.039062-.019531-.078125-.042968-.117187-.0625-7.933594-4.648437-15.671875-9.730468-23.164063-15.261718-3.980469-2.9375-6.359375-7.457032-6.53125-12.402344-.179687-5.09375 1.96875-9.929688 5.890625-13.265625 22.304688-18.976563 35.472656-39.949219 48.203125-60.230469 6.234375-9.929688 12.242188-19.5 19.058594-28.449219 0 0 .003906-.003906.007813-.003906.246093-.273437.457031-.5625.65625-.859375 7.535156-9.769531 16.078124-18.785156 27-26.691406.515624-.28125 1.011718-.617188 1.46875-1.03125.015624-.011719.027343-.027344.039062-.039063 16.394531-11.488281 38.058594-20.546875 69.339844-26.0625s54.734375-4.410156 74.070312.777344c.015625.003906.03125.015625.050782.023437.566406.230469 1.144531.378907 1.722656.464844 12.96875 3.691406 24.085937 9.242188 34.511718 15.847656.285157.210938.585938.410157.910157.582032.003906 0 .007812.003906.011719.003906 9.464843 6.078125 18.382812 13.015625 27.636718 20.210938 14.65625 11.402343 29.722656 23.097656 48.539063 32.535156.121093.0625.242187.128906.363281.183594 5.339844 2.664062 10.96875 5.15625 16.996094 7.394531 4.824218 1.792969 8.492187 5.605469 10.070312 10.453125 1.527344 4.703125.839844 9.765625-1.894531 13.886718-5.15625 7.761719-10.683594 15.183594-16.554687 22.265626-.027344.03125-.054688.066406-.082032.097656-39.578125 47.699218-94.871094 79.589844-158.355468 90.785156-63.472657 11.191406-126.34375.132812-179.847657-31.152344zm92.429688 47.679688c12.886719 1.8125 25.964843 2.734375 39.160156 2.734375 16.8125 0 33.824219-1.488281 50.867187-4.492188 30.421876-5.363281 59.058594-15.253906 85.1875-29.152343 4.625 7.371093 8.4375 15.105468 11.398438 23.136718-16.429688 8.523438-36.417969 15.734375-59.851562 21.570313-.824219-4.066407-3.125-7.609375-6.535157-10-3.527343-2.472657-7.804687-3.417969-12.042969-2.671875 0 0 0 0-.003906 0l-34.226562 6.035156c-8.617188 1.519531-14.417969 9.660156-13.125 18.265625-24.019532 2.527344-45.265625 2.589844-63.621094.199219.035156-8.558594.96875-17.125 2.792969-25.625zm110.785156 15.898437c.371094-.066406.664063.0625.835937.183594.171876.125.394532.347656.460938.722656.730469 4.152344.496094 8.484375-.683594 12.53125l-.625 2.152344c-1.273437 4.367187-4.84375 7.570313-9.324218 8.359375l-7.929688 1.398438c-4.476562.785156-8.929688-1-11.617188-4.667969l-1.324218-1.808594c-2.492188-3.398437-4.195313-7.390625-4.929688-11.539063-.105468-.609374.300782-1.191406.910156-1.296874zm-19.867187 170.246094c-.882813 3.394531-3.039063 6.242187-6.0625 8.015625-2.019532 1.183594-4.308594 1.808594-6.625 1.808594-4.648438 0-8.996094-2.484375-11.347657-6.488282-12.605469-21.484374-18.367187-44.953124-16.898437-68.378906 8.140625 2.003906 16.875 3.152344 26.140625 3.425782-.902344 21.976562 6.542969 39.957031 13.410156 51.664062 1.777344 3.023438 2.265625 6.558594 1.382813 9.953125zm18.273437-79.207031c-8.554687 1.507812-16.746094 2.371094-24.527344 2.597656-.359375-.015625-.714843-.007812-1.0625.027344-13.78125.300781-26.253906-1.40625-37.164062-5.089844-.363281-.160156-.742188-.296875-1.140625-.398438-7.226563-2.558593-13.75-5.992187-19.488282-10.304687-15.519531-11.660156-24.816406-29.4375-27.683593-52.824219 8.570312.988282 17.671875 1.496094 27.34375 1.496094 12.566406 0 26.09375-.839844 40.597656-2.503906.742187 1.273437 1.542969 2.511718 2.414063 3.699218l1.324218 1.808594c5.136719 7.007813 13.113282 10.988282 21.578125 10.988282.414063 0 .828125-.035157 1.246094-.054688 6.992187 20.421875 20.960937 36.441406 39.078125 45.070312-6.992188 2.238282-14.503906 4.074219-22.515625 5.488282zm43.707031-14.34375c-1.882812-.328125-3.621094-.722656-5.203125-1.152344-18.339843-4.976562-32.890625-18.820312-40.078125-37.703125 8.453125-2.695313 15.023438-9.351563 17.558594-18.054687l.625-2.152344c.410156-1.414063.738281-2.847656 1-4.296875 25.132812-6.015625 46.445312-13.410157 64.191406-22.292969.199219.855469.40625 1.714844.582032 2.5625.015624.070312.027343.140625.042968.210938 4.46875 21.789062 1.589844 40.722656-8.574218 56.332031-2.472657 3.796875-5.359376 7.371093-8.640626 10.71875-.207031.1875-.402343.386719-.585937.589843-5.804687 5.796876-12.808594 10.890626-20.917969 15.238282zm41.71875 64.3125c-.808594 6.570312-6.402344 11.527344-13.007812 11.527344-.542969 0-1.089844-.03125-1.628906-.101563-7.1875-.882813-12.3125-7.449219-11.429688-14.636719 1.222656-9.925781-1.492188-30.984375-11.632812-45.425781 2.417968.21875 4.859374.335937 7.328124.335937 6.945313 0 14.09375-.878906 21.410157-2.617187 7.9375 17.105469 10.714843 36.679687 8.960937 50.917969zm-1.613281-68.757813c-1.175781-1.855469-2.417969-3.667969-3.726563-5.4375 2.300782-2.710937 4.417969-5.535156 6.335938-8.476562 10.414062-15.992188 14.613281-34.550781 12.5625-55.34375 5.648438 1.710937 11.21875 3.148437 16.679688 4.296875 1.734374 6.652344 5.722656 12.417968 11.417968 16.402344l14.738282 10.320312c-22.183594 20.910156-41.671876 32.378906-58.007813 38.238281zm131.976563-97.882812-35.714844 51.003906c-4.433594 6.332031-13.1875 7.878906-19.519532 3.441406l-1.992187-1.390625c-.457031-.40625-.949219-.753906-1.46875-1.03125l-21.40625-14.988281c-3.066406-2.148437-5.117187-5.359375-5.765625-9.046875-.082031-.464844-.140625-.925781-.175781-1.386719 0-.160156-.003907-.320312-.011719-.480469-.132812-3.058593.726562-6.058593 2.511719-8.609374l18.015625-25.730469s0-.003907.003906-.003907l17.691406-25.269531c2.722656-3.890625 7.078125-5.972656 11.503906-5.972656 2.773438 0 5.578126.820313 8.019532 2.53125l24.867187 17.410156c6.332031 4.433594 7.875 13.191407 3.441407 19.523438zm-195.304688-143.015625c.433594 0 .871094-.035156 1.3125-.113282 4.078125-.71875 6.800781-4.609374 6.082031-8.6875-.558593-3.160156.148438-6.347656 1.988281-8.976562 1.839844-2.628906 4.59375-4.382812 7.757813-4.941406 3.160156-.554688 6.34375.152344 8.972656 1.992187 2.628907 1.839844 4.382813 4.59375 4.941407 7.753907.71875 4.082031 4.613281 6.808593 8.6875 6.082031 4.082031-.71875 6.804687-4.605469 6.085937-8.6875-1.253906-7.105469-5.199219-13.296875-11.109375-17.4375-5.910156-4.136719-13.078125-5.730469-20.183594-4.472657-7.105468 1.25-13.300781 5.195313-17.4375 11.105469-4.140625 5.910157-5.730468 13.078125-4.476562 20.1875.644531 3.636719 3.808594 6.195313 7.378906 6.195313zm0 0"/></svg>