<svg height="511pt" viewBox="0 -18 511.998 511" width="511pt" xmlns="http://www.w3.org/2000/svg"><path d="m107.960938 115.472656c-26.148438-24.433594-31.558594-66.648437-26.414063-96.078125 1.128906-6.457031 6.683594-11.226562 13.238281-11.359375 32.207032-.648437 74.066406 7.359375 91.707032 41.695313zm0 0" fill="#4e5660"/><path d="m81.402344 20.289062c-4.882813 29.382813.671875 70.992188 26.558594 95.183594l49.046874-41.058594c-15.726562-24.0625-43.097656-44.710937-75.605468-54.125zm0 0" fill="#f2d1a5"/><path d="m403.292969 115.472656c26.148437-24.433594 31.558593-66.648437 26.414062-96.078125-1.128906-6.457031-6.683593-11.226562-13.238281-11.359375-32.207031-.648437-74.066406 7.359375-91.707031 41.695313zm0 0" fill="#4e5660"/><path d="m429.851562 20.289062c4.882813 29.382813-.671874 70.992188-26.558593 95.183594l-49.046875-41.058594c15.726562-24.0625 43.097656-44.710937 75.605468-54.125zm0 0" fill="#f2d1a5"/><path d="m255.628906 30.953125c111.480469 0 113.871094 67.585937 179.734375 106.21875 12.453125 7.304687 15.070313 24.210937 5.117188 34.671875-43.578125 45.796875-106.871094 78.066406-184.851563 78.066406-77.984375 0-141.277344-32.269531-184.851562-78.066406-9.953125-10.460938-7.339844-27.367188 5.117187-34.671875 65.859375-38.628906 68.25-106.21875 179.734375-106.21875zm0 0" fill="#eea849"/><path d="m193.3125 40.734375c-53.71875 20.132813-66.898438 66.804687-117.421875 96.4375-12.453125 7.304687-15.070313 24.214844-5.117187 34.671875 43.578124 45.796875 106.871093 78.070312 184.851562 78.070312 8.957031 0 17.707031-.445312 26.269531-1.269531-139.054687-18.714843-130.601562-151.617187-88.582031-207.910156zm0 0" fill="#e9901b"/><path d="m440.480469 171.84375c6.222656-6.542969 7.53125-15.609375 4.589843-23.269531-102.53125 59.863281-131.875-30.300781-189.441406-30.300781-57.570312 0-86.914062 90.164062-189.445312 30.300781-2.941406 7.660156-1.632813 16.726562 4.589844 23.269531 43.578124 45.796875 106.871093 78.066406 184.855468 78.066406 77.980469 0 141.273438-32.269531 184.851563-78.066406zm0 0" fill="#f7ef87"/><path d="m169.964844 159.863281c-25.851563 12.152344-57.292969 15.855469-103.78125-11.289062-2.941406 7.660156-1.632813 16.726562 4.589844 23.269531 43.578124 45.796875 106.871093 78.070312 184.855468 78.070312 8.953125 0 17.707032-.445312 26.265625-1.269531-68.9375-9.277343-101.621093-46.621093-111.929687-88.78125zm0 0" fill="#efd176"/><path d="m189.578125 146.449219c0-16.085938-16.375-29.125-36.574219-29.125-20.199218 0-36.574218 13.039062-36.574218 29.125 0 16.085937 16.375 29.125 36.574218 29.125 20.199219 0 36.574219-13.039063 36.574219-29.125zm0 0" fill="#fff"/><path d="m394.824219 146.449219c0-16.085938-16.375-29.125-36.574219-29.125s-36.574219 13.039062-36.574219 29.125c0 16.085937 16.375 29.125 36.574219 29.125s36.574219-13.039063 36.574219-29.125zm0 0" fill="#fff"/><path d="m426.480469 431.269531v-195.691406c0-7.636719-4.019531-14.761719-10.652344-18.558594-51.550781-29.507812-133.96875-21.621093-160.199219 10.195313-26.234375-31.816406-108.652344-39.703125-160.203125-10.195313-6.628906 3.796875-10.652343 10.921875-10.652343 18.558594v195.695313h341.707031zm0 0" fill="#fcf2d0"/><path d="m274.855469 468.433594h-38.457031v-212.675782h38.457031zm0 0" fill="#a3defe"/><path d="m73.929688 462.589844c51.359374-23.03125 137.785156-17.890625 162.46875 5.84375v-212.675782c-24.53125-23.585937-110.027344-28.8125-161.5-6.273437-7.421876 3.25-12.199219 10.601563-12.199219 18.703125v187.074219c0 5.785156 5.953125 9.695312 11.230469 7.328125zm0 0" fill="#8eafe2"/><path d="m157.863281 235.085938c-28.710937-.414063-59.402343 4.082031-82.964843 14.398437-7.421876 3.25-12.199219 10.601563-12.199219 18.703125v187.074219c0 5.78125 5.953125 9.695312 11.230469 7.328125 31.230468-14.007813 75.433593-17.59375 110.832031-12.917969-45.308594-49.324219-49.191407-160.21875-26.898438-214.585937zm0 0" fill="#6a96d7"/><path d="m437.324219 462.589844c-51.359375-23.03125-137.785157-17.890625-162.46875 5.84375v-212.675782c24.53125-23.585937 110.027343-28.8125 161.5-6.273437 7.421875 3.25 12.199219 10.601563 12.199219 18.703125v187.074219c0 5.785156-5.953126 9.695312-11.230469 7.328125zm0 0" fill="#8eafe2"/><path d="m488.351562 361.410156h-79.597656c-8.917968 0-16.148437-7.226562-16.148437-16.144531v-100.179687c0-8.917969 7.230469-16.148438 16.148437-16.148438h79.597656c8.917969 0 16.148438 7.230469 16.148438 16.148438v100.179687c0 8.917969-7.230469 16.144531-16.148438 16.144531zm0 0" fill="#a3defe"/><path d="m444.472656 228.9375h-35.71875c-8.917968 0-16.148437 7.230469-16.148437 16.148438v100.179687c0 8.917969 7.230469 16.144531 16.148437 16.144531h67.925782c-34.394532-19.863281-41.414063-101.957031-32.207032-132.472656zm0 0" fill="#7acefa"/><path d="m101.753906 286.664062h-78.105468c-8.917969 0-16.148438-7.226562-16.148438-16.144531v-55.746093c0-8.917969 7.230469-16.148438 16.148438-16.148438h78.105468c8.917969 0 16.148438 7.230469 16.148438 16.148438v55.746093c0 8.917969-7.230469 16.144531-16.148438 16.144531zm0 0" fill="#89d47f"/><path d="m23.648438 198.628906c-8.917969 0-16.148438 7.226563-16.148438 16.144532v55.746093c0 8.917969 7.230469 16.148438 16.148438 16.148438h57.355468c-22.296875-16.554688-32.75-60.972657-24.355468-88.039063zm0 0" fill="#5ec783"/><path d="m183.0625 419.570312c0 21.40625-17.355469 38.761719-38.761719 38.761719s-38.757812-17.355469-38.757812-38.761719 17.351562-38.761718 38.757812-38.761718 38.761719 17.355468 38.761719 38.761718zm0 0" fill="#f7ef87"/><path d="m175.5 442.566406c-40.511719 3.726563-59.152344-36.207031-38.71875-61.019531-17.804688 3.5-31.238281 19.191406-31.238281 38.023437 0 21.40625 17.351562 38.761719 38.757812 38.761719 12.796875 0 24.140625-6.203125 31.199219-15.765625zm0 0" fill="#efd176"/><path d="m279.425781 181.363281c-3.121093-2.722656-7.859375-2.398437-10.582031.726563-3.335938 3.828125-8.152344 6.023437-13.214844 6.023437-5.066406 0-9.882812-2.195312-13.21875-6.023437-2.722656-3.121094-7.460937-3.445313-10.582031-.726563-3.125 2.722657-3.449219 7.457031-.726563 10.582031 6.183594 7.097657 15.125 11.167969 24.527344 11.167969 9.398438 0 18.339844-4.070312 24.523438-11.167969 2.722656-3.125 2.398437-7.859374-.726563-10.582031zm90.253907 225.292969h-57.125c-4.140626 0-7.5 3.355469-7.5 7.5s3.359374 7.5 7.5 7.5h57.125c4.140624 0 7.5-3.355469 7.5-7.5 0-4.140625-3.359376-7.5-7.5-7.5zm0-56.566406h-57.125c-4.140626 0-7.5 3.355468-7.5 7.5 0 4.140625 3.359374 7.5 7.5 7.5h57.125c4.140624 0 7.5-3.359375 7.5-7.5 0-4.144532-3.359376-7.5-7.5-7.5zm-209.664063-227.117188c4.140625 0 7.5-3.359375 7.5-7.5 0-5.289062 4.304687-9.59375 9.59375-9.59375s9.59375 4.304688 9.59375 9.59375c0 4.140625 3.355469 7.5 7.5 7.5 4.140625 0 7.5-3.359375 7.5-7.5 0-13.5625-11.03125-24.59375-24.59375-24.59375s-24.59375 11.03125-24.59375 24.59375c0 4.140625 3.355469 7.5 7.5 7.5zm157.035156 0c4.144531 0 7.5-3.359375 7.5-7.5 0-5.289062 4.304688-9.59375 9.59375-9.59375 5.289063 0 9.59375 4.304688 9.59375 9.59375 0 4.140625 3.359375 7.5 7.5 7.5s7.5-3.359375 7.5-7.5c0-13.5625-11.03125-24.59375-24.59375-24.59375-13.558593 0-24.59375 11.03125-24.59375 24.59375 0 4.140625 3.359375 7.5 7.5 7.5zm171.300781 98.464844h-58.046874c-2.523438-4.539062-6.210938-8.328125-10.75-10.925781-2.351563-1.34375-4.769532-2.617188-7.25-3.820313 12.023437-8.898437 23.292968-18.839844 33.605468-29.675781 6.269532-6.585937 9.136719-15.53125 7.867188-24.535156-1.285156-9.144531-6.617188-17.082031-14.621094-21.777344-8.933594-5.242187-16.683594-11.097656-23.722656-17.273437 21.789062-26.410157 26.78125-66.027344 21.660156-95.324219-1.742188-9.976563-10.351562-17.363281-20.472656-17.566407-13.050782-.261718-32.554688.777344-51.390625 7.246094-17.289063 5.933594-30.816407 15.257813-40.320313 27.746094-17.863281-7.4375-40.082031-12.078125-69.285156-12.078125s-51.421875 4.640625-69.28125 12.078125c-9.503906-12.492188-23.035156-21.8125-40.320312-27.75-18.835938-6.464844-38.347657-7.511719-51.390626-7.246094-10.121093.207032-18.730468 7.59375-20.476562 17.570313-.046875.269531-.082031.542969-.128906.816406-.003906.035156-.007813.070313-.015625.105469-.746094 4.484375-1.261719 9.160156-1.519531 13.9375-.222657 4.136718 2.949218 7.667968 7.085937 7.890625 4.148437.210937 7.667969-2.949219 7.894531-7.085938.0625-1.179687.144532-2.351562.242188-3.515625 20.765625 7.554688 39.707031 20.269532 53.601562 36.011719-6.480468 6.339844-12.460937 12.949219-18.398437 19.515625-5.21875 5.769531-10.503907 11.613281-16.164063 17.324219-7.644531-9.53125-13.296875-21.757813-16.492187-35.8125-.917969-4.039063-4.9375-6.570313-8.976563-5.648438-4.039062.917969-6.570312 4.9375-5.652344 8.976563 3.800782 16.722656 10.730469 31.355468 20.1875 42.808594-7.039062 6.171874-14.789062 12.03125-23.722656 17.273437-8.003906 4.695313-13.335937 12.632813-14.621094 21.773437-1.269531 9.007813 1.597657 17.949219 7.863282 24.535157 4.640625 4.875 9.496094 9.585937 14.53125 14.113281h-56.222656c-13.039063 0-23.648438 10.609375-23.648438 23.648438v55.746093c0 13.039063 10.609375 23.644531 23.648438 23.644531h31.550781v161.101563c0 5.285156 2.652343 10.15625 7.089843 13.03125 2.554688 1.652344 5.464844 2.492187 8.394532 2.492187 2.140625 0 4.289062-.449218 6.3125-1.355468 11.539062-5.175782 25.8125-9.144532 41.429687-11.535156 7.390625 5.003906 16.296875 7.933593 25.875 7.933593 10.75 0 20.644531-3.695312 28.507813-9.867187 26.84375 2.128906 49.054687 8.898437 58.390625 17.878906.066406.0625.136719.117188.207031.179688.09375.085937.1875.171874.285156.25.089844.070312.183594.136718.273438.203124.105468.078126.210937.15625.316406.226563.089844.058594.183594.109375.273438.164063.117187.070312.234374.140624.355468.207031.085938.042969.175782.082031.261719.125.132813.0625.261719.125.398437.179687.082032.035156.167969.0625.25.09375.144532.050782.285157.101563.433594.148438.085938.023437.175782.042968.261719.066406.144531.035156.289063.074219.4375.105469.109375.019531.222656.035156.335937.050781.125.019531.25.042969.375.054688.234376.023437.472657.035156.710938.035156h.023438 38.457031.023437c.234375 0 .472656-.011719.707032-.035156.128906-.011719.253906-.035157.378906-.054688.113281-.015625.222656-.027344.335937-.050781.148438-.027344.292969-.066407.4375-.105469.085938-.023438.171875-.042969.257813-.066406.148437-.046875.292968-.097656.4375-.152344.082031-.027344.164062-.054688.246094-.089844.136718-.054687.269531-.117187.402343-.183594.085938-.039062.171875-.078124.257813-.125.121094-.0625.238281-.132812.359375-.203124.089843-.054688.183593-.105469.269531-.164063.109375-.074219.210938-.148437.316406-.226563.09375-.066406.183594-.132812.273438-.203124.097656-.082032.191406-.167969.289062-.25.066406-.0625.140625-.117188.207032-.183594 10.382812-9.984375 35.8125-17.023438 66.359374-18.371094 32.320313-1.425781 65.15625 3.792969 87.839844 13.964844 4.792969 2.148437 10.289063 1.722656 14.707032-1.136719 4.441406-2.875 7.089843-7.746094 7.089843-13.03125v-7.960937c0-4.140626-3.359375-7.5-7.5-7.5s-7.5 3.359374-7.5 7.5v7.960937c0 .089844 0 .285156-.242187.441406-.207032.132813-.332032.078125-.417969.039063-25.082031-11.246094-59.578125-16.8125-94.636719-15.265625-26.226562 1.15625-48.351562 6.046875-63.398437 13.78125v-195.085938c17.390625-13.570312 61.125-19.898437 102.773437-14.992187-.011718.300781-.023437.597656-.023437.902344v100.179687c0 13.039063 10.605469 23.644531 23.644531 23.644531h32.300781v42.808594c0 4.144531 3.359375 7.5 7.5 7.5s7.5-3.355469 7.5-7.5v-42.808594h32.300781c13.039063 0 23.644532-10.605468 23.644532-23.644531v-100.179687c.003906-13.039063-10.605469-23.648438-23.644532-23.648438zm-83.878906-118.359375c-5.648437-5.703125-10.929687-11.535156-16.136718-17.296875-5.9375-6.566406-11.917969-13.175781-18.398438-19.515625 13.90625-15.75 32.863281-28.472656 53.648438-36.027344 2.828124 30.492188-6.605469 56.972657-19.113282 72.839844zm11.84375-87.546875c.835938.019531 1.628906.21875 2.359375.539062-23.125 8.375-44.269531 22.546876-59.855469 40.132813-6.058593-5.023437-12.652343-9.726563-20.0625-13.910156 10.722657-12.496094 32.980469-27.644531 77.558594-26.761719zm-323.738281.539062c.730469-.320312 1.523437-.519531 2.359375-.539062 44.585938-.882812 66.835938 14.265625 77.558594 26.757812-7.410156 4.1875-14.003906 8.890626-20.0625 13.914063-15.585938-17.585937-36.730469-31.757813-59.855469-40.132813zm-16.371094 150.605469c-3.089843-3.25-4.503906-7.660156-3.878906-12.105469.644531-4.582031 3.328125-8.566406 7.359375-10.929687 23.714844-13.910156 39.292969-31.136719 54.359375-47.796875 7.355469-8.136719 14.445313-15.980469 22.1875-23.117188.257813-.207031.496094-.429687.722656-.660156 8.539063-7.785156 17.890625-14.707031 29.261719-20.210937.472656-.171875.9375-.382813 1.386719-.65625 16.941406-7.917969 38.339843-12.746094 68.023437-12.746094 29.667969 0 51.0625 4.824219 68.003906 12.738281.480469.296875.980469.53125 1.496094.710938 11.332032 5.496094 20.652344 12.402344 29.171875 20.164062.222657.234375.460938.457032.722657.660156 7.738281 7.136719 14.832031 14.980469 22.1875 23.117188 15.0625 16.660156 30.640624 33.886719 54.359374 47.796875 4.03125 2.363281 6.710938 6.347656 7.355469 10.929687.625 4.445313-.789062 8.855469-3.878906 12.105469-11.855469 12.457031-25.054687 23.644531-39.246094 33.335938-48.625-16.246094-111.207031-9.65625-140.183593 16.429687-27.710938-24.78125-87.507813-32.789062-136.46875-17.667968-3.992188-4.335938-9.582032-7.175782-15.824219-7.589844-9.636719-7.492188-18.753907-15.722656-27.117188-24.507813zm-52.558593 112.488281c-4.769532 0-8.648438-3.878906-8.648438-8.644531v-55.746093c0-4.769532 3.878906-8.644532 8.648438-8.644532h78.105468c3.3125 0 6.1875 1.871094 7.640625 4.609375.03125.0625.058594.121094.089844.183594.582031 1.164063.917969 2.46875.917969 3.851563v55.746093c0 4.769531-3.878906 8.648438-8.648438 8.648438h-78.105468zm120.652343 171.667969c-17.234375 0-31.257812-14.023437-31.257812-31.261719 0-17.238281 14.023437-31.261718 31.257812-31.261718 17.238281 0 31.261719 14.023437 31.261719 31.261718 0 17.238282-14.023438 31.261719-31.261719 31.261719zm84.597657 3.464844c-11.210938-5.734375-26.398438-9.933594-44.21875-12.191406 3.742187-6.675781 5.882812-14.359375 5.882812-22.535157 0-25.507812-20.753906-46.261718-46.261719-46.261718-25.507812 0-46.257812 20.753906-46.257812 46.261718 0 9.359376 2.800781 18.070313 7.597656 25.359376-12.894531 2.609374-24.550781 6.226562-34.78125 10.816406-.082031.035156-.207031.09375-.417969-.039063-.242187-.160156-.242187-.351562-.242187-.445312v-161.097657h31.554687c13.039063 0 23.648438-10.605468 23.648438-23.644531v-26.242187c41.796875-5.046875 86.042968 1.308594 103.496094 14.902344zm38.457031 6.636719h-23.457031v-197.675782h23.457031zm123.398437-231.160156c-22.503906-3.011719-46.464844-2.964844-68 .171874-16.136718 2.351563-37.574218 7.425782-50.738281 18.3125h-32.777344c-13.066406-10.808593-34.296875-15.878906-50.273437-18.246093-20.078125-2.972657-42.335938-3.246094-63.5625-.84375v-14.394531c0-.734376-.039063-1.460938-.105469-2.179688 21.609375-6.347656 46.695313-8.128906 69.964844-4.828125 24.90625 3.53125 44.800781 12.363281 54.578125 24.222656 1.425781 1.726563 3.546875 2.730469 5.789062 2.730469 2.238282 0 4.359375-1.003906 5.785156-2.730469 11.285157-13.6875 35.726563-23.175781 65.378907-25.386719 23.800781-1.777343 47.453125 1.367188 67.480469 8.714844.003906 0 .007812.003906.011718.003906 4.894532 1.796876 9.570313 3.84375 13.980469 6.132813-7.007813.140625-13.269531 3.34375-17.511719 8.320313zm106.246094 115.492187c0 4.765625-3.878906 8.644531-8.648438 8.644531h-79.597656c-4.769531 0-8.648437-3.878906-8.648437-8.644531v-100.179687c0-1.378907.332031-2.683594.910156-3.839844.035156-.0625.0625-.128906.09375-.191406 1.453125-2.742188 4.332031-4.617188 7.644531-4.617188h16.652344c.007812 0 .015625.003906.023438.003906.011718 0 .019531-.003906.027343-.003906h62.898438c4.765625 0 8.644531 3.878906 8.644531 8.648438zm-127.320312 33.105469h-57.125c-4.140626 0-7.5 3.359375-7.5 7.5 0 4.144531 3.359374 7.5 7.5 7.5h57.125c4.140624 0 7.5-3.355469 7.5-7.5 0-4.140625-3.359376-7.5-7.5-7.5zm-137.0625-216.082032 15.675781 6.96875c4.667969 2.078126 10 2.078126 14.667969 0l15.675781-6.96875c5.652343-2.515624 7.648437-9.527343 4.171875-14.644531-2.574219-3.785156-6.433594-6.511719-10.863282-7.671875-10.699218-2.800781-21.9375-2.800781-32.636718 0-4.429688 1.160156-8.289063 3.886719-10.863282 7.671875-3.476562 5.117188-1.480468 12.128907 4.171876 14.644531zm0 0"/></svg>