<svg height="512pt" viewBox="-53 0 512 512.00125" width="512pt" xmlns="http://www.w3.org/2000/svg"><path d="m85.074219 460.589844c-.578125 3.753906 2.707031 7.042968 6.464843 6.460937 17.496094-2.703125 37.054688 5.273438 59.074219-16.746093 12.953125-12.953126 18.046875-38.230469 3.746094-52.535157-14.304687-14.300781-39.582031-9.207031-52.535156 3.746094-22.023438 22.023437-14.042969 41.578125-16.75 59.074219zm0 0" fill="#4e5660"/><path d="m166.886719 504.5c-9.828125 0-18.054688-7.691406-18.59375-17.628906-1.15625-21.289063-1.976563-46.335938 2.953125-74.226563 1.789062-10.136719 11.460937-16.898437 21.597656-15.113281 10.136719 1.792969 16.898438 11.460938 15.109375 21.601562-4.242187 23.988282-3.480469 46.5-2.4375 65.71875.558594 10.277344-7.320313 19.0625-17.597656 19.621094-.34375.019532-.6875.027344-1.03125.027344zm0 0" fill="#e9901b"/><path d="m240 504.5c-.339844 0-.683594-.007812-1.027344-.027344-10.277344-.558594-18.15625-9.34375-17.597656-19.621094 1.042969-19.21875 1.800781-41.730468-2.4375-65.722656-1.792969-10.136718 4.972656-19.804687 15.109375-21.597656 10.140625-1.792969 19.808594 4.972656 21.597656 15.113281 4.929688 27.890625 4.109375 52.9375 2.953125 74.226563-.539062 9.933594-8.765625 17.628906-18.597656 17.628906zm0 0" fill="#e9901b"/><path d="m76.722656 360.089844c-20.65625 0-40.347656-4.136719-55.765625-11.75-9.226562-4.5625-13.011719-15.738282-8.457031-24.96875 4.5625-9.226563 15.738281-13.011719 24.96875-8.457032 21.183594 10.464844 59.832031 12.183594 92.710938-4.785156 9.148437-4.71875 20.390624-1.132812 25.113281 8.019532 4.71875 9.144531 1.128906 20.386718-8.019531 25.109374-20.34375 10.496094-43.628907 16.304688-67.335938 16.796876-1.074219.023437-2.144531.035156-3.214844.035156zm0 0" fill="#e9901b"/><path d="m286.484375 342.429688c-5.917969 0-12.167969-.261719-18.808594-.796876-10.261719-.824218-17.910156-9.8125-17.085937-20.074218.828125-10.257813 9.816406-17.90625 20.074218-17.082032 40.242188 3.238282 60.316407-5.402343 87.621094-24.761718 8.394532-5.953125 20.03125-3.972656 25.984375 4.425781s3.972657 20.03125-4.425781 25.984375c-28.972656 20.539062-53.738281 32.304688-93.359375 32.304688zm0 0" fill="#e9901b"/><path d="m203.445312 434.121094c53.492188 0 91.65625-25.519532 88.085938-78.640625-3.597656-53.4375-46.710938-96.855469-88.085938-96.855469s-84.488281 43.417969-88.085937 96.855469c-3.574219 53.121093 34.59375 78.640625 88.085937 78.640625zm0 0" fill="#eea849"/><path d="m63.820312 230.082031c-26.789062-17.4375-38.09375-53.726562-38.136718-80.410156-.007813-5.855469 4.136718-10.914063 9.882812-12.046875 28.230469-5.566406 66.289063-5.015625 87.132813 22.453125zm0 0" fill="#4e5660"/><path d="m25.695312 150.480469c.265626 26.601562 11.605469 62.339843 38.125 79.601562l36.769532-43.71875c-17.5625-18.726562-44.839844-32.644531-74.894532-35.882812zm0 0" fill="#f2d1a5"/><path d="m323.59375 184.277344c19.207031-25.546875 17.417969-63.515625 8.332031-88.605469-1.996093-5.503906-7.621093-8.839844-13.40625-7.9375-28.429687 4.425781-64.007812 17.960937-74.199219 50.902344zm0 0" fill="#4e5660"/><path d="m332.191406 96.4375c8.851563 25.089844 10.417969 62.550781-8.597656 87.839844l-49.507812-28.503906c10.097656-23.605469 30.96875-46.015626 58.105468-59.335938zm0 0" fill="#f2d1a5"/><path d="m180.597656 132.839844c98.058594-17.289063 110.644532 41.785156 174.566406 65.550781 12.085938 4.492187 17.011719 18.960937 9.878907 29.703125-31.226563 47.042969-81.894531 85.242188-150.488281 97.339844-68.589844 12.09375-129.269532-6.476563-174.699219-40-10.378907-7.65625-10.699219-22.933594-.878907-31.289063 51.941407-44.195312 43.5625-104.015625 141.621094-121.304687zm0 0" fill="#eea849"/><path d="m127.300781 151.105469c-44.125 26.042969-48.480469 69.136719-88.324219 103.039062-9.820312 8.355469-9.5 23.632813.878907 31.289063 45.429687 33.523437 106.109375 52.09375 174.699219 40 7.878906-1.390625 15.507812-3.140625 22.910156-5.191406-125.214844 5.109374-138.390625-113.101563-110.164063-169.136719zm0 0" fill="#e9901b"/><path d="m365.042969 228.09375c4.460937-6.71875 4.203125-14.894531.429687-21.175781-80.902344 68.554687-120.695312-6.203125-171.332031 2.726562-50.636719 8.929688-62.464844 92.789063-161.933594 56.035157-1.398437 7.195312 1.15625 14.964843 7.648438 19.753906 45.429687 33.523437 106.109375 52.09375 174.699219 40 68.59375-12.097656 119.261718-50.296875 150.488281-97.339844zm0 0" fill="#f7ef87"/><path d="m125.242188 259.511719c-20.851563 14.703125-47.933594 22.832031-93.035157 6.167969-1.398437 7.195312 1.15625 14.964843 7.648438 19.753906 45.433593 33.523437 106.109375 52.09375 174.703125 40 7.875-1.390625 15.503906-3.140625 22.90625-5.191406-62.078125 2.535156-96.613282-25.242188-112.222656-60.730469zm0 0" fill="#efd176"/><g fill="#fff"><path d="m140.398438 244.679688c-2.492188-14.148438-18.917969-23.082032-36.683594-19.949219-17.769532 3.132812-30.148438 17.140625-27.65625 31.289062 2.496094 14.148438 18.921875 23.078125 36.6875 19.949219 17.765625-3.132812 30.148437-17.140625 27.652344-31.289062zm0 0"/><path d="m320.933594 212.855469c-2.492188-14.148438-18.917969-23.078125-36.6875-19.949219-17.765625 3.132812-30.144532 17.140625-27.652344 31.289062 2.496094 14.148438 18.917969 23.078126 36.6875 19.949219 17.765625-3.132812 30.148438-17.140625 27.652344-31.289062zm0 0"/><path d="m351.632812 27.226562c0 8.425782-6.832031 15.257813-15.261718 15.257813-8.429688 0-15.261719-6.832031-15.261719-15.257813 0-8.429687 6.832031-15.261718 15.261719-15.261718 8.429687 0 15.261718 6.832031 15.261718 15.261718zm0 0"/><path d="m85.777344 27.226562c0 8.425782-6.832032 15.257813-15.261719 15.257813-8.425781 0-15.257813-6.832031-15.257813-15.257813 0-8.429687 6.832032-15.261718 15.257813-15.261718 8.429687 0 15.261719 6.832031 15.261719 15.261718zm0 0"/><path d="m221.382812 22.890625-13.605468-13.601563c-2.394532-2.394531-6.273438-2.394531-8.667969 0l-13.601563 13.601563c-2.394531 2.394531-2.394531 6.273437 0 8.667969l13.605469 13.601562c2.390625 2.394532 6.273438 2.394532 8.664063 0l13.605468-13.601562c2.390626-2.394532 2.390626-6.273438 0-8.667969zm0 0"/><path d="m45.164062 95.882812-13.605468-13.601562c-2.390625-2.394531-6.273438-2.394531-8.664063 0l-13.605469 13.601562c-2.394531 2.394532-2.394531 6.273438 0 8.667969l13.605469 13.601563c2.390625 2.394531 6.273438 2.394531 8.664063 0l13.605468-13.601563c2.390626-2.394531 2.390626-6.273437 0-8.667969zm0 0"/><path d="m397.601562 95.882812-13.605468-13.601562c-2.394532-2.394531-6.273438-2.394531-8.664063 0l-13.605469 13.601562c-2.394531 2.394532-2.394531 6.273438 0 8.667969l13.605469 13.601563c2.390625 2.394531 6.273438 2.394531 8.664063 0l13.605468-13.601563c2.390626-2.394531 2.390626-6.273437 0-8.667969zm0 0"/></g><path d="m373.453125 269.152344c-6.878906-1.171875-13.8125.40625-19.507813 4.445312-15.9375 11.300782-28.953124 18.636719-45.292968 21.964844 24.585937-16.664062 45.828125-38 62.640625-63.320312 4.625-6.96875 5.796875-15.53125 3.207031-23.492188-2.625-8.078125-8.722656-14.414062-16.722656-17.390625-8.339844-3.097656-15.804688-6.878906-22.726563-11.035156 5.425781-9.753907 8.875-21.035157 10.273438-33.644531.457031-4.117188-2.507813-7.824219-6.625-8.28125-4.101563-.457032-7.824219 2.507812-8.28125 6.625-1.128907 10.171874-3.800781 19.222656-7.945313 27.015624-5.585937-3.980468-10.902344-8.105468-16.152344-12.191406-6.054687-4.707031-12.15625-9.449218-18.621093-13.902344 9.535156-15.335937 23.597656-28.90625 39.957031-38.546874.425781 1.679687.828125 3.378906 1.175781 5.113281.816407 4.058593 4.773438 6.691406 8.832031 5.871093 4.0625-.820312 6.691407-4.773437 5.871094-8.835937-1.085937-5.402344-2.523437-10.613281-4.253906-15.523437-.023438-.082032-.050781-.160157-.082031-.242188-.078125-.21875-.144531-.445312-.222657-.664062-3.210937-8.863282-12.296874-14.242188-21.613281-12.792969-11.578125 1.800781-28.675781 5.765625-44.34375 14.433593-14.214843 7.859376-24.675781 18.082032-31.191406 30.4375-16.832031-3.671874-37.019531-4.242187-62.535156.257813-25.515625 4.496094-44.292969 11.9375-58.855469 21.144531-10.347656-9.378906-23.671875-15.40625-39.714844-17.933594-17.691406-2.785156-35.109375-.664062-46.609375 1.601563-9.242187 1.824219-15.945312 9.988281-15.929687 19.417969.039062 26.527344 10.488281 60.492187 33.53125 80.582031-5.085938 6.28125-10.816406 12.394531-17.597656 18.167969-6.5 5.527344-10.058594 13.570312-9.765626 22.058594.289063 8.363281 4.316407 16.011718 11.046876 20.976562 12.71875 9.386719 26.199218 17.347656 40.257812 23.847656-13.140625-.09375-25.503906-2.5-34.867188-7.125-12.925781-6.382812-28.628906-1.0625-35.011718 11.859375-6.382813 12.921875-1.0625 28.628907 11.859375 35.011719 16.351562 8.078125 37.335937 12.527344 59.085937 12.527344 1.117188 0 2.242188-.011719 3.367188-.035156 9.257812-.191407 18.496094-1.167969 27.570312-2.898438.175782 7.765625 1.253906 15.027344 3.210938 21.773438-5.441406 2.488281-10.394532 5.824218-14.351563 9.78125-18.460937 18.457031-18.363281 36.066406-18.289062 50.214843.027343 4.636719.050781 9.015625-.570313 13.015625-.636718 4.121094.753906 8.347656 3.714844 11.308594 2.488281 2.488281 5.871094 3.867188 9.328125 3.867188.660156 0 1.324219-.050782 1.980469-.152344.980468-.152344 2-.269532 3.109375-.355469 4.128906-.332031 7.210937-3.945313 6.878906-8.074219-.328125-4.128906-3.949219-7.210937-8.070313-6.878906-.617187.050781-1.214843.105469-1.800781.167969.476563-4.375.453125-8.734375.429688-12.976563-.070313-13.109375-.136719-25.496094 13.894531-39.527344 2.582031-2.582031 5.824219-4.796874 9.421875-6.503906 2.738281 5.042969 6.082031 9.71875 10.070313 13.988282 4.359374 4.664062 9.398437 8.746093 15.050781 12.246093-.90625 8-1.398438 15.707031-1.613281 23.101563-4.164063 3.261718-8.441407 5.585937-13 7.042968-3.945313 1.257813-6.125 5.476563-4.867188 9.421876 1.019531 3.191406 3.96875 5.222656 7.144531 5.222656.753907 0 1.523438-.113282 2.28125-.355469 2.890625-.921875 5.679688-2.085937 8.390625-3.492187.148438 6.945312.460938 13.554687.800782 19.789062.753906 13.859375 12.210937 24.71875 26.085937 24.71875.476563 0 .957031-.011719 1.433594-.039062 6.96875-.378907 13.378906-3.449219 18.039062-8.644532 4.664063-5.199218 7.023438-11.902344 6.644531-18.871094-.695312-12.765624-1.304687-27.4375-.191406-43.160156 3.460938.222656 7 .339844 10.628906.339844 3.628907 0 7.171876-.117188 10.632813-.339844 1.109375 15.726563.5 30.394532-.191406 43.160156-.378907 6.96875 1.980469 13.671876 6.640625 18.871094 4.664062 5.195313 11.070312 8.265625 18.03125 8.644532.484375.027343.964844.039062 1.445312.039062 13.871094 0 25.328125-10.859375 26.082032-24.71875.953124-17.519531 1.71875-37.941406-.863282-60.730469 5.652344-3.5 10.6875-7.582031 15.050782-12.246093 14.070312-15.054688 20.378906-35.011719 18.742187-59.324219-.125-1.8125-.300781-3.625-.511719-5.429688 35.136719-2.246093 59.1875-14.523437 85.679688-33.304687 11.757812-8.335938 14.539062-24.683594 6.207031-36.441406-4.039063-5.699219-10.054687-9.480469-16.9375-10.652344zm-54.769531-173.839844c-17.808594 10.789062-33.144532 25.75-43.679688 42.652344-5.683594-3.199219-11.734375-6.082032-18.324218-8.476563 7.589843-12.285156 24.507812-28.109375 62.003906-34.175781zm-210.699219 60.371094c-5.386719 4.511718-10.097656 9.296875-14.351563 14.257812-15.683593-12.28125-35.214843-21.09375-55.644531-25.140625 18.109375-3.453125 49.011719-5.902343 69.996094 10.882813zm-74.355469 3.535156c18.695313 3.453125 36.578125 11.398438 50.800782 22.5625-4.546876 6.398438-8.65625 12.941406-12.738282 19.441406-3.523437 5.617188-7.097656 11.296875-10.976562 16.933594-12.902344-11.863281-24.6875-32.828125-27.085938-58.9375zm74.804688 189.96875c-9.398438 2.03125-19.011719 3.167969-28.648438 3.367188-20.59375.433593-40.425781-3.496094-55.503906-10.941407-5.507812-2.722656-7.773438-9.414062-5.054688-14.917969 2.71875-5.507812 9.414063-7.777343 14.917969-5.054687 18.9375 9.351563 46.351563 11.296875 72.003907 5.21875 2.1875.652344 4.382812 1.273437 6.589843 1.863281-2.054687 6.714844-3.488281 13.558594-4.304687 20.464844zm-64.125-69.789062c-3.027344-2.230469-4.835938-5.667969-4.964844-9.425782-.136719-3.886718 1.503906-7.574218 4.496094-10.117187 18.796875-15.996094 29.859375-33.617188 40.558594-50.660157 5.230468-8.332031 10.273437-16.359374 16.007812-23.859374.132812-.160157.261719-.324219.378906-.492188 6.265625-8.121094 13.371094-15.609375 22.457032-22.175781.335937-.199219.652343-.429688.960937-.679688 13.617187-9.601562 31.628906-17.167969 57.695313-21.761719 26.136718-4.609374 45.675781-3.632812 61.777343.757813.335938.109375.671875.203125 1.007813.265625 10.8125 3.066406 20.074218 7.695312 28.757812 13.203125.074219.054687.15625.101563.234375.148437 8.039063 5.121094 15.597657 10.988282 23.4375 17.089844 15.882813 12.351563 32.304688 25.128906 55.441407 33.730469 3.679687 1.367187 6.480468 4.273437 7.683593 7.96875 1.160157 3.578125.636719 7.421875-1.441406 10.554687-33.179687 49.984376-84.867187 83.402344-145.539063 94.101563-60.675781 10.699219-120.675781-3.027344-168.949218-38.648437zm130.886718 213.898437c-1.984374 2.214844-4.714843 3.523437-7.695312 3.6875-6.152344.363281-11.382812-4.410156-11.714844-10.519531-.84375-15.476563-1.53125-33.28125.242188-52.804688 6.707031 2.605469 14.015625 4.582032 21.867187 5.917969-1.234375 16.800781-.597656 32.261719.132813 45.679687.160156 2.96875-.84375 5.824219-2.832032 8.039063zm75.910157-6.832031c-.320313 5.90625-5.195313 10.535156-11.105469 10.535156-.203125 0-.40625-.003906-.621094-.015625-2.96875-.164063-5.699218-1.472656-7.6875-3.6875-1.984375-2.214844-2.992187-5.070313-2.828125-8.039063.726563-13.417968 1.367188-28.875.128907-45.683593 7.855468-1.332031 15.164062-3.308594 21.871093-5.917969 1.773438 19.53125 1.082031 37.335938.242188 52.808594zm18.207031-82.40625c-4.242188 4.539062-9.339844 8.410156-15.207031 11.609375-.292969.132812-.574219.277343-.84375.445312-9.246094 4.875-20.371094 8.097657-33.09375 9.570313-.019531 0-.039063 0-.058594.003906-.050781.003906-.097656.015625-.148437.023438-5.242188.597656-10.75.910156-16.515626.910156-5.765624 0-11.269531-.3125-16.515624-.910156-.050782-.007813-.097657-.019532-.148438-.023438-.019531-.003906-.039062-.003906-.058594-.003906-12.726562-1.472656-23.847656-4.695313-33.09375-9.570313-.269531-.164062-.550781-.3125-.84375-.445312-5.867187-3.199219-10.96875-7.070313-15.210937-11.609375-11.121094-11.894532-16.078125-28.070313-14.730469-48.074219.542969-8.054687 2.082031-16.046875 4.550781-23.847656 14.933594 2.957031 30.222657 4.457031 45.707031 4.457031 14.136719 0 28.429688-1.246094 42.757813-3.773438 19.933594-3.515624 38.957031-9.339843 56.785156-17.269531 6.542969 12.660157 10.464844 26.511719 11.402344 40.433594 1.347656 20.003906-3.609375 36.175781-14.734375 48.074219zm106.195312-100.050782c-25.386718 17.996094-46.992187 28.957032-79.707031 30.675782-1.886719-7.550782-4.535156-14.949219-7.882812-22.054688 31.316406-.316406 50.445312-9.59375 74.703125-26.792968 2.429687-1.722657 5.386718-2.394532 8.3125-1.898438 2.933594.5 5.496094 2.113281 7.21875 4.539062 3.550781 5.011719 2.363281 11.976563-2.644532 15.53125zm27.394532-213.425781-13.601563-13.605469c-2.574219-2.574218-5.996093-3.992187-9.636719-3.992187-3.640624 0-7.066406 1.417969-9.636718 3.992187l-2.242188 2.242188c-23.308594-19.488281-49.449218-34.449219-77.511718-44.492188h24.625c1.109374 3.195313 2.914062 6.132813 5.378906 8.59375 4.4375 4.4375 10.265625 6.65625 16.09375 6.65625s11.65625-2.21875 16.09375-6.65625c4.300781-4.296874 6.667968-10.015624 6.667968-16.09375 0-6.082031-2.367187-11.796874-6.664062-16.09375-8.878906-8.875-23.316406-8.875-32.191406 0-2.460938 2.460938-4.265625 5.398438-5.378906 8.59375h-86.46875c-.5-.757812-1.082032-1.472656-1.746094-2.136718l-13.601563-13.605469c-5.316406-5.3125-13.960937-5.3125-19.273437 0l-13.605469 13.605469c-.664063.664062-1.246094 1.378906-1.742187 2.136718h-86.484376c-1.089843-3.140624-2.863281-6.09375-5.363281-8.59375-4.300781-4.300781-10.015625-6.667968-16.097656-6.667968-6.078125 0-11.792969 2.367187-16.09375 6.664062-4.296875 4.300782-6.664063 10.015625-6.664063 16.097656 0 6.078126 2.367188 11.792969 6.664063 16.09375 4.300781 4.296876 10.015625 6.664063 16.09375 6.664063 6.082031 0 11.796875-2.367187 16.097656-6.664063 2.5-2.503906 4.273438-5.457031 5.363281-8.59375h24.636719c-28.0625 10.042969-54.199219 25.003907-77.511719 44.492188l-2.238281-2.242188c-5.3125-5.3125-13.960937-5.3125-19.273437 0l-13.605469 13.605469c-5.3125 5.3125-5.3125 13.957031 0 19.269531l13.605469 13.605469c2.65625 2.65625 6.148437 3.984375 9.636718 3.984375 3.488282 0 6.976563-1.328125 9.636719-3.984375l13.601563-13.605469c2.574218-2.574218 3.992187-5.996093 3.992187-9.636718s-1.417969-7.0625-3.992187-9.636719l-.710938-.710937c37.054688-30.628907 81.601563-49.191407 129.597656-53.949219.269532.324219.550782.640625.851563.941406l13.605469 13.605469c2.65625 2.65625 6.144531 3.984375 9.632812 3.984375 3.492188 0 6.980469-1.328125 9.640625-3.984375l13.601563-13.605469c.300781-.300781.582031-.617187.847656-.941406 47.996094 4.757812 92.546875 23.320312 129.601562 53.949219l-.710937.710937c-2.574219 2.574219-3.992187 5.996094-3.992187 9.636719 0 3.644531 1.417968 7.066406 3.992187 9.636718l13.601563 13.605469c2.65625 2.65625 6.148437 3.984375 9.636718 3.984375 3.488282 0 6.980469-1.328125 9.636719-3.984375l13.605469-13.605469c5.3125-5.3125 5.3125-13.957031 0-19.269531zm-72.019532-68.84375c1.46875-1.464843 3.414063-2.273437 5.488282-2.273437 2.074218 0 4.023437.808594 5.488281 2.273437 1.464844 1.464844 2.273437 3.414063 2.273437 5.488281 0 2.070313-.808593 4.019532-2.273437 5.484376-1.46875 1.464843-3.414063 2.273437-5.488281 2.273437-2.074219 0-4.019532-.808594-5.488282-2.273437-1.464843-1.464844-2.273437-3.414063-2.273437-5.488282 0-2.070312.808594-4.019531 2.273437-5.484375zm-254.878906 10.972657c-1.464844 1.46875-3.414062 2.273437-5.488281 2.273437-2.070313 0-4.019531-.808594-5.488281-2.273437-1.464844-1.464844-2.269532-3.414063-2.269532-5.484376 0-2.074218.804688-4.023437 2.269532-5.488281 1.46875-1.464843 3.414062-2.273437 5.488281-2.273437s4.023437.808594 5.488281 2.273437c1.464844 1.464844 2.273438 3.414063 2.273438 5.488281 0 2.070313-.804688 4.019532-2.273438 5.484376zm-48.777344 79.167968-11.664062-11.664062 11.664062-11.660156 11.664063 11.660156zm176.21875-72.992187-11.664062-11.660157 11.664062-11.664062 11.660157 11.664062zm176.21875 72.992187-11.664062-11.664062 11.664062-11.660156 11.660157 11.660156zm-198.9375 140.050782 14.871094 3.699218c4.429688 1.101563 9.117188.277344 12.902344-2.273437l12.707031-8.5625c4.582031-3.089844 5.25-9.570313 1.398438-13.527344-2.851563-2.933594-6.671875-4.730469-10.746094-5.0625-9.84375-.804687-19.730469.9375-28.707031 5.058594-3.714844 1.707031-6.6875 4.703125-8.367188 8.4375-2.265625 5.035156.582032 10.894531 5.941406 12.230469zm-52.859374-43.113282c-.71875-4.078125-4.609376-6.796875-8.6875-6.082031-4.078126.71875-6.804688 4.609375-6.085938 8.6875l2.003906 11.363281c.644532 3.636719 3.808594 6.195313 7.378906 6.195313.429688 0 .871094-.035157 1.3125-.113281 4.078126-.71875 6.800782-4.609376 6.082032-8.6875zm130.269531-11.253906c.640625 3.640625 3.804687 6.199219 7.378906 6.199219.429687 0 .871094-.039063 1.308594-.117188 4.078125-.71875 6.804687-4.609375 6.082031-8.6875l-2.003906-11.359375c-.71875-4.078125-4.605469-6.804687-8.6875-6.082031-4.078125.71875-6.804688 4.609375-6.082032 8.6875zm-43.15625 65.75c-2.222657 3.6875-5.921875 6.230469-10.148438 6.976562-4.226562.742188-8.570312-.378906-11.917969-3.085937-3.222656-2.601563-7.941406-2.097656-10.546874 1.125-2.601563 3.222656-2.101563 7.945313 1.121093 10.546875 5.359375 4.328125 11.996094 6.640625 18.773438 6.640625 1.722656 0 3.453125-.152344 5.175781-.453125 8.496094-1.5 15.929688-6.605469 20.390625-14.003906 2.136719-3.550782.996094-8.160156-2.554687-10.296875-3.546876-2.140625-8.15625-.996094-10.292969 2.550781zm0 0"/></svg>