<svg height="512pt" viewBox="0 -21 512.00072 512" width="512pt" xmlns="http://www.w3.org/2000/svg"><path d="m79.167969 412.207031c-.675781 4.378907 3.152343 8.207031 7.53125 7.53125 20.382812-3.152343 43.164062 6.144531 68.820312-19.511719 15.089844-15.089843 21.027344-44.539062 4.363281-61.203124-16.664062-16.660157-46.113281-10.726563-61.203124 4.363281-25.652344 25.65625-16.359376 48.4375-19.511719 68.820312zm0 0" fill="#4e5660"/><g fill="#e9901b"><path d="m174.484375 461.753906c-10.605469 0-19.472656-8.296875-20.054687-19.011718-1.34375-24.714844-2.300782-53.785157 3.414062-86.109376 1.933594-10.933593 12.359375-18.226562 23.292969-16.296874 10.933593 1.929687 18.230469 12.359374 16.296875 23.292968-4.96875 28.121094-4.082032 54.453125-2.859375 76.929688.601562 11.085937-7.898438 20.5625-18.980469 21.164062-.371094.019532-.742188.03125-1.109375.03125zm0 0"/><path d="m259.65625 461.753906c-.367188 0-.738281-.011718-1.109375-.03125-11.085937-.601562-19.582031-10.078125-18.980469-21.164062 1.21875-22.476563 2.105469-48.8125-2.863281-76.929688-1.929687-10.933594 5.367187-21.363281 16.296875-23.292968 10.9375-1.933594 21.363281 5.363281 23.292969 16.296874 5.714843 32.320313 4.757812 61.394532 3.417969 86.109376-.582032 10.710937-9.453126 19.011718-20.054688 19.011718zm0 0"/><path d="m75.574219 302.597656c-24.542969 0-47.257813-9.398437-62.71875-26.050781-7.554688-8.136719-7.078125-20.855469 1.054687-28.410156 8.140625-7.554688 20.859375-7.082031 28.410156 1.054687 8.085938 8.710938 21.210938 13.644532 35.121094 13.171875 15.398438-.511719 29.554688-7.367187 38.847656-18.8125 6.996094-8.621093 19.65625-9.9375 28.273438-2.9375 8.621094 6.996094 9.9375 19.65625 2.941406 28.273438-16.636718 20.492187-41.6875 32.757812-68.726562 33.65625-1.070313.039062-2.140625.054687-3.203125.054687zm0 0"/></g><path d="m279.210938 364.746094-29-29c-10.6875-10.6875-10.6875-28.019532 0-38.707032l157.800781-157.800781c9.703125-9.703125 22.023437-16.367187 35.453125-19.175781l44.53125-9.308594c9.667968-2.023437 18.230468 6.539063 16.210937 16.203125l-9.3125 44.53125c-2.808593 13.433594-9.472656 25.753907-19.175781 35.453125l-157.800781 157.804688c-10.6875 10.6875-28.019531 10.6875-38.707031 0zm0 0" fill="#8eafe2"/><path d="m344.433594 202.816406-94.222656 94.222656c-10.6875 10.6875-10.6875 28.019532 0 38.707032l29 29c10.6875 10.6875 28.019531 10.6875 38.707031 0l53.761719-53.765625c-19.929688-25.796875-28.714844-64.484375-27.246094-108.164063zm0 0" fill="#6a96d7"/><path d="m487.996094 110.753906-44.53125 9.308594c-10.691406 2.238281-20.671875 6.921875-29.195313 13.632812l66.992188 66.992188c6.710937-8.523438 11.394531-18.503906 13.632812-29.195312l9.3125-44.53125c2.019531-9.667969-6.542969-18.230469-16.210937-16.207032zm0 0" fill="#f6e3a3"/><path d="m292.570312 254.679688 67.703126 67.703124-22.992188 22.992188-67.703125-67.703125zm0 0" fill="#efd176"/><path d="m269.578125 277.675781-19.367187 19.363281c-10.6875 10.6875-10.6875 28.019532 0 38.707032l29 29c10.6875 10.6875 28.019531 10.6875 38.707031 0l19.363281-19.367188zm0 0" fill="#d9495d"/><path d="m478.722656 136.234375c4.316406 4.316406 12.03125 10.351563 20.207032 15.945313l5.273437-25.21875c2.023437-9.667969-6.539063-18.230469-16.207031-16.207032l-25.21875 5.273438c5.59375 8.175781 11.628906 15.890625 15.945312 20.207031zm0 0" fill="#4e5660"/><path d="m217.070312 381.375c62.316407 0 106.78125-29.734375 102.617188-91.617188-4.191406-62.253906-54.417969-112.839843-102.617188-112.839843-48.203124 0-98.429687 50.585937-102.621093 112.839843-4.164063 61.882813 40.300781 91.617188 102.621093 91.617188zm0 0" fill="#eea849"/><path d="m63.417969 119.332031c-27.207031-25.425781-32.835938-69.351562-27.484375-99.972656 1.171875-6.71875 6.953125-11.683594 13.773437-11.820313 33.515625-.675781 77.070313 7.65625 95.425781 43.386719zm0 0" fill="#4e5660"/><path d="m35.785156 20.289062c-5.082031 30.574219.699219 73.871094 27.632813 99.042969l51.03125-42.722656c-16.359375-25.039063-44.839844-46.523437-78.664063-56.320313zm0 0" fill="#f2d1a5"/><path d="m370.71875 119.332031c27.207031-25.425781 32.839844-69.351562 27.484375-99.972656-1.171875-6.71875-6.953125-11.683594-13.773437-11.820313-33.515626-.675781-77.066407 7.65625-95.425782 43.386719zm0 0" fill="#4e5660"/><path d="m398.355469 20.289062c5.082031 30.574219-.699219 73.871094-27.632813 99.042969l-51.035156-42.722656c16.363281-25.039063 44.84375-46.523437 78.667969-56.320313zm0 0" fill="#f2d1a5"/><path d="m217.070312 31.386719c116 0 118.488282 70.328125 187.019532 110.523437 12.957031 7.597656 15.679687 25.195313 5.324218 36.074219-45.34375 47.652344-111.203124 81.234375-192.34375 81.234375-81.144531 0-147-33.582031-192.34375-81.234375-10.355468-10.878906-7.636718-28.476563 5.324219-36.074219 68.527344-40.199218 71.019531-110.523437 187.019531-110.523437zm0 0" fill="#eea849"/><path d="m152.226562 41.5625c-55.894531 20.949219-69.609374 69.511719-122.179687 100.347656-12.957031 7.597656-15.679687 25.195313-5.324219 36.074219 45.34375 47.652344 111.203125 81.234375 192.347656 81.234375 9.316407 0 18.421876-.464844 27.332032-1.320312-144.695313-19.46875-135.894532-157.757813-92.175782-216.335938zm0 0" fill="#e9901b"/><path d="m409.414062 177.984375c6.476563-6.804687 7.835938-16.238281 4.777344-24.207031-106.6875 62.289062-137.21875-31.535156-197.121094-31.535156-59.902343 0-90.4375 93.824218-197.121093 31.535156-3.0625 7.96875-1.703125 17.402344 4.777343 24.207031 45.34375 47.652344 111.199219 81.234375 192.34375 81.234375 81.140626 0 147-33.578125 192.34375-81.234375zm0 0" fill="#f7ef87"/><path d="m127.933594 165.519531c-26.898438 12.648438-59.613282 16.5-107.984375-11.742187-3.0625 7.96875-1.703125 17.402344 4.777343 24.210937 45.34375 47.652344 111.199219 81.230469 192.34375 81.230469 9.316407 0 18.425782-.460938 27.332032-1.320312-71.734375-9.652344-105.738282-48.507813-116.46875-92.378907zm0 0" fill="#efd176"/><path d="m148.34375 151.5625c0-16.738281-17.039062-30.308594-38.058594-30.308594-21.015625 0-38.054687 13.570313-38.054687 30.308594s17.039062 30.304688 38.054687 30.304688c21.019532 0 38.058594-13.566407 38.058594-30.304688zm0 0" fill="#fff"/><path d="m361.910156 151.5625c0-16.738281-17.039062-30.308594-38.058594-30.308594-21.015624 0-38.054687 13.570313-38.054687 30.308594s17.039063 30.304688 38.054687 30.304688c21.019532 0 38.058594-13.566407 38.058594-30.304688zm0 0" fill="#fff"/><path d="m373.789062 328.589844c-2.171874 0-4.378906-.355469-6.546874-1.101563-3.222657-1.105469-9.015626-3.679687-12.507813-5.742187-9.558594-5.644532-12.730469-17.972656-7.082031-27.53125 5.644531-9.554688 17.964844-12.730469 27.523437-7.089844.953125.550781 4.039063 1.953125 5.167969 2.355469 10.496094 3.613281 16.070312 15.050781 12.457031 25.546875-2.867187 8.328125-10.667969 13.5625-19.011719 13.5625zm0 0" fill="#e9901b"/><path d="m505.789062 109.167969c-5.078124-5.074219-12.296874-7.222657-19.328124-5.757813l-25.144532 5.257813c-.019531.003906-.042968.007812-.0625.011719l-19.324218 4.042968c-14.421876 3.015625-27.585938 9.996094-38.175782 20.203125-7.699218-4.855469-14.53125-10.152343-20.820312-15.6875 10.355468-12.445312 17.785156-28.515625 21.632812-46.976562.847656-4.054688-1.753906-8.027344-5.8125-8.875-4.046875-.839844-8.027344 1.757812-8.871094 5.8125-3.273437 15.6875-9.410156 29.257812-17.882812 39.71875-5.984375-6.023438-11.5625-12.191407-17.070312-18.28125-6.207032-6.863281-12.507813-13.824219-19.332032-20.5 14.59375-16.605469 34.5625-30 56.457032-37.894531.113281 1.316406.210937 2.640624.285156 3.976562.226562 4.136719 3.738281 7.308594 7.898437 7.082031 4.132813-.226562 7.304688-3.761719 7.078125-7.894531-.265625-4.933594-.800781-9.757812-1.570312-14.378906-.007813-.035156-.011719-.070313-.015625-.109375-.046875-.28125-.085938-.570313-.136719-.851563-1.789062-10.238281-10.625-17.820312-21.011719-18.0273435-13.550781-.2695315-33.808593.8085935-53.367187 7.5234375-17.976563 6.167969-32.035156 15.871094-41.890625 28.875-20.277344-8.515625-43.675781-12.554688-72.253907-12.554688-28.582031 0-51.976562 4.039063-72.257812 12.554688-9.855469-13.003906-23.910156-22.707031-41.886719-28.875-19.558593-6.714844-39.816406-7.796875-53.371093-7.5234375-10.386719.2070315-19.222657 7.7890625-21.011719 18.0273435-5.328125 30.5-.109375 71.769532 22.660156 99.171875-7.390625 6.507813-15.539063 12.679688-24.949219 18.199219-8.25 4.839844-13.738281 13.019531-15.066406 22.4375-1.304688 9.28125 1.648438 18.496094 8.105469 25.28125 24.839843 26.101562 54.140625 46.503906 86.40625 60.625-7.640625 6.757812-17.707031 10.722656-28.507813 11.082031-11.753906.402344-22.738281-3.628906-29.371094-10.773437-5.015624-5.40625-11.835937-8.53125-19.203124-8.808594-7.363282-.261719-14.402344 2.339844-19.808594 7.355469-11.152344 10.355469-11.804688 27.855469-1.449219 39.007812 16.785156 18.082031 41.648437 28.449219 68.214844 28.449219 1.144531 0 2.292969-.019531 3.449219-.054688 9.585937-.320312 18.929687-1.949218 27.90625-4.84375.496093 7.539063 1.757812 14.640626 3.78125 21.292969-6.597657 2.871094-12.589844 6.851563-17.332032 11.59375-21.136718 21.136719-21.03125 41.363281-20.941406 57.617188.027344 5.453125.054688 10.601562-.679688 15.359375-.683593 4.410156.804688 8.9375 3.980469 12.109375 2.664063 2.667969 6.285157 4.140625 9.988281 4.140625.707032 0 1.414063-.050782 2.121094-.160156 1.066406-.164063 2.171875-.296876 3.378906-.398438 4.128907-.355469 7.1875-3.988281 6.832032-8.113281-.355469-4.128907-3.980469-7.183594-8.113282-6.832031-1.113281.09375-2.164062.207031-3.191406.34375.742188-5.542969.710938-11.121094.683594-16.53125-.082031-15.539063-.164062-30.21875 16.546875-46.929688 3.363281-3.359375 7.640625-6.199219 12.390625-8.308594 3.230469 6.179688 7.253906 11.878906 12.097656 17.054688 5.558594 5.945312 12.074219 11.074218 19.460938 15.371094-1.019532 8.960937-1.585938 17.613281-1.847656 25.925781-7.011719 6.007812-14.195313 9.652343-22.394532 11.371093-4.054687.851563-6.648437 4.828126-5.796875 8.882813.742188 3.535156 3.859375 5.960937 7.332031 5.960937.511719 0 1.027344-.054687 1.546876-.164062 6.796874-1.425781 13.148437-3.914062 19.179687-7.511719.140625 9.132813.546875 17.773438.988281 25.875.796875 14.636719 12.894532 26.105469 27.542969 26.105469.5 0 1.003906-.015625 1.515625-.042969 15.199219-.828125 26.890625-13.863281 26.0625-29.058593-.828125-15.300782-1.554688-32.933594-.128906-51.871094 4.898437.390625 9.941406.59375 15.136718.59375 5.195313 0 10.242188-.203125 15.136719-.589844 1.429688 18.9375.703125 36.570312-.128906 51.867188-.398437 7.363281 2.089844 14.4375 7.011719 19.925781 4.921875 5.492187 11.691406 8.734375 19.054687 9.132812.507813.027344 1.011719.042969 1.511719.042969 14.648438 0 26.75-11.46875 27.542969-26.105469 1.027343-18.90625 1.875-40.738281-.425781-64.933593 3.8125 1.371093 7.800781 2.058593 11.785156 2.058593 8.960937 0 17.886718-3.449219 24.664062-10.226562l37.1875-37.183594c1.648438.699219 3.183594 1.300781 4.394532 1.71875 2.910156 1 5.933593 1.507813 8.988281 1.507813 11.777343 0 22.265625-7.484376 26.101562-18.621094 2.628907-7.632813 1.703125-15.636719-1.878906-22.210938l83.007813-83.011718c10.765624-10.761719 18.097656-24.324219 21.214843-39.222657l4.039063-19.320312c.003906-.019531.007812-.042969.011718-.0625l5.261719-25.148438c1.464844-7.019531-.6875-14.242187-5.761719-19.320312zm-121.507812-94.132813c1.152344.023438 2.238281.351563 3.191406.894532-24.355468 8.695312-46.648437 23.597656-63 42.117187-6.0625-5.074219-12.605468-9.828125-19.890625-14.050781-.472656-.273438-.953125-.523438-1.429687-.789063 11.125-13.101562 34.335937-29.121093 81.128906-28.171875zm-334.421875 0c46.773437-.941406 69.996094 15.074219 81.125 28.171875-.476563.265625-.957031.515625-1.425781.789063-7.289063 4.222656-13.832032 8.976562-19.894532 14.046875-16.347656-18.515625-38.644531-33.417969-63-42.113281.953126-.542969 2.039063-.871094 3.195313-.894532zm-7.820313 15.191406c21.910157 7.894532 41.898438 21.296876 56.503907 37.914063-6.828125 6.675781-13.128907 13.636719-19.335938 20.5-5.496093 6.082031-11.070312 12.238281-17.042969 18.253906-13.214843-16.601562-23.210937-44.523437-20.125-76.667969zm64.929688 259.027344v.023438c-9.050781 3.5-18.59375 5.445312-28.4375 5.769531-23.546875.769531-45.609375-7.910156-60.179688-23.605469-4.726562-5.089844-4.429687-13.082031.664063-17.808594 2.464844-2.292968 5.671875-3.480468 9.042969-3.359374 3.363281.125 6.476562 1.554687 8.765625 4.023437 9.550781 10.289063 24.832031 16.097656 40.867187 15.5625 13.179688-.4375 25.582032-4.972656 35.453125-12.753906-3.367187 10.464843-5.441406 21.222656-6.175781 32.148437zm-76.8125-116.4375c-3.277344-3.449218-4.78125-8.128906-4.117188-12.847656.683594-4.859375 3.527344-9.082031 7.804688-11.589844 24.636719-14.453125 40.832031-32.359375 56.488281-49.679687 7.65625-8.460938 15.035157-16.621094 23.082031-24.050781h.003907c.285156-.222657.542969-.464844.785156-.71875 8.875-8.09375 18.589844-15.289063 30.398437-21.019532.542969-.1875 1.074219-.429687 1.582032-.75.007812-.003906.015625-.007812.023437-.015625 17.652344-8.238281 39.949219-13.257812 70.863281-13.257812 30.914063 0 53.207032 5.019531 70.859376 13.257812.007812.007813.015624.011719.023437.019531.484375.304688.996094.527344 1.515625.710938 11.839844 5.738281 21.578125 12.949219 30.46875 21.058594.242188.25.5.492187.785156.714844 8.046875 7.425781 15.425782 15.585937 23.082032 24.050781 15.660156 17.320312 31.851562 35.226562 56.488281 49.679687 4.277343 2.507813 7.121093 6.730469 7.804687 11.589844.664063 4.71875-.835937 9.398438-4.117187 12.847656-48.417969 50.878906-114.796875 78.902344-186.910157 78.902344-72.117187 0-138.496093-28.023438-186.914062-78.902344zm145.03125 281.417969c-6.988281.371094-12.894531-4.984375-13.269531-11.898437-.996094-18.324219-1.820313-39.460938.375-62.648438 7.59375 2.953125 15.859375 5.207031 24.738281 6.742188-1.570312 20.082031-.816406 38.554687.050781 54.535156.378907 6.9375-4.957031 12.890625-11.894531 13.269531zm97.035156-11.898437c-.363281 6.679687-5.882812 11.917968-12.566406 11.917968-.234375 0-.46875-.007812-.703125-.019531-3.359375-.183594-6.449219-1.664063-8.695313-4.171875-2.25-2.503906-3.386718-5.734375-3.203124-9.097656.867187-15.980469 1.621093-34.453125.050781-54.535156 8.878906-1.535157 17.144531-3.789063 24.738281-6.742188 2.199219 23.183594 1.371094 44.320312.378906 62.648438zm6.140625-82.308594c-.359375.167968-.710937.355468-1.042969.582031-.695312.386719-1.394531.761719-2.105468 1.132813-.359375.152343-.707032.332031-1.035156.535156-10.148438 5.09375-22.117188 8.550781-35.660157 10.289062-.101562.007813-.203125.003906-.308593.015625-.171876.019531-.34375.050781-.515626.082031-6.523437.800782-13.40625 1.210938-20.625 1.210938-7.222656 0-14.101562-.410156-20.628906-1.210938-.171875-.03125-.339844-.0625-.515625-.082031-.101562-.011719-.203125-.007812-.304687-.015625-13.542969-1.738281-25.511719-5.195312-35.664063-10.289062-.328125-.203125-.675781-.382813-1.035156-.535156-7.574219-3.933594-14.109375-8.789063-19.496094-14.546876-12.355469-13.21875-18.300781-30.84375-17.703125-52.449218 0-.0625.003906-.128906.003906-.191406.042969-1.414063.109376-2.84375.207032-4.292969.851562-12.675781 3.738281-25.109375 8.574218-37.054688 27.390626 8.882813 56.503907 13.511719 86.5625 13.511719 30.054688 0 59.167969-4.628906 86.558594-13.511719 4.835938 11.945313 7.722656 24.378907 8.574219 37.054688.785156 11.6875-.257813 22.273437-3.101563 31.695312-.054687.15625-.097656.3125-.140624.472657-2.925782 9.457031-7.679688 17.734374-14.25 24.765624-4.625 4.945313-10.097657 9.230469-16.347657 12.832032zm34.25-.585938c-4.1875 4.1875-9.808593 6.128906-15.335937 5.769532 2.996094-2.414063 5.800781-5.003907 8.390625-7.773438 5.515625-5.898438 9.964843-12.476562 13.394531-19.671875l7.613281 7.613281zm24.667969-24.667968-12.648438-12.648438c1.699219-6.882812 2.636719-14.210938 2.792969-21.980469l10.691407 10.691407c.039062.160156.070312.320312.113281.480468 1.410156 5.484375 4.402343 10.289063 8.585937 13.925782zm48.429688-22.1875c-1.753907 5.085937-6.542969 8.503906-11.921876 8.503906-1.386718 0-2.769531-.234375-4.101562-.691406-2.8125-.96875-8.171875-3.359376-11.136719-5.109376-2.898437-1.710937-4.957031-4.449218-5.792969-7.710937-.097656-.371094-.167968-.746094-.230468-1.117187-.011719-.101563-.03125-.199219-.042969-.296876-.394531-2.8125.160156-5.652343 1.625-8.132812 2.34375-3.964844 6.539063-6.179688 10.859375-6.179688 2.195312 0 4.425781.570313 6.460938 1.773438 1.355468.78125 4.832031 2.367188 6.472656 2.945312 1.945312.671876 3.617187 1.78125 4.953125 3.175782.011719.011718.019531.019531.03125.03125.011719.011718.023437.023437.035156.03125 3.125 3.304687 4.367187 8.1875 2.789063 12.777344zm84.703124-110.945313-82.890624 82.894531c-1.46875-.839844-3.027344-1.558594-4.679688-2.125-.703125-.253906-3.277344-1.421875-3.859375-1.746094-13.101563-7.726562-30.050781-3.359374-37.789063 9.734376-.289062.488281-.558593.988281-.816406 1.488281l-14.554687-14.554688c-1.570313-9.929687-4.265625-19.675781-8.046875-29.144531 36.492187-14.128906 69.519531-36.078125 97.070312-65.03125 6.457032-6.785156 9.410156-15.996094 8.101563-25.277344-.320313-2.269531-.886719-4.464844-1.667969-6.5625l49.71875 49.71875c-.195312.199219-.386719.40625-.585938.605469zm17.136719-31.683594c-1.414062 6.761719-3.90625 13.183594-7.359375 19.054688l-54.25-54.246094c5.875-3.453125 12.296875-5.945313 19.058594-7.359375l14.46875-3.027344c5.097656 7.125 10.148438 13.359375 13.949219 17.15625 3.800781 3.800782 10.035156 8.855469 17.15625 13.949219zm9.3125-44.535156-2.910156 13.910156c-4.136719-3.167969-7.648437-6.125-9.925781-8.402343-2.277344-2.277344-5.234375-5.789063-8.402344-9.925782l13.910156-2.910156c2.960938-.617188 4.933594.972656 5.644532 1.683594.714843.710937 2.300781 2.6875 1.683593 5.644531zm-214.96875 4.394531c4.140625 0 7.5-3.359375 7.5-7.5 0-3.820312 3.105469-6.925781 6.921875-6.925781 3.820313 0 6.929688 3.105469 6.929688 6.925781 0 4.140625 3.355468 7.5 7.5 7.5 4.140625 0 7.5-3.359375 7.5-7.5 0-12.089844-9.835938-21.925781-21.929688-21.925781-12.089844 0-21.925781 9.835937-21.925781 21.925781 0 4.140625 3.359375 7.5 7.503906 7.5zm-144.074219-29.425781c-12.089843 0-21.925781 9.835937-21.925781 21.925781 0 4.140625 3.355469 7.5 7.5 7.5 4.140625 0 7.5-3.359375 7.5-7.5 0-3.820312 3.105469-6.925781 6.925781-6.925781 3.820313 0 6.925782 3.105469 6.925782 6.925781 0 4.140625 3.355468 7.5 7.5 7.5 4.140625 0 7.5-3.359375 7.5-7.5 0-12.089844-9.835938-21.925781-21.925782-21.925781zm261.523438 104.613281-35.109375 35.113282c-2.929687 2.925781-2.929687 7.675781 0 10.605468 1.464844 1.464844 3.382813 2.195313 5.304687 2.195313 1.917969 0 3.835938-.730469 5.300782-2.195313l35.109375-35.109375c2.929687-2.929687 2.929687-7.679687 0-10.609375-2.925781-2.929687-7.675781-2.929687-10.605469 0zm-156.980469-6.300781c2.71875-3.125 2.394531-7.859375-.730469-10.582031-3.121093-2.71875-7.859374-2.394532-10.582031.726562-3.527343 4.050782-8.625 6.375-13.980469 6.375-5.359374 0-10.453124-2.324218-13.984374-6.375-2.722657-3.121094-7.460938-3.445312-10.582032-.726562-3.121094 2.722656-3.449218 7.460937-.726562 10.582031 6.378906 7.320313 15.597656 11.519531 25.292968 11.519531 9.695313 0 18.910157-4.199218 25.292969-11.519531zm-49.238281-30.660156 16.3125 7.253906c4.859375 2.160156 10.40625 2.160156 15.261719 0l16.3125-7.253906c5.878906-2.613281 7.960937-9.914063 4.339843-15.234375-2.675781-3.941406-6.695312-6.777344-11.304687-7.984375-11.132813-2.914063-22.824219-2.914063-33.957031 0-4.609375 1.207031-8.625 4.042969-11.304688 7.984375-3.617187 5.320312-1.539062 12.621094 4.339844 15.234375zm0 0"/></svg>