<svg height="512pt" viewBox="0 -26 512 512" width="512pt" xmlns="http://www.w3.org/2000/svg"><path d="m433.871094 345.664062h-355.742188c-39.007812 0-70.628906-31.621093-70.628906-70.628906v-196.90625c0-39.007812 31.621094-70.628906 70.628906-70.628906h355.742188c39.007812 0 70.628906 31.621094 70.628906 70.628906v196.90625c0 39.007813-31.621094 70.628906-70.628906 70.628906zm0 0" fill="#a3defe"/><path d="m78.128906 7.5c-39.007812 0-70.628906 31.621094-70.628906 70.628906v196.90625c0 39.007813 31.621094 70.628906 70.628906 70.628906h170.734375c-80.121093-74.234374-78.265625-253.941406-43.558593-338.164062zm0 0" fill="#7acefa"/><path d="m467.757812 275.035156h-423.515624v-196.90625c0-18.714844 15.171874-33.886718 33.886718-33.886718h355.742188c18.714844 0 33.886718 15.171874 33.886718 33.886718zm0 0" fill="#fcf2d0"/><path d="m193.660156 44.242188h-115.53125c-18.714844 0-33.886718 15.171874-33.886718 33.886718v196.90625h159.746093c-26.863281-71.339844-26.277343-164.734375-10.328125-230.792968zm0 0" fill="#f6e3a3"/><path d="m433.871094 44.242188h-355.742188c-18.714844 0-33.886718 15.171874-33.886718 33.886718v104.632813h423.515624v-104.632813c0-18.714844-15.171874-33.886718-33.886718-33.886718zm0 0" fill="#8eafe2"/><path d="m193.667969 44.242188h-115.539063c-18.714844 0-33.886718 15.171874-33.886718 33.886718v104.632813h139.992187c-4.210937-48.898438-.1875-98.679688 9.433594-138.519531zm0 0" fill="#6a96d7"/><path d="m156.757812 319.097656c-2.632812 0-5.308593-.519531-7.886718-1.613281-10.265625-4.359375-15.054688-16.214844-10.695313-26.480469 9.992188-23.527344 33.496094-46.632812 55.894531-54.933594 10.457032-3.875 22.078126 1.460938 25.953126 11.917969 3.878906 10.457031-1.457032 22.078125-11.917969 25.953125-11.886719 4.40625-27.191407 19.757813-32.75 32.84375-3.265625 7.691406-10.738281 12.3125-18.597657 12.3125zm0 0" fill="#e9901b"/><path d="m366.125 256.535156c-12.597656 0-23.785156-1.589844-34.378906-3.09375-2.761719-.390625-5.535156-.785156-8.339844-1.152344-11.058594-1.441406-18.855469-11.578124-17.410156-22.636718 1.445312-11.058594 11.578125-18.859375 22.640625-17.410156 2.953125.386718 5.875.800781 8.785156 1.210937 23.972656 3.402344 42.90625 6.089844 75.789063-7.777344 10.273437-4.339843 22.121093.476563 26.453124 10.753907 4.335938 10.277343-.480468 22.121093-10.753906 26.457031-25.101562 10.585937-45.300781 13.648437-62.785156 13.648437zm0 0" fill="#e9901b"/><path d="m284.976562 344.789062c49.386719-8.707031 80.46875-38.484374 68.519532-86.945312-12.019532-48.75-58.890625-81.820312-97.089844-75.085938-38.199219 6.738282-70.9375 53.84375-65.558594 103.765626 5.347656 49.625 44.742188 66.972656 94.128906 58.265624zm0 0" fill="#eea849"/><path d="m126.589844 158.59375c-25.113282-16.347656-35.710938-50.371094-35.75-75.386719-.007813-5.488281 3.878906-10.230469 9.261718-11.292969 26.464844-5.21875 62.148438-4.703124 81.6875 21.050782zm0 0" fill="#4e5660"/><path d="m90.851562 83.964844c.246094 24.9375 10.875 58.441406 35.738282 74.625l34.472656-40.984375c-16.464844-17.558594-42.035156-30.605469-70.210938-33.640625zm0 0" fill="#f2d1a5"/><path d="m370.125 115.648438c18.007812-23.949219 16.332031-59.546876 7.8125-83.066407-1.871094-5.160156-7.144531-8.285156-12.570312-7.441406-26.652344 4.148437-60.003907 16.835937-69.558594 47.71875zm0 0" fill="#4e5660"/><path d="m378.1875 33.296875c8.296875 23.523437 9.765625 58.640625-8.0625 82.351563l-46.410156-26.722657c9.464844-22.128906 29.035156-43.136719 54.472656-55.628906zm0 0" fill="#f2d1a5"/><path d="m236.070312 67.425781c91.925782-16.210937 103.730469 39.175781 163.65625 61.453125 11.332032 4.214844 15.945313 17.777344 9.261719 27.847656-29.277343 44.101563-76.777343 79.914063-141.082031 91.253907-64.304688 11.339843-121.191406-6.070313-163.785156-37.496094-9.726563-7.179687-10.027344-21.503906-.820313-29.335937 48.691407-41.429688 40.839844-97.511719 132.769531-113.722657zm0 0" fill="#eea849"/><path d="m186.105469 84.550781c-41.371094 24.414063-45.453125 64.816407-82.804688 96.597657-9.207031 7.832031-8.90625 22.15625.820313 29.335937 42.59375 31.425781 99.480468 48.835937 163.785156 37.496094 7.382812-1.300781 14.535156-2.941407 21.476562-4.863281-117.390624 4.789062-129.742187-106.035157-103.277343-158.566407zm0 0" fill="#e9901b"/><path d="m408.988281 156.726562c4.179688-6.296874 3.941407-13.964843.402344-19.855468-75.84375 64.273437-113.152344-5.8125-160.625 2.558594-47.472656 8.371093-58.5625 86.992187-151.8125 52.535156-1.3125 6.746094 1.085937 14.027344 7.167969 18.519531 42.59375 31.425781 99.480468 48.835937 163.785156 37.496094 64.304688-11.335938 111.804688-47.152344 141.082031-91.253907zm0 0" fill="#f7ef87"/><path d="m184.171875 186.183594c-19.550781 13.78125-44.9375 21.402344-87.21875 5.78125-1.3125 6.742187 1.082031 14.027344 7.167969 18.519531 42.59375 31.425781 99.480468 48.835937 163.785156 37.496094 7.382812-1.300781 14.535156-2.941407 21.476562-4.863281-58.199218 2.375-90.574218-23.667969-105.210937-56.933594zm0 0" fill="#efd176"/><path d="m198.402344 172.257812c-2.339844-13.265624-17.738282-21.636718-34.394532-18.699218s-28.261718 16.074218-25.921874 29.335937c2.339843 13.265625 17.738281 21.636719 34.394531 18.699219s28.261719-16.070312 25.921875-29.335938zm0 0" fill="#fff"/><path d="m307.328125 153.058594c2.339844 13.265625 17.738281 21.636718 34.394531 18.703125 16.65625-2.9375 28.261719-16.074219 25.921875-29.335938-2.335937-13.265625-17.738281-21.636719-34.390625-18.699219-16.65625 2.933594-28.265625 16.070313-25.925781 29.332032zm0 0" fill="#fff"/><path d="m504.5 275.035156c0 39.007813-31.621094 70.628906-70.628906 70.628906h-355.742188c-39.007812 0-70.628906-31.621093-70.628906-70.628906zm0 0" fill="#4e5660"/><path d="m317.292969 345.664062h-122.589844l-13.929687 68.519532h150.453124zm0 0" fill="#c6c6c6"/><path d="m358.273438 453.273438h-204.546876c-8.179687 0-13.828124-8.199219-10.910156-15.84375 5.335938-13.996094 18.761719-23.246094 33.742188-23.246094h158.882812c14.980469 0 28.40625 9.25 33.746094 23.246094 2.914062 7.644531-2.730469 15.84375-10.914062 15.84375zm0 0" fill="#a3defe"/><path d="m469.078125 453.273438h-54.539063c-8.183593 0-13.832031-8.199219-10.914062-15.84375 5.339844-13.996094 18.765625-23.246094 33.742188-23.246094h8.878906c14.980468 0 28.40625 9.25 33.746094 23.246094 2.914062 7.644531-2.730469 15.84375-10.914063 15.84375zm0 0" fill="#8eafe2"/><path d="m439.9375 414.183594h-2.570312c-14.976563 0-28.402344 9.25-33.742188 23.246094-2.917969 7.644531 2.730469 15.84375 10.914062 15.84375h29.484376c-8.550782-9.464844-11.460938-26.617188-4.085938-39.089844zm0 0" fill="#6a96d7"/><path d="m271.6875 303.382812c-3.851562-8.660156-14-12.554687-22.65625-8.699218-8.660156 3.855468-12.554688 14-8.699219 22.660156 3.851563 8.660156 14 12.554688 22.65625 8.699219 8.660157-3.855469 12.554688-14 8.699219-22.660157zm0 0" fill="#fff"/><path d="m78.128906 345.664062h170.734375c-19.636719-18.195312-34.363281-42.714843-44.875-70.628906h-196.488281c0 39.007813 31.621094 70.628906 70.628906 70.628906zm0 0" fill="#383c43"/><path d="m322.621094 371.871094-5.328125-26.207032h-122.589844l-5.324219 26.207032zm0 0" fill="#9aa3b1"/><path d="m433.871094 0h-336.351563c-4.140625 0-7.5 3.359375-7.5 7.5s3.359375 7.5 7.5 7.5h336.351563c34.808594 0 63.128906 28.320312 63.128906 63.128906v189.40625h-21.742188v-189.40625c0-22.820312-18.566406-41.386718-41.386718-41.386718h-46.722656c-.660157-2.308594-1.378907-4.558594-2.160157-6.714844-3.085937-8.519532-11.824219-13.695313-20.769531-12.296875-22.976562 3.574219-39.082031 10.816406-50.386719 19.011719h-235.703125c-22.820312 0-41.386718 18.566406-41.386718 41.386718v189.40625h-21.742188v-189.40625c0-29.59375 20.105469-54.890625 48.894531-61.519531 4.039063-.929687 6.554688-4.957031 5.625-8.992187-.929687-4.039063-4.957031-6.554688-8.992187-5.625-16.9375 3.902343-32.300782 13.542968-43.265625 27.148437-11.128907 13.8125-17.261719 31.210937-17.261719 48.988281v196.90625c0 43.078125 35.046875 78.128906 78.128906 78.128906h107.398438l-10.890625 53.566407c-17.207031.773437-32.65625 11.835937-38.832031 28.023437-2.25 5.898438-1.453126 12.519532 2.125 17.71875 3.582031 5.195313 9.484374 8.296875 15.796874 8.296875h166.164063c4.140625 0 7.5-3.355469 7.5-7.5 0-4.140625-3.359375-7.5-7.5-7.5h-166.164063c-1.980468 0-3.066406-1.261719-3.441406-1.808593-.375-.542969-1.171875-2.007813-.464844-3.859376 4.203126-11.015624 14.949219-18.417968 26.738282-18.417968h4.195312c.011719 0 .019532.003906.027344.003906.011719 0 .023438-.003906.035156-.003906h150.367188c.011718 0 .023437.003906.035156.003906.007812 0 .019531-.003906.027344-.003906h4.195312c11.789063 0 22.535156 7.402344 26.738282 18.417968.707031 1.851563-.089844 3.316407-.464844 3.859376-.371094.542968-1.457032 1.808593-3.441406 1.808593h-3.382813c-4.140625 0-7.5 3.359375-7.5 7.5s3.359375 7.5 7.5 7.5h3.382813c6.3125 0 12.214843-3.101562 15.796874-8.300781 3.578126-5.195312 4.375-11.820312 2.125-17.714844-6.175781-16.191406-21.625-27.253906-38.832031-28.023437l-10.890625-53.570313h107.398438c43.082031 0 78.128906-35.046875 78.128906-78.128906v-196.902344c0-43.082031-35.046875-78.128906-78.128906-78.128906zm-43.527344 51.742188h43.527344c14.550781 0 26.386718 11.835937 26.386718 26.386718v189.40625h-97.347656c-.144531-1.175781-.316406-2.359375-.511718-3.550781 1.253906.03125 2.496093.050781 3.726562.050781 21.796875 0 42.675781-4.527344 65.699219-14.238281 6.816406-2.875 12.101562-8.234375 14.890625-15.085937 2.785156-6.855469 2.734375-14.382813-.140625-21.195313-2.875-6.816406-8.230469-12.105469-15.085938-14.890625-6.851562-2.789062-14.378906-2.738281-21.195312.136719-14.953125 6.308593-26.828125 9.027343-38.007813 9.714843 16.433594-13.503906 30.90625-29.457031 42.949219-47.597656 4.417969-6.65625 5.535156-14.832031 3.0625-22.429687-2.507813-7.710938-8.320313-13.757813-15.957031-16.597657-7.640625-2.839843-14.496094-6.292968-20.863282-10.089843 9.832032-18.074219 11.71875-40.277344 8.867188-60.019531zm-31.609375 197.09375c-2.589844-8.070313-6.113281-15.824219-10.539063-23.179688 1.453126-.890625 2.894532-1.792969 4.320313-2.714844 19.117187 1.878906 37.582031.621094 63.609375-10.359375 3.121094-1.316406 6.574219-1.339843 9.714844-.0625 3.140625 1.277344 5.597656 3.699219 6.914062 6.824219s1.339844 6.578125.0625 9.71875-3.699218 5.59375-6.824218 6.914062c-21.117188 8.910157-40.140626 13.058594-59.871094 13.058594-2.402344-.003906-4.855469-.070312-7.386719-.199218zm38.378906-112.925782c3.316407 1.234375 5.835938 3.847656 6.917969 7.175782 1.046875 3.21875.574219 6.679687-1.292969 9.492187-31.035156 46.753906-79.382812 78.011719-136.136719 88.015625-12.578124 2.21875-25.113281 3.3125-37.515624 3.3125-43.5625 0-85.363282-13.523438-120.511719-39.457031-2.71875-2.007813-4.347657-5.097657-4.464844-8.480469-.121094-3.496094 1.355469-6.816406 4.050781-9.109375 17.679688-15.042969 28.070313-31.59375 38.117188-47.597656 4.925781-7.84375 9.667968-15.398438 15.078125-22.449219.082031-.105469.167969-.210938.242187-.316406 5.890625-7.632813 12.574219-14.667969 21.132813-20.828125.222656-.140625.441406-.292969.652343-.460938 12.734376-8.996093 29.582032-16.09375 53.988282-20.394531 11.058594-1.949219 20.847656-2.832031 29.65625-2.832031 10.675781 0 19.894531 1.304687 28.148437 3.566406.132813.039063.269531.074219.402344.109375 10.273437 2.863281 19.054687 7.21875 27.269531 12.425781.066406.046875.140625.089844.207032.132813 7.535156 4.792968 14.613281 10.292968 21.957031 16.003906 14.917969 11.605469 30.34375 23.601562 52.101562 31.691406zm-49.335937 131.625h-149.644532c.300782-3.539062.796876-7.066406 1.488282-10.574218 9.691406 1.292968 19.511718 1.953124 29.417968 1.953124 13.277344 0 26.714844-1.175781 40.167969-3.546874 23.496094-4.140626 45.644531-11.703126 65.914063-22.300782 5.054687 8.328125 8.792968 17.234375 11.09375 26.574219.660156 2.671875 1.179687 5.308594 1.5625 7.894531zm-162.945313-13.070312c-.84375 4.332031-1.433593 8.695312-1.757812 13.070312h-20.546875c4.917968-5.390625 10.375-10.296875 16.074218-14.441406 2.070313.488281 4.144532.945312 6.230469 1.371094zm-39.558593-141.066406c-4.167969 5.890624-7.945313 11.910156-11.699219 17.886718-3.210938 5.113282-6.464844 10.285156-9.976563 15.417969-11.765625-11.015625-22.441406-30.171875-24.777344-53.96875 17.074219 3.253906 33.390626 10.511719 46.453126 20.664063zm-40.449219-34.730469c16.976562-2.9375 43.796875-4.355469 62.421875 10.175781-4.761719 4.035156-8.964844 8.300781-12.773438 12.714844-14.09375-10.941406-31.441406-18.917969-49.648437-22.890625zm268.875-34.402344c.0625.25.121093.496094.183593.742187.066407.660157.226563 1.292969.453126 1.890626 5.035156 22.164062 1.546874 42.726562-5.464844 56.554687-5.054688-3.621094-9.882813-7.367187-14.648438-11.074219-5.570312-4.332031-11.183594-8.691406-17.113281-12.800781 8.800781-14.007813 21.65625-26.414063 36.589844-35.3125zm-53.382813 6.324219c.394532-.246094.761719-.53125 1.105469-.84375 13.0625-9.8125 29.679687-14.460938 41.824219-16.644532-15.757813 9.960938-29.328125 23.390626-38.828125 38.492188-5.089844-2.84375-10.496094-5.417969-16.351563-7.578125 3.300782-5.277344 7.519532-9.703125 12.25-13.425781zm-268.574218 27.539062c0-14.550781 11.835937-26.386718 26.386718-26.386718h220.257813c-2.078125 2.761718-3.773438 5.453124-5.136719 7.976562-15.761719-3.390625-34.652344-3.882812-58.484375.320312-23.828125 4.203126-41.414063 11.125-55.066406 19.699219-12.515625-11.089843-37.210938-23.824219-81.046875-15.183593-8.886719 1.753906-15.328125 9.601562-15.3125 18.664062.035156 24.847656 9.777344 56.632812 31.253906 75.601562-4.683594 5.746094-9.945312 11.335938-16.15625 16.617188-6.203125 5.277344-9.597656 12.953125-9.316406 21.054688.277344 7.984374 4.121094 15.285156 10.546875 20.027343 18.855469 13.910157 39.476562 24.496094 61.21875 31.613281-6.53125 5.796876-12.570313 12.394532-17.722657 19.402344h-91.421874zm138.210937 328.554688 10.882813-53.519532h110.328124l10.882813 53.519532zm243.917969-68.519532h-116.515625c-.03125 0-.058594 0-.085938 0h-122.539062c-.027344 0-.054688 0-.082031 0h-116.519532c-32.269531 0-58.945312-24.34375-62.667968-55.628906h131.554687.007813.007812 349.507812c-3.722656 31.285156-30.398437 55.628906-62.667968 55.628906zm12.375 68.519532h-8.878906c-17.96875 0-34.34375 11.28125-40.75 28.070312-2.25 5.898438-1.457032 12.519532 2.125 17.71875 3.582031 5.195313 9.484374 8.296875 15.796874 8.296875h54.539063c6.3125 0 12.214844-3.101562 15.796875-8.296875 3.578125-5.199218 4.371094-11.820312 2.125-17.71875-6.40625-16.789062-22.78125-28.070312-40.753906-28.070312zm26.273437 37.28125c-.375.542968-1.460937 1.808594-3.441406 1.808594h-54.539063c-1.984374 0-3.070312-1.265626-3.445312-1.808594-.375-.542969-1.167969-2.011719-.460938-3.863282 4.203126-11.015624 14.945313-18.414062 26.734376-18.414062h8.878906c11.789062 0 22.535156 7.398438 26.738281 18.414062.707031 1.851563-.089844 3.316407-.464844 3.863282zm-147.984375-335.550782c-4.71875-3.304687-10.445312-4.570312-16.121094-3.570312-11.714843 2.0625-19.566406 13.277344-17.5 24.992188.644532 3.636718 3.808594 6.195312 7.378907 6.195312.429687 0 .871093-.035156 1.308593-.113281 4.082032-.71875 6.804688-4.609375 6.085938-8.6875-.628906-3.570313 1.761719-6.984375 5.332031-7.617188 1.726563-.304687 3.472657.082031 4.910157 1.089844s2.398437 2.515625 2.703124 4.242187c.71875 4.082032 4.609376 6.808594 8.691407 6.085938 4.078125-.71875 6.800781-4.609375 6.082031-8.6875-1-5.675781-4.152344-10.621094-8.871094-13.929688zm-46.339844 78.535157c-3.550781-2.136719-8.160156-.992188-10.296874 2.554687-2.011719 3.339844-5.363282 5.644532-9.1875 6.320313-3.828126.675781-7.765626-.34375-10.800782-2.796875-3.222656-2.601563-7.941406-2.097656-10.546875 1.125-2.601562 3.21875-2.101562 7.941406 1.121094 10.546875 5.109375 4.125 11.433594 6.328125 17.894531 6.328125 1.640625 0 3.292969-.144532 4.933594-.433594 8.101562-1.425781 15.183594-6.292969 19.433594-13.347656 2.140625-3.546875.996094-8.15625-2.550782-10.296875zm-28.0625-4.410157c4.148438 1.035157 8.546876.261719 12.09375-2.132812l11.914063-8.027344c4.292969-2.894531 4.921875-8.96875 1.3125-12.679687-2.675781-2.75-6.253906-4.433594-10.074219-4.746094-9.230468-.753906-18.496094.878906-26.914062 4.742187-3.484375 1.601563-6.269532 4.410157-7.84375 7.910157-2.125 4.722656.542968 10.214843 5.570312 11.464843zm-69.25-55.210937c-11.714843 2.066406-19.5625 13.277344-17.496093 24.992187.640625 3.640626 3.804687 6.199219 7.375 6.199219.433593 0 .871093-.039062 1.3125-.113281 4.078125-.71875 6.800781-4.609375 6.082031-8.6875-.304688-1.730469.082031-3.476562 1.089844-4.914062 1.007812-1.4375 2.515625-2.398438 4.242187-2.703126 1.730469-.308593 3.476563.082032 4.914063 1.089844 1.4375 1.007813 2.398437 2.511719 2.703125 4.242188.71875 4.078125 4.609375 6.804687 8.6875 6.085937s6.800781-4.609375 6.082031-8.691406c-2.066406-11.714844-13.277344-19.5625-24.992188-17.5zm0 0"/></svg>