<svg height="512pt" viewBox="-11 0 512 512.00525" width="512pt" xmlns="http://www.w3.org/2000/svg"><path d="m117.207031 469.558594c-.632812 4.085937 2.945313 7.664062 7.03125 7.03125 19.035157-2.941406 40.308594 5.734375 64.265625-18.222656 14.089844-14.089844 19.636719-41.589844 4.074219-57.148438-15.558594-15.5625-43.058594-10.015625-57.152344 4.074219-23.953125 23.957031-15.273437 45.230469-18.21875 64.265625zm0 0" fill="#4e5660"/><g fill="#e9901b"><path d="m209.140625 504.5c-3.292969 0-6.628906-.867188-9.65625-2.6875-17.433594-10.484375-27.273437-23.429688-29.253906-38.476562-2.265625-17.242188 6.046875-35.382813 25.425781-55.449219 7.199219-7.457031 19.082031-7.667969 26.542969-.464844 7.457031 7.199219 7.664062 19.085937.464843 26.542969-15.4375 15.988281-15.378906 23.195312-15.210937 24.476562.390625 2.960938 4.644531 7.144532 11.382813 11.199219 8.882812 5.34375 11.753906 16.875 6.410156 25.761719-3.523438 5.855468-9.734375 9.097656-16.105469 9.097656zm0 0"/><path d="m282.816406 504.5c-6.367187 0-12.582031-3.242188-16.101562-9.097656-5.34375-8.886719-2.472656-20.417969 6.410156-25.761719 6.738281-4.054687 10.992188-8.238281 11.378906-11.199219.167969-1.28125.230469-8.488281-15.207031-24.476562-7.203125-7.457032-6.992187-19.34375.464844-26.542969s19.339843-6.992187 26.542969.464844c19.375 20.066406 27.691406 38.207031 25.421874 55.449219-1.976562 15.046874-11.820312 27.992187-29.25 38.476562-3.03125 1.820312-6.367187 2.6875-9.660156 2.6875zm0 0"/><path d="m384.503906 372.605469c-30.097656 0-55.132812-11.8125-79.472656-36.5625-7.273438-7.390625-7.171875-19.277344.21875-26.546875 7.390625-7.269532 19.273438-7.171875 26.546875.21875 21.3125 21.671875 41.738281 32.003906 83.0625 20.6875 10-2.738282 20.328125 3.148437 23.066406 13.148437 2.734375 10-3.152343 20.324219-13.148437 23.0625-14.492188 3.96875-27.820313 5.992188-40.273438 5.992188zm0 0"/><path d="m107.453125 372.605469c-12.457031 0-25.773437-2.023438-40.269531-5.992188-10-2.738281-15.886719-13.0625-13.148438-23.0625 2.738282-10 13.0625-15.886719 23.0625-13.148437 41.328125 11.320312 61.75.984375 83.066406-20.6875 7.269532-7.390625 19.15625-7.488282 26.546876-.21875 7.390624 7.269531 7.488281 19.15625.21875 26.546875-24.339844 24.746093-49.378907 36.5625-79.476563 36.5625zm0 0"/></g><path d="m245.980469 440.765625c58.191406 0 99.714843-27.765625 95.824219-85.554687-3.910157-58.132813-50.816407-105.371094-95.824219-105.371094-45.011719 0-91.914063 47.238281-95.828125 105.371094-3.886719 57.789062 37.632812 85.554687 95.828125 85.554687zm0 0" fill="#eea849"/><path d="m102.496094 196.066406c-25.402344-23.742187-30.660156-64.761718-25.664063-93.355468 1.097657-6.273438 6.496094-10.910157 12.863281-11.039063 31.296876-.628906 71.96875 7.152344 89.109376 40.515625zm0 0" fill="#4e5660"/><path d="m76.691406 103.578125c-4.742187 28.550781.652344 68.980469 25.804688 92.484375l47.65625-39.890625c-15.277344-23.382813-41.875-43.445313-73.460938-52.59375zm0 0" fill="#f2d1a5"/><path d="m389.460938 196.066406c25.40625-23.742187 30.664062-64.761718 25.664062-93.355468-1.097656-6.273438-6.492188-10.910157-12.863281-11.039063-31.296875-.628906-71.964844 7.152344-89.105469 40.515625zm0 0" fill="#4e5660"/><path d="m415.265625 103.578125c4.746094 28.550781-.652344 68.980469-25.804687 92.484375l-47.65625-39.890625c15.28125-23.382813 41.875-43.445313 73.460937-52.59375zm0 0" fill="#f2d1a5"/><path d="m245.980469 113.941406c108.320312 0 110.644531 65.671875 174.640625 103.207032 12.101562 7.097656 14.640625 23.527343 4.972656 33.691406-42.34375 44.496094-103.839844 75.855468-179.613281 75.855468-75.773438 0-137.273438-31.359374-179.613281-75.855468-9.671876-10.164063-7.128907-26.59375 4.96875-33.691406 63.996093-37.535157 66.320312-103.207032 174.644531-103.207032zm0 0" fill="#eea849"/><path d="m185.429688 123.445312c-52.195313 19.5625-65.003907 64.910157-114.09375 93.703126-12.097657 7.097656-14.640626 23.527343-4.96875 33.691406 42.339843 44.496094 103.839843 75.855468 179.613281 75.855468 8.699219 0 17.203125-.433593 25.523437-1.234374-135.117187-18.179688-126.902344-147.316407-86.074218-202.015626zm0 0" fill="#e9901b"/><path d="m425.59375 250.839844c6.046875-6.359375 7.316406-15.167969 4.460938-22.609375-99.625 58.164062-128.136719-29.445313-184.074219-29.445313s-84.449219 87.609375-184.074219 29.445313c-2.859375 7.441406-1.589844 16.25 4.460938 22.609375 42.339843 44.496094 103.839843 75.855468 179.613281 75.855468 75.773437 0 137.269531-31.359374 179.613281-75.855468zm0 0" fill="#f7ef87"/><path d="m162.742188 239.199219c-25.117188 11.808593-55.667969 15.402343-100.835938-10.96875-2.859375 7.441406-1.589844 16.25 4.460938 22.609375 42.339843 44.496094 103.839843 75.855468 179.613281 75.855468 8.703125 0 17.207031-.433593 25.523437-1.234374-66.984375-9.011719-98.742187-45.296876-108.761718-86.261719zm0 0" fill="#efd176"/><path d="m181.800781 226.164062c0-15.632812-15.910156-28.300781-35.535156-28.300781-19.628906 0-35.539063 12.667969-35.539063 28.300781 0 15.628907 15.910157 28.296876 35.539063 28.296876 19.625 0 35.535156-12.667969 35.535156-28.296876zm0 0" fill="#fff"/><path d="m381.234375 226.164062c0-15.632812-15.914063-28.300781-35.539063-28.300781-19.628906 0-35.539062 12.667969-35.539062 28.300781 0 15.628907 15.910156 28.296876 35.539062 28.296876 19.625 0 35.539063-12.667969 35.539063-28.296876zm0 0" fill="#fff"/><path d="m7.992188 340.429688 20.003906-61.554688c1.640625-5.058594 7.382812-7.441406 12.15625-5.097656 10.945312 5.371094 20.980468 13.34375 27.242187 19.605468 6.257813 6.261719 14.234375 16.296876 19.605469 27.242188 2.34375 4.769531-.039062 10.511719-5.097656 12.15625l-61.554688 20.003906c-7.621094 2.476563-14.832031-4.738281-12.355468-12.355468zm0 0" fill="#89d47f"/><path d="m36.261719 272.878906c-3.628907.007813-7.058594 2.273438-8.265625 5.996094l-20.003906 61.554688c-2.476563 7.617187 4.734374 14.832031 12.355468 12.355468l36.179688-11.757812c-20.589844-12-25.21875-46.152344-20.265625-68.148438zm0 0" fill="#5ec783"/><path d="m451.335938 274.410156c-19.9375-3.234375-38.722657 10.308594-41.953126 30.246094-3.230468 19.941406 10.3125 38.722656 30.25 41.953125 19.9375 3.234375 38.71875-10.308594 41.949219-30.25 3.234375-19.9375-10.308593-38.71875-30.246093-41.949219zm0 0" fill="#e26e7e"/><path d="m433.644531 275.910156c-14.378906 4.925782-24.722656 18.550782-24.722656 34.597656 0 20.199219 16.375 36.574219 36.574219 36.574219 14.039062 0 26.222656-7.914062 32.351562-19.519531-45.660156 3.949219-54.53125-36.394531-44.203125-51.652344zm0 0" fill="#d9495d"/><path d="m245.980469 43.617188-42.769531-17.332032v42.886719c0 2.859375 1.734374 5.433594 4.382812 6.507813l36.152344 14.648437c1.429687.578125 3.03125.578125 4.464844 0l36.152343-14.648437c2.648438-1.074219 4.382813-3.648438 4.382813-6.507813v-42.886719zm0 0" fill="#8eafe2"/><path d="m203.210938 26.285156v42.886719c0 2.859375 1.734374 5.433594 4.382812 6.507813l36.152344 14.648437c.714844.289063 1.472656.433594 2.230468.433594v-47.144531zm0 0" fill="#6a96d7"/><path d="m286.910156 23.558594-38.390625-15.558594c-1.628906-.660156-3.449219-.660156-5.078125 0l-38.390625 15.558594c-2.453125.992187-2.453125 4.464844 0 5.457031l38.390625 15.558594c1.628906.660156 3.449219.660156 5.078125 0l38.390625-15.558594c2.449219-.992187 2.449219-4.464844 0-5.457031zm0 0" fill="#a3defe"/><path d="m204.777344 82.628906 36.152344 14.648438c1.628906.660156 3.339843.992187 5.050781.992187 1.710937 0 3.421875-.332031 5.046875-.992187l36.152344-14.648438c5.507812-2.230468 9.066406-7.515625 9.066406-13.457031v-42.488281c.007812-.132813.019531-.261719.019531-.398438 0-.328125-.027344-.644531-.066406-.960937-.351563-3.875-2.8125-7.234375-6.472657-8.71875 0 0 0 0-.003906 0l-38.386718-15.554688c-3.457032-1.402343-7.257813-1.398437-10.710938 0l-38.390625 15.554688c-3.960937 1.605469-6.523437 5.40625-6.523437 9.679687v42.886719c0 5.941406 3.558593 11.222656 9.066406 13.457031zm76.46875-13.78125-27.765625 11.253906v-29.445312l27.765625-11.253906zm-35.265625-53.785156 27.695312 11.222656-27.695312 11.226563-27.695313-11.226563zm-35.269531 24.339844 27.769531 11.25v29.449218l-27.769531-11.253906zm12.910156 202.152344 15.230468 6.773437c4.539063 2.015625 9.71875 2.015625 14.253907 0l15.234375-6.773437c5.488281-2.441407 7.429687-9.257813 4.050781-14.226563-2.5-3.679687-6.25-6.328125-10.554687-7.457031-10.398438-2.71875-21.316407-2.71875-31.710938 0-4.304688 1.128906-8.054688 3.777344-10.558594 7.457031-3.378906 4.96875-1.4375 11.785156 4.054688 14.226563zm221.875 24.882812c-24.300782 0-44.070313 19.769531-44.070313 44.070312 0 5.199219.910157 10.183594 2.570313 14.816407-26.265625 5.539062-41.878906.554687-56.5625-11.386719 31.28125-13.242188 59.648437-32.761719 83.59375-57.929688 6.132812-6.445312 8.941406-15.199218 7.699218-24.015624-1.257812-8.949219-6.476562-16.714844-14.308593-21.3125-8.605469-5.042969-16.074219-10.683594-22.863281-16.625 8.703124-10.601563 15.214843-24.003907 18.984374-39.246094.992188-4.019532-1.457031-8.085938-5.480468-9.078125-4.019532-1-8.085938 1.457031-9.082032 5.476562-3.136718 12.679688-8.390624 23.78125-15.351562 32.527344-5.4375-5.496094-10.519531-11.109375-15.539062-16.660156-5.726563-6.332031-11.5-12.710938-17.742188-18.828125 13.40625-15.128906 31.617188-27.371094 51.589844-34.683594.128906 1.574219.238281 3.164062.300781 4.773438.164063 4.140624 3.675781 7.351562 7.792969 7.199218 4.136718-.164062 7.359375-3.65625 7.195312-7.792968-.210937-5.277344-.742187-10.4375-1.558594-15.367188-.011718-.058594-.015624-.117188-.027343-.175781-.042969-.257813-.078125-.519531-.121094-.777344-1.710937-9.792969-10.164063-17.046875-20.101563-17.246094-12.695312-.25-31.671874.761719-50.007812 7.054688-16.773438 5.757812-29.921875 14.792969-39.175781 26.898437-17.351563-7.199218-38.925781-11.683594-67.25-11.683594s-49.898438 4.484376-67.25 11.683594c-9.253907-12.105468-22.402344-21.140625-39.179688-26.898437-18.332031-6.296875-37.308593-7.308594-50.007812-7.054688-9.933594.199219-18.386719 7.453125-20.097657 17.246094-.046874.269531-.089843.546875-.132812.820313-4.742188 28.375.195312 66.34375 21.09375 91.816406-6.789062 5.941406-14.261719 11.578125-22.863281 16.625-7.835938 4.59375-13.050781 12.363281-14.308594 21.3125-1.242187 8.8125 1.5625 17.566406 7.699219 24.015625 23.941406 25.160156 52.304687 44.679687 83.578125 57.921875-13.136719 10.628906-27.277344 15.824218-49.269531 12.667968.410156-3.140624-.082032-6.371093-1.511719-9.28125-4.953125-10.089843-12.816407-21.019531-21.035157-29.238281s-19.148437-16.082031-29.238281-21.035156c-4.242187-2.082031-9.167969-2.226563-13.511719-.386719-4.324218 1.828125-7.632812 5.433594-9.082031 9.898438l-20.003906 61.554687c-2.023437 6.21875-.402344 12.957031 4.21875 17.585938 3.3125 3.308593 7.699219 5.078125 12.207031 5.078125 1.792969 0 3.609375-.28125 5.378906-.855469l23.472657-7.628906c.46875 3.207031 1.527343 6.332031 3.179687 9.230469 3.476563 6.097656 9.117188 10.472656 15.886719 12.328124 15.382813 4.210938 29.203125 6.257813 42.25 6.257813 12.621094 0 24.355469-1.933594 35.589844-5.867187.589843 5.242187 1.601562 10.242187 3.019531 15.003906-6.054688 2.695312-11.5625 6.371094-15.9375 10.746094-9.121094 9.121093-14.878906 18.863281-17.605469 29.777343-1.003906 4.019531 1.441407 8.089844 5.460938 9.09375.609375.152344 1.21875.226563 1.820312.226563 3.363281 0 6.421875-2.277344 7.273438-5.683594 2.074219-8.316406 6.414062-15.566406 13.65625-22.804688 2.996093-3 6.792969-5.542968 11-7.464843 3.003906 5.644531 6.707031 10.867187 11.152343 15.617187 2.667969 2.855469 5.578126 5.503906 8.703126 7.957032-7.421876 12.851562-10.386719 25.476562-8.789063 37.609374.070313.550782.179687 1.09375.269531 1.640626-7.800781 2.488281-15.394531 2.453124-23.347656 2.414062-4.855469-.023438-9.863281-.050781-14.855469.5625.105469-.84375.191407-1.707031.265625-2.609375.339844-4.128906-2.730468-7.75-6.859375-8.089844-4.136719-.335937-7.75 2.734375-8.089843 6.863281-.097657 1.183594-.222657 2.265626-.382813 3.3125-.660156 4.273438.78125 8.664063 3.855469 11.738282 2.582031 2.582031 6.089844 4.011718 9.679687 4.011718.6875 0 1.371094-.050781 2.054688-.160156 4.402343-.679687 9.1875-.660156 14.257812-.628906 8.519531.035156 17.953125.082031 28.046875-3.152344 5.34375 10.664063 14.679688 20.050782 27.929688 28.019532 4.09375 2.460937 8.769531 3.761718 13.523437 3.761718 9.171875 0 17.804688-4.878906 22.53125-12.734375 7.464844-12.414062 3.441407-28.585937-8.972656-36.050781-4.539063-2.730469-6.773437-4.886719-7.625-5.953125.386719-1.378906 1.757813-4.835937 6.445313-10.707031 7.703124 1.128906 15.867187 1.707031 24.460937 1.707031 8.589844 0 16.753906-.578125 24.457031-1.707031 4.6875 5.871094 6.058594 9.328125 6.449219 10.707031-.855469 1.066406-3.089844 3.222656-7.628906 5.953125-6.011719 3.613281-10.257813 9.355469-11.953125 16.167969-1.695313 6.808593-.632813 13.871093 2.980468 19.882812 4.726563 7.855469 13.359376 12.734375 22.53125 12.734375 4.753907 0 9.429688-1.300781 13.523438-3.761718 19.488281-11.722657 30.53125-26.5 32.824219-43.921876 1.59375-12.132812-1.371094-24.757812-8.789063-37.605468 3.125-2.453125 6.03125-5.105469 8.699219-7.957032 11.230469-12.011718 17.859375-26.933593 19.84375-44.515624 11.230469 3.9375 22.964844 5.871093 35.585937 5.871093 13.050782 0 26.871094-2.046875 42.25-6.257812 9.5625-2.617188 16.492188-10.128907 18.625-19.269531.035157 0 .074219.003906.117188.003906 24.300781 0 44.070312-19.773438 44.070312-44.074219 0-24.308594-19.773437-44.078125-44.074218-44.078125zm-43.382813-167.265625c.582031.011719 1.140625.125 1.675781.300781-22.222656 8.148438-42.53125 21.800782-57.5625 38.707032-5.789062-4.789063-12.085937-9.273438-19.140624-13.28125 10.453124-12.074219 32.011718-26.605469 75.027343-25.726563zm-312.265625 0c43.011719-.859375 64.574219 13.660156 75.023438 25.726563-7.054688 4.007812-13.351563 8.492187-19.136719 13.28125-15.035156-16.90625-35.34375-30.558594-57.566406-38.707032.535156-.171875 1.09375-.289062 1.679687-.300781zm-6.882812 14.367187c19.996094 7.3125 38.230468 19.558594 51.652344 34.703126-6.246094 6.121093-12.015626 12.5-17.742188 18.832031-5.007812 5.535156-10.082031 11.140625-15.507812 16.625-12.011719-15.355469-21.054688-40.828125-18.402344-70.160157zm-64.933594 232.113282c-1.171875.378906-1.972656-.191406-2.34375-.5625-.375-.375-.945312-1.175782-.566406-2.34375l20.003906-61.554688c.109375-.339844.332031-.582031.660156-.722656.128906-.054688.296875-.101562.492188-.101562.171875 0 .363281.039062.570312.140624 12.875 6.320313 22.574219 15.511719 25.242188 18.175782 2.667968 2.667968 11.855468 12.367187 18.175781 25.242187.214844.441407.140625.820313.039063 1.0625-.140626.328125-.382813.550781-.722657.660157zm124.640625 9.054687c-.085937 1.246094-.132813 2.472657-.175781 3.695313-10.972656 4.503906-22.480469 6.703125-35.042969 6.703125-11.6875 0-24.214844-1.871094-38.289063-5.726563-5.34375-1.460937-8.726562-6.558594-8.238281-11.894531l23.296875-7.570313c.035156-.011718.070313-.03125.109375-.042968 8.449219 1.796875 16.074219 2.648437 23.035157 2.648437 15.8125 0 28.222656-4.332031 39.214843-11.539062-2.058593 7.773437-3.371093 15.703125-3.910156 23.726562zm-70.875-109.039062c-2.957031-3.109375-4.3125-7.332031-3.710937-11.585938.617187-4.386719 3.1875-8.199219 7.046874-10.464843 23.070313-13.535157 38.21875-30.285157 52.867188-46.484376 7.160156-7.917968 14.058594-15.546874 21.59375-22.488281.226562-.183593.4375-.378906.636719-.582031 8.269531-7.539062 17.328125-14.246094 28.332031-19.582031.46875-.167969.929688-.386719 1.371094-.652344 16.445312-7.695313 37.222656-12.386719 66.046875-12.386719 28.851562 0 49.640625 4.699219 66.09375 12.410156.394531.234376.804687.421876 1.21875.578126 11.050781 5.347656 20.140625 12.070312 28.433593 19.632812.203126.203125.414063.402344.640626.585938 7.535156 6.9375 14.433593 14.570312 21.589843 22.484374 14.648438 16.199219 29.796875 32.953126 52.871094 46.484376 3.859375 2.265624 6.429687 6.078124 7.046875 10.464843.597656 4.253907-.753906 8.476563-3.714844 11.585938-45.117187 47.414062-106.976562 73.527343-174.179687 73.527343-67.207031 0-129.066407-26.113281-174.183594-73.527343zm147.023437 245.867187c-2.0625 3.421875-5.675781 5.464844-9.679687 5.464844-2.03125 0-4.035156-.558594-5.789063-1.617188-15.378906-9.25-24.019531-20.359374-25.683593-33.023437-1.148438-8.714844.996093-17.757813 6.515625-27.492187 6.449218 3.429687 13.546875 6.21875 21.25 8.34375-5.019532 7.753906-5.84375 12.957031-5.414063 16.207031.722657 5.515625 5.753907 11.117187 14.949219 16.648437 5.324219 3.203125 7.054688 10.144532 3.851562 15.46875zm95.472657-29.175781c-1.667969 12.664063-10.308594 23.777344-25.683594 33.023437-1.757813 1.058594-3.761719 1.617188-5.792969 1.617188-4 0-7.617187-2.042969-9.675781-5.464844-1.550781-2.578125-2.007813-5.609375-1.277344-8.53125.726563-2.921875 2.546875-5.382812 5.125-6.9375 9.199219-5.53125 14.226563-11.128906 14.953125-16.644531.425782-3.253906-.398437-8.453125-5.414062-16.207031 7.703125-2.128906 14.800781-4.917969 21.25-8.34375 5.515625 9.730468 7.660156 18.773437 6.515625 27.488281zm3.828125-53.851563c-3.414063 3.648438-7.324219 6.902344-11.699219 9.765626-.136719.082031-.273437.160156-.40625.25-.03125.023437-.0625.050781-.09375.070312-9.167969 5.890625-20.34375 10.054688-33.257813 12.40625-.375.039062-.75.109375-1.121093.203125-7.90625 1.367187-16.445313 2.0625-25.5625 2.0625-9.121094 0-17.660157-.695313-25.570313-2.0625-.367187-.09375-.738281-.164063-1.117187-.199219-12.914063-2.351562-24.089844-6.519531-33.257813-12.410156-.03125-.023438-.058594-.046875-.089844-.070312-.132812-.089844-.269531-.164063-.402343-.246094-4.378907-2.863282-8.292969-6.121094-11.703125-9.769532-12.230469-13.082031-17.679688-30.84375-16.203125-52.792968.78125-11.632813 3.40625-23.046875 7.796875-34.019532 25.5 8.21875 52.585937 12.5 80.546875 12.5 27.957031 0 55.042969-4.28125 80.542969-12.5 4.390624 10.972657 7.015624 22.386719 7.800781 34.019532 1.476562 21.949218-3.976563 39.710937-16.203125 52.792968zm104.675781-49.128906c-14.074219 3.855469-26.597656 5.726563-38.292969 5.726563-12.558594 0-24.070312-2.199219-35.039062-6.703125-.046875-1.222656-.09375-2.449219-.175782-3.695313-.542968-8.042969-1.859374-15.988281-3.925781-23.777343 11.046875 7.207031 23.539063 11.542968 39.410157 11.542968 8.0625 0 17.007812-1.128906 27.066406-3.554687 4.941406 5.847656 11.371094 10.394531 18.703125 13.046875-1.121094 3.53125-3.949219 6.375-7.746094 7.414062zm22.699219-19.796875c-1.925782 0-3.804688-.195312-5.625-.550781-.015625-.003906-.03125-.007812-.046875-.007812-13.324219-2.648438-23.398438-14.425782-23.398438-28.515626 0-16.027343 13.039063-29.070312 29.070313-29.070312s29.074218 13.042969 29.074218 29.070312c0 16.03125-13.042968 29.074219-29.074218 29.074219zm-258.765625-154.859375c-3.125-2.722656-7.863281-2.398437-10.582031.726563-2.316407 2.65625-5.660157 4.183593-9.171876 4.183593-3.515624 0-6.859374-1.527343-9.171874-4.183593-2.722657-3.125-7.460938-3.449219-10.582032-.726563-3.125 2.71875-3.449218 7.457032-.726562 10.582032 5.164062 5.925781 12.628906 9.324218 20.480468 9.324218 7.847657 0 15.3125-3.398437 20.480469-9.324218 2.71875-3.125 2.394531-7.859376-.726562-10.582032zm83.242187 85.789063c2.71875-3.121094 2.394532-7.859375-.726562-10.582031-3.125-2.722657-7.863282-2.394532-10.582032.726562-3.203124 3.675781-7.828124 5.78125-12.683593 5.78125-4.859375 0-9.484375-2.105469-12.683594-5.78125-2.722656-3.121094-7.460937-3.449219-10.582031-.726562-3.125 2.722656-3.449219 7.460937-.726563 10.582031 6.050781 6.941406 14.796875 10.925781 23.992188 10.925781 9.195312 0 17.9375-3.984375 23.992187-10.925781zm55.011719-65.882813c7.851563 0 15.3125-3.398437 20.480469-9.324218 2.71875-3.125 2.394531-7.859376-.726563-10.582032-3.125-2.722656-7.859375-2.398437-10.582031.726563-2.316406 2.65625-5.660156 4.183593-9.171875 4.183593-3.515625 0-6.855469-1.527343-9.171875-4.183593-2.722656-3.125-7.460938-3.449219-10.582031-.726563-3.125 2.71875-3.449219 7.457032-.726563 10.582032 5.164063 5.925781 12.628906 9.324218 20.480469 9.324218zm0 0"/></svg>