<svg id="Capa_1" enable-background="new 0 0 512 512" height="512" viewBox="0 0 512 512" width="512" xmlns="http://www.w3.org/2000/svg"><g><g><circle cx="201.451" cy="245.654" fill="#a586c6" r="54.549"/></g><g><circle cx="310.549" cy="245.654" fill="#a586c6" r="54.549"/></g><g><path d="m146.902 245.654c0-14.436 5.648-27.524 14.804-37.282-9.952-10.605-24.054-17.268-39.745-17.268-30.127 0-54.549 24.423-54.549 54.549 0 30.127 24.423 54.549 54.549 54.549 15.691 0 29.793-6.663 39.745-17.268-9.156-9.756-14.804-22.844-14.804-37.28z" fill="#a586c6"/></g><g><path d="m390.04 191.105c-15.691 0-29.794 6.663-39.745 17.268 9.156 9.757 14.804 22.846 14.804 37.282s-5.648 27.524-14.804 37.281c9.952 10.605 24.055 17.268 39.745 17.268 30.127 0 54.549-24.423 54.549-54.549 0-30.128-24.423-54.55-54.549-54.55z" fill="#a586c6"/></g><g><path d="m257.789 259.294c-.599-.02-1.185-.09-1.789-.09s-1.19.071-1.789.09c-5.921 22.954-26.363 40.019-50.972 40.819-1.127 4.367-1.789 8.921-1.789 13.64 0 30.127 24.423 54.549 54.549 54.549s54.549-24.423 54.549-54.549c0-4.719-.662-9.273-1.789-13.64-24.608-.8-45.049-17.865-50.97-40.819z" fill="#845caf"/></g><g><path d="m203.215 300.114c-.591.019-1.168.089-1.764.089-15.691 0-29.793-6.663-39.745-17.268-9.952 10.605-24.054 17.268-39.745 17.268-4.36 0-8.58-.566-12.644-1.533-1.378 4.795-2.16 9.844-2.16 15.083 0 30.127 24.422 54.549 54.549 54.549 20.148 0 37.701-10.953 47.147-27.201-4.678-8.047-7.402-17.37-7.402-27.348 0-4.717.627-9.281 1.764-13.639z" fill="#845caf"/></g><g><path d="m390.04 300.203c-15.691 0-29.794-6.663-39.745-17.268-9.952 10.605-24.054 17.268-39.745 17.268-.595 0-1.173-.07-1.764-.089 1.136 4.358 1.764 8.922 1.764 13.639 0 9.978-2.724 19.302-7.402 27.348 9.446 16.248 26.999 27.201 47.147 27.201 30.127 0 54.549-24.423 54.549-54.549 0-5.239-.781-10.287-2.16-15.083-4.065.967-8.284 1.533-12.644 1.533z" fill="#845caf"/></g><g><path d="m257.789 232.014c-.599.02-1.185.09-1.789.09s-1.19-.071-1.789-.09c-5.921-22.954-26.363-40.019-50.972-40.819-1.127-4.367-1.789-8.921-1.789-13.64 0-30.127 24.423-54.549 54.549-54.549s54.549 24.423 54.549 54.549c0 4.719-.662 9.273-1.789 13.64-24.608.8-45.049 17.865-50.97 40.819z" fill="#845caf"/></g><g><path d="m203.215 191.194c-.591-.019-1.168-.089-1.764-.089-15.691 0-29.793 6.663-39.745 17.268-9.952-10.605-24.054-17.268-39.745-17.268-4.36 0-8.58.566-12.644 1.533-1.378-4.795-2.16-9.844-2.16-15.083 0-30.127 24.422-54.549 54.549-54.549 20.148 0 37.701 10.953 47.147 27.201-4.678 8.047-7.402 17.37-7.402 27.348 0 4.717.627 9.28 1.764 13.639z" fill="#845caf"/></g><g><path d="m390.04 191.105c-15.691 0-29.794 6.663-39.745 17.268-9.952-10.605-24.054-17.268-39.745-17.268-.595 0-1.173.07-1.764.089 1.136-4.358 1.764-8.922 1.764-13.639 0-9.979-2.724-19.302-7.402-27.348 9.446-16.248 26.999-27.201 47.147-27.201 30.127 0 54.549 24.423 54.549 54.549 0 5.239-.781 10.287-2.16 15.083-4.065-.967-8.284-1.533-12.644-1.533z" fill="#845caf"/></g><g><path d="m208.853 341.101c-9.446 16.248-26.999 27.201-47.147 27.201-4.36 0-8.58-.566-12.644-1.533-1.378 4.795-2.16 9.844-2.16 15.083 0 30.127 24.422 54.549 54.549 54.549s54.549-24.423 54.549-54.549c0-4.719-.662-9.273-1.789-13.64-19.391-.631-36.195-11.35-45.358-27.111z" fill="#a586c6"/></g><g><path d="m350.294 368.302c-20.148 0-37.701-10.953-47.147-27.201-9.163 15.761-25.967 26.48-45.358 27.111-1.127 4.367-1.789 8.921-1.789 13.64 0 30.127 24.422 54.549 54.549 54.549s54.549-24.423 54.549-54.549c0-5.239-.781-10.287-2.16-15.083-4.064.967-8.283 1.533-12.644 1.533z" fill="#a586c6"/></g><g><path d="m257.789 395.492c-.599-.02-1.185-.09-1.789-.09s-1.19.071-1.789.09c-5.921 22.954-26.363 40.019-50.972 40.819-1.127 4.367-1.789 8.921-1.789 13.64 0 30.127 24.423 54.549 54.549 54.549s54.549-24.423 54.549-54.549c0-4.719-.662-9.273-1.789-13.64-24.608-.8-45.049-17.865-50.97-40.819z" fill="#845caf"/></g><g><path d="m203.704 191.15c7.686 9.401 12.296 21.414 12.296 34.503 0 30.127-24.422 54.549-54.549 54.549-.755 0-1.506-.016-2.253-.046 10.003 12.235 25.216 20.046 42.253 20.046 30.127 0 54.549-24.423 54.549-54.549 0-29.371-23.214-53.321-52.296-54.503z" fill="#9373b9"/></g><g><path d="m312.802 191.15c7.686 9.401 12.296 21.414 12.296 34.503 0 30.127-24.423 54.549-54.549 54.549-.755 0-1.506-.016-2.253-.046 10.003 12.235 25.216 20.046 42.253 20.046 30.127 0 54.549-24.423 54.549-54.549.001-29.371-23.214-53.321-52.296-54.503z" fill="#9373b9"/></g><g><path d="m161.706 208.372c-9.952-10.605-24.054-17.268-39.745-17.268-.909 0-1.812.022-2.709.066-7.7 9.397-12.35 21.385-12.35 34.483 0 6.973 1.318 13.631 3.712 19.752 5.72 14.622-3.218 31-18.652 33.878-3.24.604-6.583.92-10 .92-.755 0-1.506-.016-2.253-.046 10.003 12.235 25.216 20.046 42.253 20.046 15.691 0 29.793-6.663 39.745-17.268-9.156-9.757-14.804-22.845-14.804-37.281s5.647-27.525 14.803-37.282z" fill="#9373b9"/></g><g><path d="m392.292 191.15c7.686 9.401 12.296 21.414 12.296 34.503 0 29.218-22.972 53.071-51.84 54.483-.787.96-1.605 1.894-2.454 2.799 9.952 10.605 24.055 17.268 39.745 17.268 30.127 0 54.549-24.423 54.549-54.549.001-29.372-23.214-53.322-52.296-54.504z" fill="#9373b9"/></g><g><path d="m308.761 300.113c-15.971-.519-30.187-7.889-39.818-19.273 1.015 4.145 1.606 8.456 1.606 12.914 0 30.126-24.422 54.549-54.549 54.549-.755 0-1.506-.015-2.253-.046 10.003 12.236 25.216 20.046 42.253 20.046 30.127 0 54.549-24.423 54.549-54.549 0-4.72-.662-9.274-1.788-13.641z" fill="#734d9d"/></g><g><path d="m201.451 313.753c0-4.717.628-9.281 1.764-13.639-.591.019-1.168.089-1.764.089-15.324 0-29.133-6.355-39.04-16.53-.624 3.264-.96 6.631-.96 10.08 0 4.989.681 9.815 1.947 14.399 3.295 11.932-1.736 24.675-12.12 31.414-8.513 5.525-18.662 8.736-29.572 8.736-.755 0-1.506-.015-2.253-.046 10.003 12.236 25.216 20.046 42.253 20.046 20.148 0 37.701-10.953 47.147-27.201-4.679-8.047-7.402-17.37-7.402-27.348z" fill="#734d9d"/></g><g><path d="m402.684 298.67c-4.065.966-8.284 1.533-12.644 1.533-9.1 0-17.665-2.241-25.197-6.192-.139 30.008-24.508 54.291-54.549 54.291-.732 0-1.461-.015-2.187-.043 9.994 12.225 25.164 20.043 42.187 20.043 30.127 0 54.549-24.423 54.549-54.549.001-5.239-.78-10.287-2.159-15.083z" fill="#734d9d"/></g><g><path d="m203.057 190.468c.059.243.12.485.182.727.145.005.29.01.435.016-.203-.249-.409-.497-.617-.743z" fill="#734d9d"/></g><g><path d="m258.253 123.052c7.686 9.401 12.296 21.414 12.296 34.503v.142c-.02 7.089-5.041 13.238-11.959 14.787-14.233 3.185-26.349 11.928-33.966 23.84 14.507 6.823 25.502 19.855 29.587 35.69.599.02 1.185.09 1.789.09s1.19-.071 1.789-.09c5.921-22.954 26.362-40.019 50.972-40.819 1.127-4.367 1.789-8.921 1.789-13.64-.001-29.372-23.215-53.322-52.297-54.503z" fill="#734d9d"/></g><g><path d="m208.853 150.207c-9.103-15.657-25.734-26.397-44.961-27.157.048.059.096.117.143.176 3.019 3.725 3.553 8.829 1.687 13.246-2.74 6.485-4.272 13.6-4.272 21.084 0 4.113.477 8.109 1.353 11.955.19.837-.477 1.597-1.335 1.595-.006 0-.012 0-.018 0-9.153 0-17.766 2.267-25.329 6.262-9.036 4.772-19.738 4.819-28.767.035-.066-.035-.132-.07-.198-.104-.026 5.331.758 10.467 2.159 15.34 4.065-.967 8.284-1.533 12.644-1.533 15.691 0 29.793 6.663 39.745 17.268 9.952-10.605 24.054-17.268 39.745-17.268.595 0 1.173.07 1.764.089-1.136-4.359-1.764-8.922-1.764-13.639.002-9.98 2.725-19.303 7.404-27.349z" fill="#734d9d"/></g><g><path d="m352.547 123.052c7.686 9.401 12.297 21.414 12.297 34.503 0 .754-.016 1.505-.048 2.251-.283 6.634-6.036 11.614-12.671 11.341-.691-.028-1.386-.043-2.085-.043-17.026 0-32.182 7.845-42.194 20.06.933.103 1.797-.06 2.704-.06 15.691 0 29.794 6.663 39.745 17.268 9.952-10.605 24.055-17.268 39.745-17.268 4.36 0 8.58.566 12.644 1.533 1.379-4.795 2.16-9.844 2.16-15.083 0-29.371-23.215-53.321-52.297-54.502z" fill="#734d9d"/></g><g><path d="m254.211 368.212c-15.965-.519-30.176-7.877-39.813-19.257 1.013 4.14 1.602 8.445 1.602 12.897 0 30.127-24.423 54.549-54.549 54.549-.755 0-1.506-.015-2.253-.046 10.003 12.236 25.216 20.046 42.253 20.046 30.127 0 54.549-24.422 54.549-54.549 0-4.719-.662-9.273-1.789-13.64z" fill="#9373b9"/></g><g><path d="m362.939 366.769c-4.065.967-8.284 1.533-12.644 1.533-9.097 0-17.665-2.233-25.197-6.178-.146 30.001-24.512 54.277-54.548 54.277-.755 0-1.506-.015-2.253-.046 10.003 12.236 25.216 20.046 42.253 20.046 30.127 0 54.549-24.422 54.549-54.549-.001-5.239-.782-10.288-2.16-15.083z" fill="#9373b9"/></g><g><path d="m308.761 436.311c-15.971-.519-30.187-7.889-39.818-19.273 1.015 4.145 1.606 8.456 1.606 12.914 0 30.127-24.422 54.549-54.549 54.549-.755 0-1.506-.016-2.253-.046 10.004 12.234 25.216 20.045 42.253 20.045 30.127 0 54.549-24.423 54.549-54.549 0-4.719-.662-9.273-1.788-13.64z" fill="#734d9d"/></g><g><path d="m412.736 7.5h-90.98c17.895 0 33.237 11.141 39.455 26.852h51.525c7.415 0 13.426-6.011 13.426-13.426s-6.011-13.426-13.426-13.426z" fill="#d8f1a0"/></g><g><path d="m321.756 7.5h-24.679c-30.053 0-54.503 24.45-54.503 54.503v62.668c4.295-1.087 8.793-1.665 13.426-1.665s9.13.578 13.425 1.665v-62.668c0-9.057 4.377-17.11 11.126-22.157-.788 3.227-1.207 6.598-1.207 10.065 0 23.385 19.026 42.411 42.411 42.411s42.411-19.026 42.411-42.411-19.025-42.411-42.41-42.411zm0 57.97c-8.579 0-15.559-6.98-15.559-15.559s6.98-15.559 15.559-15.559 15.559 6.98 15.559 15.559-6.98 15.559-15.559 15.559z" fill="#e2f4b4"/></g><g><path d="m159.423 97.22c24.759 6.634 50.096-7.642 56.593-31.887 6.496-24.245-8.308-49.277-33.067-55.911s-85.175 4.603-90.082 22.913c-4.907 18.312 41.797 58.251 66.556 64.885z" fill="#c8ea73"/></g><g><path d="m182.948 9.423c-2.222-.595-4.732-1.047-7.463-1.362 10.178 11.121 14.661 26.856 10.53 42.273-6.283 23.447-30.187 37.57-54.148 32.473 9.831 6.956 19.776 12.329 27.555 14.413 24.759 6.634 50.096-7.642 56.593-31.887 6.497-24.244-8.308-49.276-33.067-55.91z" fill="#b7e445"/></g><path d="m411.53 187.441c6.171-37.554-23.054-71.936-61.236-71.936-18.217 0-35.446 8.135-47.128 21.775-6.957-8.135-15.976-14.456-26.241-18.144v-47.294c8.133 16.558 25.172 27.98 44.83 27.98 30.649 0 54.221-27.535 49.26-57.971h41.72c11.538 0 20.926-9.388 20.926-20.926s-9.387-20.925-20.925-20.925h-11.396c-4.143 0-7.5 3.357-7.5 7.5s3.357 7.5 7.5 7.5h11.396c3.268 0 5.926 2.658 5.926 5.926s-2.658 5.926-5.926 5.926h-46.723c-2.286-4.369-5.199-8.36-8.62-11.852h8.948c4.143 0 7.5-3.357 7.5-7.5s-3.357-7.5-7.5-7.5h-69.265c-33.192 0-62.002 26.563-62.002 62.676l-10.389-2.784c3.053-25.465-13.232-50.597-39.795-57.714-13.127-3.518-35.143-2.721-56.086 2.032-17.566 3.986-39.317 11.765-43.181 26.184-2.508 9.359 2.638 21.199 15.294 35.19 2.778 3.071 7.521 3.31 10.593.531s3.31-7.521.531-10.594c-10.731-11.864-12.548-18.937-11.929-21.245.937-3.499 10.236-10.497 32.011-15.438 18.169-4.124 38.27-5.017 48.885-2.172 18.667 5.003 30.01 22.065 28.974 39.286l-31.524-8.447-13.216-22.891c-2.071-3.588-6.658-4.815-10.245-2.745-3.587 2.071-4.816 6.658-2.745 10.245l5.716 9.901-27.904-7.477c-3.998-1.071-8.114 1.301-9.186 5.303-1.072 4.001 1.302 8.113 5.303 9.186l47.173 12.64-10.968 6.333c-3.587 2.071-4.816 6.658-2.745 10.245 2.081 3.605 6.675 4.806 10.245 2.745l23.958-13.833 12.249 3.282c-7.946 15.827-26.545 24.41-44.728 19.538-6.305-1.689-14.808-6.106-23.943-12.437-3.405-2.358-8.077-1.511-10.436 1.894-2.359 3.404-1.512 8.077 1.893 10.437 7.439 5.154 18.441 11.871 28.604 14.595 26.288 7.048 53.116-6.348 63.315-30.085l14.276 3.825v40.901c-10.076 3.594-19.121 9.787-26.259 18.152-11.682-13.626-28.903-21.752-47.109-21.752-38.206 0-67.402 34.409-61.235 71.936-23.654 8.76-40.559 31.549-40.559 58.213 0 26.663 16.905 49.451 40.559 58.212-4.863 29.597 12.337 57.948 39.745 68.099-5.717 34.798 19.083 67.498 54.095 71.528-3.964 36.031 24.57 68.505 61.689 68.505 37.126 0 65.651-32.482 61.69-68.507 34.862-4.012 59.845-36.595 54.092-71.546 9.19-3.397 17.556-8.951 24.289-16.306 2.797-3.056 2.587-7.8-.468-10.597-3.056-2.797-7.8-2.587-10.597.468-6.234 6.811-14.315 11.585-23.124 13.832-.487.069-.933.18-1.363.326-18.818 4.208-37.907-3.611-48.674-18.886 5.133-10.562 7.078-22.266 5.844-33.49 12.324-1.418 23.562-6.462 32.615-14.035 13.391 11.262 30.203 15.875 46.582 14.068.482 3.4.596 6.875.284 10.494-.355 4.127 2.702 7.761 6.829 8.116 4.181.355 7.765-2.751 8.116-6.829.423-4.923.279-9.983-.585-15.242 23.654-8.76 40.559-31.549 40.559-58.212 0-26.664-16.905-49.452-40.559-58.213zm-61.236-56.935c28.627 0 50.561 25.475 46.592 53.474-16.366-1.806-33.178 2.796-46.582 14.068-9.053-7.573-20.29-12.616-32.614-14.035 1.233-11.217-.708-22.922-5.844-33.489 8.768-12.441 23.151-20.018 38.448-20.018zm-4.999 146.838c-.321.286-.628.612-.903.962-8.856 9.175-21.148 14.56-34.486 14.393-.586-.091-1.19-.112-1.799-.058-24.812-1.274-44.608-21.862-44.608-46.986s19.793-45.711 44.604-46.987c.601.053 1.193.036 1.802-.059 13.326-.167 25.621 5.208 34.487 14.394.283.36.582.674.901.959 16.394 17.957 16.425 45.391.002 63.382zm-48.269 59.422c-.256.362-.478.744-.664 1.141-7.838 13.049-21.822 22.004-37.919 22.832-.613-.055-1.219-.033-1.809.058-.447.006-.854.006-1.285 0-.583-.09-1.183-.111-1.787-.058-27.688-1.42-48.106-26.574-44.118-53.549 20.118-2.599 37.247-14.87 46.556-31.984 9.309 17.114 26.438 29.386 46.556 31.984 1.459 9.87-.333 20.348-5.53 29.576zm-129.422-58.464c-.281-.357-.577-.667-.894-.952-16.4-17.96-16.428-45.402.001-63.392.323-.292.611-.593.893-.951 9.062-9.392 21.647-14.732 35.075-14.386.112.006.225.01.338.011 25.221.829 45.484 21.604 45.484 47.023 0 25.12-19.789 45.705-44.597 46.985-.618-.056-1.23-.034-1.824.059-13.119.184-25.509-5.105-34.476-14.397zm82.47-216.299c0-25.918 21.085-47.003 47.002-47.003h24.68c13.434 0 26.53 7.707 32.52 22.211 8.937 22.805-7.98 47.611-32.52 47.611-21.337 0-37.863-19.124-34.476-40.424 2.982-1.672 6.322-2.547 9.796-2.547h3.074c-5.615 15.003 5.537 31.119 21.606 31.119 12.715 0 23.06-10.345 23.06-23.06s-10.345-23.06-23.06-23.06h-24.68c-19.637 0-35.15 16.043-35.15 35.151v53.784c-3.948-.376-7.935-.372-11.852-.002 0-11.848 0-43.501 0-53.78zm79.741-12.092c0 4.444-3.615 8.06-8.06 8.06s-8.06-3.615-8.06-8.06 3.615-8.06 8.06-8.06 8.06 3.616 8.06 8.06zm-85.689 82.099c.192-.041.382-.089.569-.144 20.229-4.965 41.054 3.872 51.664 21.529.188.402.413.789.672 1.154 4.943 8.781 7.058 19.199 5.525 29.568-20.118 2.599-37.247 14.87-46.556 31.985-9.316-17.127-26.463-29.404-46.6-31.99-1.362-10.332.566-20.606 5.498-29.463.32-.436.59-.903.807-1.392 6.194-10.273 16.275-18.104 28.421-21.247zm-82.42-1.504c15.292 0 29.671 7.573 38.44 20.006-4.988 10.31-7.021 21.857-5.857 33.504-12.316 1.422-23.545 6.464-32.593 14.033-13.389-11.261-30.199-15.875-46.582-14.068-3.97-28.011 17.975-53.475 46.592-53.475zm-86.795 115.148c0-21.9 15.041-40.354 35.334-45.573.381-.048.763-.126 1.143-.235 2.13-.613 6.303-1.241 10.572-1.241 10.875 0 21.119 3.655 29.446 10.404-16.014 21.811-16.015 51.479 0 73.29-8.327 6.749-18.571 10.404-29.446 10.404-4.26 0-8.456-.632-10.572-1.241-.381-.11-.763-.188-1.144-.235-20.293-5.221-35.333-23.674-35.333-45.573zm40.203 61.674c16.373 1.806 33.183-2.799 46.582-14.068 9.053 7.573 20.29 12.617 32.615 14.035-1.233 11.216.708 22.922 5.844 33.49-10.742 15.239-29.779 23.062-48.584 18.917-.51-.181-1.029-.305-1.566-.373-23.113-5.938-38.231-28.437-34.891-52.001zm39.745 68.098c20.988 2.315 40.997-6.247 53.975-21.398 9.754 11.406 23.563 19.245 39.172 21.261 3.999 27.041-16.484 52.129-44.113 53.55-.608-.054-1.211-.032-1.797.058-28.973.395-51.231-25.289-47.237-53.471zm101.141 121.574c-28.825 0-50.671-25.779-46.556-53.611 20.118-2.599 37.247-14.87 46.556-31.985 9.309 17.114 26.438 29.386 46.556 31.985 4.116 27.849-17.745 53.611-46.556 53.611zm101.14-121.58c3.988 28.103-18.16 53.842-47.234 53.477-.586-.091-1.19-.112-1.799-.058-27.625-1.419-48.114-26.506-44.114-53.55 15.609-2.016 29.419-9.855 39.173-21.262 13.2 15.413 33.36 23.696 53.974 21.393zm44.616-84.194c-.563.071-1.088.201-1.59.379-13.475 2.967-28.097-.006-39.572-9.307 16.014-21.811 16.014-51.478 0-73.29 11.449-9.28 26.079-12.278 39.572-9.307.515.183 1.042.31 1.589.379 20.294 5.22 35.334 23.673 35.334 45.573s-15.04 40.353-35.333 45.573z"/></g></svg>