<?xml version="1.0" encoding="iso-8859-1"?>
<!-- Generator: Adobe Illustrator 19.0.0, SVG Export Plug-In . SVG Version: 6.00 Build 0)  -->
<svg version="1.1" id="Layer_1" xmlns="http://www.w3.org/2000/svg" xmlns:xlink="http://www.w3.org/1999/xlink" x="0px" y="0px"
	 viewBox="0 0 511.999 511.999" style="enable-background:new 0 0 511.999 511.999;" xml:space="preserve">
<g>
	<path style="fill:#7C6251;" d="M173.58,397.788l16.63-20.324l-52.075-19.409l-12.608,32.936c0,0-37.778,2.659-37.091,36.361h57.509
		C149.567,402.668,173.58,397.788,173.58,397.788z"/>
	<path style="fill:#7C6251;" d="M377.838,394.926l-4.71-15.614h-53.219l4.121,24.02c-13.737,6.868-25.414,24.02-25.414,24.02h58.039
		C357.801,396.801,377.838,394.926,377.838,394.926z"/>
</g>
<path style="fill:#B99C80;" d="M43.429,235.194l-3.473,35.968l-23.522,13.56c-11.733,6.765-10.287,24.136,2.403,28.867
	l171.372,63.876l-16.629,20.324c0,0-24.013,4.881-27.635,29.563h64.588l25.867-48.039h136.727l4.71,15.614
	c0,0-20.038,1.875-21.183,32.426h66.983l3.435-76.508L247.421,325.59l-90.568-56.615
	C156.853,268.975,133.241,213.434,43.429,235.194z"/>
<polygon style="fill:#A38166;" points="397.714,427.35 423.639,427.35 427.074,350.842 402.843,347.436 "/>
<path style="fill:#A86B38;" d="M472.509,235.194l31.069-10.061l-64.11-35.121l31.219-19.511l-57.42-18.397l10.593-26.759
	l-71.357-1.115l4.154-28.431l-86.102,20.069V84.65l-65.782,41.253V84.649l-46.884,39.023l-7.748-26.201l-47.943,56.305
	l-18.955-26.201L58.714,188.34l-28.431-21.742l13.148,68.596c89.814-21.759,113.425,33.782,113.425,33.782l90.569,56.615
	l179.652,25.253l76.506,13.659l-41.811-49.615h36.793l-26.053-41.253h31.069L472.509,235.194z"/>
<polygon style="fill:#8C4A14;" points="439.469,190.011 470.688,170.5 413.267,152.103 423.86,125.344 397.861,124.938 
	385.027,162.715 420.28,178.604 401.412,187.542 442.625,222.299 427.074,224.575 454.541,264.504 435.673,264.504 452.044,296.778 
	421.77,296.778 453.87,355.627 503.579,364.503 461.768,314.886 498.562,314.886 472.509,273.633 503.579,273.633 472.509,235.194 
	503.579,225.132 "/>
<path style="fill:#B99C80;" d="M105.54,256.909c0,0,34.006-23.971,44.599-24.529c10.593-0.558,12.822,43.483-9.477,51.288"/>
<path style="fill:#A38166;" d="M105.54,256.909c0,0,34.006-23.971,44.599-24.529c10.593-0.558,12.822,43.483-9.477,51.288
	c0,0-13.3-0.216-23.533-6.394C110.651,273.362,105.403,267.06,105.54,256.909z"/>
<path d="M479.873,323.307h18.689c3.067,0,5.892-1.668,7.373-4.354c1.481-2.687,1.383-5.966-0.255-8.56l-17.896-28.339h15.795
	c3.244,0,6.199-1.863,7.598-4.791c1.399-2.928,0.99-6.398-1.05-8.92l-23.367-28.912l19.414-6.286
	c3.198-1.035,5.473-3.874,5.788-7.219c0.315-3.346-1.389-6.559-4.337-8.175l-51.505-28.216l19.03-11.894
	c2.781-1.738,4.298-4.93,3.893-8.182c-0.406-3.253-2.664-5.974-5.786-6.975l-48.848-15.65l7.279-18.389
	c1.017-2.571,0.708-5.477-0.828-7.777c-1.536-2.299-4.103-3.697-6.868-3.74l-61.772-0.965l2.767-18.946
	c0.402-2.755-0.584-5.531-2.632-7.415c-2.051-1.886-4.906-2.635-7.609-2.002l-32.688,7.62c-4.528,1.055-7.344,5.583-6.29,10.111
	c1.056,4.528,5.585,7.344,10.111,6.289l20.662-4.816l-2.367,16.211c-0.351,2.397,0.349,4.828,1.918,6.674
	c1.569,1.844,3.859,2.923,6.281,2.961l59.176,0.925l-6.108,15.432c-0.858,2.167-0.778,4.592,0.218,6.7
	c0.997,2.107,2.822,3.706,5.041,4.417l40.135,12.859l-15.827,9.892c-2.536,1.584-4.04,4.393-3.954,7.381
	c0.085,2.988,1.75,5.706,4.371,7.142l46.988,25.742l-12.496,4.047c-2.638,0.854-4.687,2.952-5.477,5.611
	c-0.789,2.658-0.22,5.535,1.522,7.692l19.987,24.728H472.51c-3.067,0-5.892,1.668-7.373,4.354c-1.481,2.687-1.383,5.965,0.255,8.56
	l17.896,28.339h-21.519c-3.276,0-6.253,1.899-7.635,4.869c-1.381,2.969-0.915,6.472,1.196,8.976l26.805,31.808l-53.58-9.567
	c-0.051-0.009-0.1-0.011-0.15-0.019c-0.053-0.009-0.104-0.022-0.158-0.029l-103.105-14.494c-4.589-0.634-8.862,2.561-9.509,7.165
	c-0.648,4.605,2.561,8.863,7.165,9.509l95.522,13.427l-2.731,60.818h-49.462c2.989-13.434,11.109-15.384,12.58-15.627
	c2.556-0.141,4.719-1.431,6.203-3.527c1.5-2.119,1.739-4.798,0.989-7.283l-4.71-15.615c-1.073-3.555-4.348-5.988-8.061-5.988
	H236.401c-3.097,0-5.945,1.701-7.413,4.427l-23.483,43.612h-47.924c5.947-10.203,17.129-12.773,17.677-12.893
	c1.901-0.386,3.61-1.418,4.839-2.92l16.629-20.324c1.72-2.103,2.32-4.907,1.612-7.529c-0.709-2.622-2.641-4.743-5.187-5.691
	L21.778,305.699c-4.187-1.56-4.818-5.355-4.911-6.481c-0.094-1.126-0.099-4.972,3.772-7.202l23.521-13.561
	c2.359-1.359,3.913-3.775,4.175-6.485l2.888-29.914c23.265-4.912,43.429-4.68,60.241,0.634c-4.267,2.803-8.026,5.398-10.776,7.336
	c-3.801,2.678-4.709,7.931-2.031,11.732c2.681,3.801,7.931,4.71,11.732,2.031c16.356-11.529,31.358-20.05,37.798-22.376
	c1.255,3.801,2.202,12.356-0.303,21.123c-1.402,4.907-4.277,11.177-10.007,13.184c-4.389,1.537-6.702,6.339-5.166,10.728
	c1.215,3.469,4.468,5.641,7.947,5.641c0.922,0,1.861-0.153,2.781-0.475c6.424-2.249,11.294-6.514,14.854-11.808l84.663,52.923
	c1.001,0.625,2.123,1.034,3.291,1.198l41.179,5.788c0.399,0.056,0.793,0.083,1.183,0.083c4.13,0,7.736-3.042,8.326-7.248
	c0.648-4.605-2.561-8.863-7.165-9.509l-39.408-5.539l-85.54-53.472c1.84-8.191,1.851-16.652,0.546-23.273
	c-3.188-16.17-12.791-16.932-15.677-16.786c-4.916,0.258-12.407,3.532-20.247,7.806c-21.593-10.635-48.238-12.868-79.379-6.666
	l-7.363-38.414l10.892,8.328c2.087,1.597,4.8,2.126,7.336,1.432s4.601-2.531,5.586-4.969l18.827-46.642l10.027,13.862
	c1.515,2.094,3.907,3.376,6.488,3.478c2.609,0.11,5.07-0.987,6.743-2.955l12.695-14.909c3.015-3.541,2.589-8.854-0.952-11.869
	c-3.538-3.014-8.854-2.588-11.868,0.952l-5.745,6.748l-12.669-17.514c-1.796-2.481-4.792-3.791-7.84-3.423
	c-3.042,0.37-5.641,2.364-6.789,5.205l-20.389,50.514l-19.65-15.026c-2.774-2.121-6.572-2.311-9.541-0.474
	c-2.97,1.837-4.499,5.316-3.843,8.746l12.92,67.409l-2.939,30.443L12.23,277.427c-8.285,4.774-12.937,13.661-12.143,23.188
	c0.793,9.528,6.852,17.522,15.811,20.861l111.338,41.499l-7.813,20.411c-4.257,0.826-10.434,2.471-16.589,5.679
	c-15.057,7.848-23.16,21.505-22.813,38.456c0.093,4.582,3.834,8.248,8.417,8.248h57.509h64.588c3.097,0,5.945-1.701,7.413-4.427
	l23.483-43.612h71.381l1.941,11.317c-12.884,8.699-22.632,22.886-23.096,23.566c-1.756,2.579-1.941,5.917-0.483,8.675
	c1.459,2.758,4.323,4.482,7.443,4.482h58.039h66.983c4.504,0,8.209-3.543,8.41-8.042l3.004-66.909l67.046,11.97
	c0.495,0.089,0.991,0.131,1.482,0.131c2.969,0,5.768-1.575,7.289-4.21c1.773-3.07,1.431-6.924-0.853-9.635L479.873,323.307z
	 M110.221,404.206c7.696-4.136,15.846-4.815,15.896-4.818c3.266-0.23,6.102-2.332,7.272-5.388l9.625-25.142l33.226,12.384
	l-7.485,9.149c-6.996,2.224-23.526,9.393-29.501,28.54H97.788C99.516,412.603,103.63,407.748,110.221,404.206z M327.795,410.862
	c3.319-1.66,5.162-5.296,4.533-8.955l-2.433-14.177h36.979l0.586,1.944c-7.655,4.201-15.838,13.038-18.428,29.258h-32.107
	C320.292,415.725,324.052,412.733,327.795,410.862z"/>
<path d="M126.938,124.717c3.543,3.016,8.856,2.589,11.868-0.952l7.666-9.003l3.341,11.296c0.804,2.717,2.92,4.846,5.63,5.669
	c2.717,0.825,5.654,0.226,7.831-1.585l33.079-27.532v23.291c0,3.064,1.663,5.885,4.343,7.367c1.271,0.703,2.674,1.053,4.076,1.053
	c1.556,0,3.108-0.431,4.472-1.286l52.89-33.168v16c0,2.57,1.173,4.998,3.185,6.595c2.013,1.597,4.643,2.187,7.145,1.605
	l23.542-5.487c4.528-1.055,7.344-5.583,6.29-10.111c-1.056-4.528-5.583-7.342-10.111-6.289l-13.21,3.079V84.65
	c0-3.064-1.664-5.885-4.343-7.367c-2.68-1.482-5.954-1.392-8.548,0.235l-52.89,33.168V84.649c0-3.266-1.889-6.237-4.845-7.623
	c-2.959-1.385-6.449-0.936-8.96,1.152l-37.052,30.839l-4.121-13.935c-0.877-2.962-3.305-5.208-6.328-5.849
	c-3.025-0.643-6.153,0.424-8.157,2.778l-17.742,20.836C122.972,116.388,123.399,121.703,126.938,124.717z"/>
<path d="M56.635,286.282c0,5.487,4.472,9.952,9.972,9.952c5.498,0,9.972-4.464,9.972-9.952c0-5.487-4.472-9.952-9.972-9.952
	C61.107,276.33,56.635,280.795,56.635,286.282z"/>
<g>
</g>
<g>
</g>
<g>
</g>
<g>
</g>
<g>
</g>
<g>
</g>
<g>
</g>
<g>
</g>
<g>
</g>
<g>
</g>
<g>
</g>
<g>
</g>
<g>
</g>
<g>
</g>
<g>
</g>
</svg>
