<?xml version="1.0" encoding="UTF-8"?>
<svg xmlns="http://www.w3.org/2000/svg" viewBox="0 0 512 512" width="512" height="512"><g id="filled_outline" data-name="filled outline"><path d="M152,488h32l-8-40,26.592-42.547A53.715,53.715,0,0,0,208,360H168l-40,88Z" style="fill:#c7830b"/><polygon points="352 488 320 488 312 472 296 360 344 344 352 488" style="fill:#c7830b"/><path d="M120,216l-30.58-4.369a44.955,44.955,0,0,0-41.461,16.421h0A44.956,44.956,0,0,0,40.97,271.92l.985,2.627A73.021,73.021,0,0,1,32,344h0a64.959,64.959,0,0,0,57.34-13.116h0a70.469,70.469,0,0,0,25.11-48.279Z" style="fill:#c7830b"/><path d="M400,80V68.844A53.9,53.9,0,0,0,376,24h0a53.9,53.9,0,0,0-24,44.844V96l-3.273,4.91A75.773,75.773,0,0,0,336,142.943v30.635a34.423,34.423,0,0,1-15.328,28.641h0c-5.655,3.769-20.3,5.781-27.094,5.781H155.97A79.333,79.333,0,0,0,88.7,245.286h0a79.334,79.334,0,0,0-10.518,57.6l.685,3.427a235.513,235.513,0,0,0,34.979,84.447L120,400l-12.062,36.185a34,34,0,0,0,.687,23.379L120,488h32l-8-40,20.686-41.373A61.076,61.076,0,0,0,168,360H294.111A75.779,75.779,0,0,0,328,352h0l16,112,8,24h40V464l-16-16V360l26.97-23.117a98.894,98.894,0,0,0,33.772-62.822h0a98.907,98.907,0,0,1,19.016-47.072L464,216l8.845-11.793A75.78,75.78,0,0,0,488,158.741V129.889A75.779,75.779,0,0,0,480,96h0V68.844A53.9,53.9,0,0,0,456,24h0a53.9,53.9,0,0,0-24,44.844V80h0a35.778,35.778,0,0,0-32,0Z" style="fill:#d78e0c"/><path d="M320,192h0a163.882,163.882,0,0,0,115.882,48H448v32H426.106A163.88,163.88,0,0,1,312.4,226.132L293.578,208Z" style="fill:#ea2b2d"/><path d="M488,68.844a61.773,61.773,0,0,0-27.562-51.5,8,8,0,0,0-8.876,0A61.773,61.773,0,0,0,424,68.844v.134a44.171,44.171,0,0,0-16,0v-.134a61.773,61.773,0,0,0-27.562-51.5,8,8,0,0,0-8.876,0A61.773,61.773,0,0,0,344,68.844V93.578l-1.93,2.894A83.516,83.516,0,0,0,328,142.943v30.635a26.382,26.382,0,0,1-3.011,12.2,7.983,7.983,0,0,0-9.133-.622L291.345,200H155.97a87.4,87.4,0,0,0-36.357,7.864l-29.061-4.152a52.956,52.956,0,0,0-57.073,71.017l.986,2.627A64.735,64.735,0,0,1,25.6,339.2a8,8,0,0,0,4.46,12.561,73.1,73.1,0,0,0,51.688-6.241A242.664,242.664,0,0,0,107.187,395.2l3.986,5.981-10.824,32.473a42.056,42.056,0,0,0,.848,28.88l11.375,28.436A8,8,0,0,0,120,496h64a8,8,0,0,0,7.845-9.569l-7.377-36.885,24.908-39.853A61.488,61.488,0,0,0,218.1,368h70.966L304.08,473.131a8,8,0,0,0,.765,2.447l8,16A8,8,0,0,0,320,496h72a8,8,0,0,0,8-8V464a8,8,0,0,0-2.343-5.657L384,444.687V363.68l24.177-20.723A106.663,106.663,0,0,0,443.945,280H448a8,8,0,0,0,8-8V241.175a90.991,90.991,0,0,1,6.158-9.385l17.087-22.783A84.3,84.3,0,0,0,496,158.741V129.889a84.236,84.236,0,0,0-8-35.726ZM70.333,304.46l.686,3.425q2.257,11.29,5.541,22.227a57.227,57.227,0,0,1-31.24,7.767,80.6,80.6,0,0,0,4.125-66.142l-.985-2.626a36.956,36.956,0,0,1,39.829-49.56l10.717,1.531a87.907,87.907,0,0,0-17.094,19.964A87.01,87.01,0,0,0,70.333,304.46Zm125.475,96.753L169.216,443.76a8,8,0,0,0-1.061,5.809L174.241,480H158.559l-6.176-30.877,19.459-38.918a68.565,68.565,0,0,0,6.375-42.2h23.639A45.542,45.542,0,0,1,195.808,401.213ZM324.944,480l-5.208-10.417L305.118,367.256a84.6,84.6,0,0,0,16.426-3.882L336.08,465.131a8.083,8.083,0,0,0,.33,1.4L340.9,480Zm72.821-149.191-26.971,23.117A8,8,0,0,0,368,360v88a8,8,0,0,0,2.343,5.657L384,467.314V480H357.766l-5.949-17.845-15.9-111.286a8,8,0,0,0-11.5-6.024A68.118,68.118,0,0,1,294.111,352H168a8,8,0,0,0-7.59,10.53,52.725,52.725,0,0,1-2.879,40.52l-20.686,41.372a8.006,8.006,0,0,0-.69,5.147L142.241,480H125.416l-9.363-23.407a26.035,26.035,0,0,1-.525-17.879L127.59,402.53a8.005,8.005,0,0,0-.934-6.968l-6.157-9.236a226.39,226.39,0,0,1-33.791-81.579l-.686-3.425A71.333,71.333,0,0,1,155.97,216H290.351l16.494,15.893A171.067,171.067,0,0,0,426.106,280h1.538A90.679,90.679,0,0,1,397.765,330.809ZM440,264H426.106a155.148,155.148,0,0,1-108.16-43.629l-11.328-10.915,12.26-7.424a170.671,170.671,0,0,0,117,45.968H440Zm40-105.259a68.194,68.194,0,0,1-13.556,40.666l-17.087,22.782A107.258,107.258,0,0,0,442.824,232h-6.942a154.7,154.7,0,0,1-98.768-35.263A42.391,42.391,0,0,0,344,173.578V142.943a67.569,67.569,0,0,1,11.383-37.6l3.273-4.91A8,8,0,0,0,360,96V68.844a45.791,45.791,0,0,1,16-34.827,45.791,45.791,0,0,1,16,34.827V80a8,8,0,0,0,11.578,7.155,27.917,27.917,0,0,1,24.844,0A8,8,0,0,0,440,80V68.844a45.791,45.791,0,0,1,16-34.827,45.791,45.791,0,0,1,16,34.827V96a7.994,7.994,0,0,0,.845,3.578A68.138,68.138,0,0,1,480,129.889Z"/><circle cx="386" cy="122" r="10"/><circle cx="442" cy="122" r="10"/><path d="M434.53,184.411l-8.821-2.941a14.175,14.175,0,0,1-8.953-8.9l10.822-5.411a8,8,0,0,0,3.577-10.733l-8-16A8,8,0,0,0,416,136H400a8,8,0,0,0-7.155,4.422l-8,16a8,8,0,0,0,3.577,10.733l10.822,5.411a14.175,14.175,0,0,1-8.953,8.9l-8.821,2.941a8,8,0,1,0,5.06,15.178l8.822-2.94A30.17,30.17,0,0,0,408,188.487a30.17,30.17,0,0,0,12.648,8.162l8.822,2.94a8,8,0,1,0,5.06-15.178ZM408,159.056l-5.267-2.634L404.944,152h6.112l2.211,4.422Z"/><path d="M420.422,200.845a27.917,27.917,0,0,1-24.844,0,8,8,0,0,0-7.156,14.31,43.989,43.989,0,0,0,39.156,0,8,8,0,1,0-7.156-14.31Z"/></g></svg>
