<svg id="Capa_1" enable-background="new 0 0 512 512" height="512" viewBox="0 0 512 512" width="512" xmlns="http://www.w3.org/2000/svg"><g><g><g><path d="m181.118 464.291 15.916-6.122-19.712-103.478h51.897l4.591 123.092c.342 9.162-6.994 16.776-16.162 16.776h-31.314c-8.882 0-16.028-7.432-15.559-16.417.325-6.233 4.517-11.61 10.343-13.851z" fill="#e38523"/></g><g><path d="m371.37 272.174v64.694l34.591 51.022c3.666 5.408 4.493 12.254 2.22 18.379l-30.322 81.7c-1.47 3.962-5.251 6.591-9.477 6.591h-28.349c-10.049 0-18.195-8.146-18.195-18.195 0-10.049 8.146-18.195 18.195-18.195h8.087l13.141-37.401c-33.132-16.014-57.215-39.569-72.248-57.648-12.093-14.543-18.729-32.843-18.729-51.757v-39.19z" fill="#e38523"/></g><g><path d="m94.491 478.144c.326-6.234 4.517-11.611 10.344-13.852l15.916-6.121.416-314.374 154.919 59.882c18.601 7.19 38.37 10.878 58.312 10.878h71.376c33.497 0 60.651 27.154 60.651 60.651v61.662l34.591 51.022c3.666 5.408 4.493 12.254 2.22 18.379l-30.322 81.7c-1.47 3.962-5.251 6.591-9.477 6.591h-28.349c-10.049 0-18.195-8.146-18.195-18.195 0-10.049 8.146-18.195 18.195-18.195h8.087l13.141-37.401c-33.132-16.014-57.215-39.569-72.248-57.648-4.584-5.513-8.38-11.568-11.332-17.989h-19.066c-19.95 0-39.777 3.008-58.876 8.771-40.106 12.102-73.343 17.222-125.322 18.879l-9.957 107.103c-.773 8.316-7.752 14.677-16.104 14.677h-33.361c-8.882-.004-16.029-7.436-15.559-16.42z" fill="#e9a761"/></g><g><path d="m501.017 387.89-34.591-51.022v-61.662c0-33.497-27.154-60.651-60.651-60.651h-24.287c33.497 0 60.651 27.154 60.651 60.651v53.788c0 5.131 1.539 10.145 4.419 14.392l30.173 44.505c3.666 5.408 4.493 12.254 2.22 18.379l-30.322 81.7c-1.47 3.962-5.251 6.591-9.477 6.591h24.287c4.226 0 8.006-2.629 9.477-6.591l30.322-81.7c2.272-6.126 1.445-12.972-2.221-18.38z" fill="#e69642"/></g></g><g><g><path d="m126.067 347.377c-2.66 4.349-8.779 5.018-12.222 1.258-23.187-25.319-21.434-66.353-21.434-66.353v-55.142c0-15.209-3.829-30.173-11.135-43.512l-9.082-16.583v-84.911c0-35.73 28.965-64.694 64.694-64.694h45.449c38.3 0 71.347 26.867 79.165 64.36l22.774 109.219c2.008 9.629-3.205 19.305-12.351 22.925l-47.08 18.634c-24.462 9.682-45.113 27.054-58.839 49.497z" fill="#b36d3c"/></g></g><g><path d="m284.277 191.019-22.774-109.219c-5.748-27.565-25.14-49.369-50.222-58.993 11.07 10.893 19.081 25.016 22.436 41.107l22.774 109.219c2.008 9.629-3.205 19.305-12.351 22.925l-47.08 18.634c-24.462 9.682-45.113 27.054-58.839 49.497l-38.014 62.154c3.136 7.83 7.518 15.609 13.638 22.292 3.443 3.76 9.562 3.091 12.222-1.258l39.94-65.302c13.727-22.443 34.378-39.815 58.839-49.497l47.08-18.634c9.145-3.62 14.359-13.296 12.351-22.925z" fill="#995e34"/></g><g><path d="m125.208 173.782c-19.916 3.242-39.873-6.737-39.873-6.737h-46.511c-6.643 0-12.551-4.224-14.7-10.509l-.558-1.631c-1.302-3.809-4.032-6.964-7.615-8.8-5.188-2.658-8.451-7.997-8.451-13.826v-20.589c0-6.268 3.767-11.922 9.551-14.337l87.871-36.684c4.42-1.845 9.161-2.795 13.95-2.795 19.999 0 36.211 16.212 36.211 36.211v44.044c.001 17.555-12.548 32.833-29.875 35.653z" fill="#e9a761"/></g><g><path d="m118.873 57.874c-3.619 0-7.211.544-10.657 1.606 14.781 4.56 25.522 18.328 25.522 34.606v44.044c0 16.92-11.659 31.72-28.016 35.294 5.982 1.036 12.735 1.458 19.486.359 17.327-2.82 29.876-18.099 29.876-35.654v-44.044c0-19.999-16.212-36.211-36.211-36.211z" fill="#e69642"/></g><g><path d="m511.999 399.09c0-.006.001-.012.001-.018v-131.924c0-33.135-26.957-60.092-60.092-60.092l-69.07.004c-4.143 0-7.5 3.357-7.5 7.5s3.357 7.5 7.5 7.5h22.941c29.307 0 53.15 23.843 53.15 53.151v61.661c0 1.501.45 2.967 1.293 4.209l34.59 51.011c2.307 3.4 2.83 7.723 1.396 11.57l-30.321 81.701c-.377 1.017-1.365 1.699-2.459 1.699h-28.34c-5.895 0-10.691-4.8-10.691-10.699 0-2.859 1.109-5.543 3.116-7.549 2.031-2.026 4.722-3.142 7.574-3.142h8.09c3.184 0 6.021-2.01 7.076-5.014l13.141-37.401c1.266-3.602-.376-7.579-3.814-9.239-32.39-15.648-55.806-38.922-69.752-55.698-4.11-4.934-7.568-10.425-10.276-16.32-.009-.02-.022-.036-.031-.056-4.433-9.667-6.682-19.954-6.682-30.58v-18.973c0-4.143-3.357-7.5-7.5-7.5s-7.5 3.357-7.5 7.5v18.973c0 8.997 1.343 17.792 3.992 26.267h-8.155c-20.509 0-41.048 3.059-61.047 9.09-37.749 11.391-68.632 16.357-114.899 18.254l2.889-31.076c.383-4.124-2.649-7.778-6.773-8.162-4.123-.388-7.779 2.65-8.162 6.773l-13.626 146.672c-.421 4.492-4.141 7.88-8.653 7.88h-33.36c-2.24 0-4.322-.896-5.863-2.522-1.537-1.621-2.317-3.751-2.196-6.014.16-3.112 2.388-6.021 5.541-7.233l15.92-6.12c2.894-1.113 4.805-3.892 4.809-6.991l.04-31.62c.005-4.143-3.348-7.505-7.491-7.51-.003 0-.006 0-.009 0-4.138 0-7.495 3.352-7.5 7.49l-.034 26.476-11.121 4.275c-8.729 3.359-14.67 11.393-15.135 20.449-.342 6.399 1.892 12.48 6.29 17.118 4.338 4.576 10.443 7.201 16.749 7.201h33.36c9.661 0 17.969-5.711 21.654-14.093 1.066 2.52 2.589 4.855 4.537 6.906 4.336 4.567 10.437 7.187 16.735 7.187h31.316c6.492 0 12.548-2.575 17.052-7.25 4.503-4.675 6.85-10.823 6.607-17.31l-3.838-102.821c14.976-2.259 29.202-5.252 43.878-9.159.623.805 1.244 1.613 1.895 2.397 9.354 11.242 19.622 21.587 30.521 30.745 1.406 1.182 3.118 1.758 4.821 1.758 2.139 0 4.263-.91 5.746-2.675 2.664-3.172 2.254-7.902-.917-10.567-9.334-7.844-18.174-16.631-26.325-26.133 18.553-5.583 37.591-8.415 56.59-8.415h14.399c2.876 5.453 6.305 10.579 10.225 15.284 5.047 6.072 11.281 12.948 18.648 20.035l2.807 4.133c2.304 3.405 2.824 7.73 1.391 11.579l-30.304 81.683c-.384 1.026-1.37 1.716-2.455 1.716h-28.35c-5.895 0-10.691-4.8-10.691-10.699 0-2.859 1.109-5.543 3.116-7.549 2.031-2.026 4.722-3.142 7.574-3.142h8.09c3.184 0 6.021-2.01 7.076-5.014l13.14-37.401c1.266-3.603-.377-7.58-3.815-9.24-4.528-2.187-9.115-4.645-13.633-7.307-3.565-2.103-8.165-.916-10.269 2.653-2.104 3.568-.916 8.166 2.653 10.269 2.89 1.704 5.809 3.331 8.729 4.866l-9.195 26.173h-2.775c-6.852 0-13.303 2.67-18.174 7.526-4.847 4.848-7.517 11.299-7.517 18.164 0 14.171 11.524 25.699 25.691 25.699h28.35c7.309 0 13.943-4.607 16.512-11.482l30.307-81.69c.509-1.366.893-2.762 1.178-4.172 9.11 7.025 19.327 13.813 30.675 19.781l-9.195 26.172h-2.775c-6.852 0-13.303 2.67-18.174 7.526-4.847 4.848-7.517 11.299-7.517 18.164 0 14.171 11.525 25.699 25.691 25.699h28.34c7.334 0 13.973-4.613 16.522-11.481l30.318-81.692c1.179-3.167 1.748-6.489 1.729-9.794zm-343.509 65.37 7.243-78.04 12.764 66.999-10.068 3.874c-3.98 1.528-7.372 4.036-9.939 7.167zm57.827 13.6c.089 2.378-.771 4.631-2.42 6.344-1.65 1.713-3.869 2.656-6.249 2.656h-31.316c-2.238 0-4.318-.894-5.858-2.515-1.541-1.623-2.326-3.759-2.209-6.014.165-3.166 2.338-6.006 5.544-7.236l15.921-6.126c3.385-1.303 5.353-4.841 4.674-8.403l-14.737-77.354c11.694-.656 22.53-1.556 32.865-2.749zm247.611-143.492v-59.358c0-21.477-9.997-40.654-25.57-53.155h3.549c24.863 0 45.092 20.229 45.092 45.092v101.444z"/><path d="m108.312 353.694c1.451 1.586 3.179 2.813 5.076 3.643l-.042 34.204c-.005 4.143 3.349 7.505 7.491 7.51h.009c4.138 0 7.495-3.352 7.5-7.49l.044-35.879c1.604-1.164 2.999-2.63 4.074-4.388l39.941-65.3c12.796-20.924 32.401-37.416 55.203-46.44l47.081-18.641c3.747-1.484 7.006-3.704 9.667-6.435 16.212 5.027 33.018 7.581 50.042 7.581h13.441c4.143 0 7.5-3.357 7.5-7.5s-3.357-7.5-7.5-7.5h-13.441c-14.537 0-28.901-2.045-42.808-6.07.793-3.692.846-7.594.031-11.5l-22.772-109.222c-4.133-19.815-15.059-37.758-30.766-50.528-15.708-12.769-35.505-19.801-55.747-19.801h-45.451c-34.89 0-64.628 25.018-70.946 58.877l-51.777 21.616c-8.603 3.591-14.162 11.936-14.162 21.258v20.589c0 8.534 4.642 16.257 12.135 20.281.053.031.108.06.162.09.079.042.154.089.233.13 1.862.954 3.261 2.571 3.939 4.552l.558 1.631c3.187 9.32 11.947 15.583 21.798 15.583h28.925l6.949 12.689c6.684 12.197 10.217 25.997 10.217 39.906v54.997c-.125 3.486-1.052 44.874 23.396 71.557zm28.574-328.755h45.451c34.563 0 64.771 24.557 71.828 58.39l22.771 109.223c1.267 6.068-2.002 12.131-7.77 14.415l-47.079 18.64c-25.807 10.213-47.995 28.879-62.479 52.561l-39.941 65.301c-.098.157-.275.114-.292.096-20.755-22.652-19.482-60.592-19.466-60.962.004-.107.007-.214.007-.321v-55.141c0-16.421-4.171-32.713-12.062-47.113l-2.643-4.826c5.637 2.353 17.954 6.727 31.726 6.726 3.105 0 6.287-.223 9.477-.742 20.959-3.411 36.171-21.519 36.171-43.056v-44.045c0-24.103-19.609-43.711-43.712-43.711-5.811 0-11.476 1.135-16.84 3.374l-18.478 7.714c8.348-21.54 29.296-36.523 53.331-36.523zm-105.666 129.17-.558-1.631c-.131-.382-.294-.747-.443-1.119l.985-.162c4.087-.672 6.856-4.53 6.183-8.617-.672-4.088-4.529-6.862-8.618-6.184l-11.131 1.831c-1.659-1.5-2.638-3.637-2.638-5.948v-20.589c0-3.252 1.939-6.162 4.94-7.415l87.871-36.685c3.523-1.47 7.244-2.216 11.061-2.216 15.832 0 28.712 12.88 28.712 28.711v44.044c0 13.917-10.137 26.063-23.58 28.251-17.19 2.795-35.149-5.961-35.314-6.043-1.042-.521-2.189-.792-3.354-.792h-46.512c-3.437 0-6.492-2.184-7.604-5.436z"/><path d="m228.542 128.706c4.142 0 7.5-3.357 7.5-7.5v-10.108c0-4.143-3.358-7.5-7.5-7.5s-7.5 3.357-7.5 7.5v10.108c0 4.143 3.358 7.5 7.5 7.5z"/><path d="m201.894 161.405c4.142 0 7.5-3.357 7.5-7.5v-10.108c0-4.143-3.358-7.5-7.5-7.5s-7.5 3.357-7.5 7.5v10.108c0 4.142 3.358 7.5 7.5 7.5z"/><path d="m150.664 202.001c-4.142 0-7.5 3.357-7.5 7.5v10.108c0 4.143 3.358 7.5 7.5 7.5s7.5-3.357 7.5-7.5v-10.108c0-4.143-3.358-7.5-7.5-7.5z"/><path d="m125.048 239.76c-4.142 0-7.5 3.357-7.5 7.5v10.108c0 4.143 3.358 7.5 7.5 7.5s7.5-3.357 7.5-7.5v-10.108c0-4.143-3.358-7.5-7.5-7.5z"/></g></g></svg>