<svg id="Layer_1" enable-background="new 0 0 511.715 511.715" height="512" viewBox="0 0 511.715 511.715" width="512" xmlns="http://www.w3.org/2000/svg"><g><g><path d="m109.968 409.529-19.994-54.415-52.095 25.434 24.339-52.616-54.821-18.852 54.415-19.994-25.433-52.095 52.615 24.34 18.852-54.822 19.994 54.416 52.095-25.434-24.34 52.615 54.822 18.853-54.416 19.994 25.434 52.095-52.615-24.34z" fill="#ffee80"/><path d="m192.678 27.374 35.175 16.721 13.05-36.696 13.05 36.696 35.175-16.721-16.72 35.176 36.696 13.049-36.696 13.05 16.72 35.175-35.175-16.72-13.05 36.696-13.05-36.696-35.175 16.72 16.72-35.175-36.696-13.05 36.696-13.049z" fill="#ffee80"/><g><g><g><g><path d="m336.74 377.489 40.634-40.614 120.243 120.193c9.04 9.034 9.04 23.657 0 32.691l-7.836 7.839c-9.073 9.067-23.808 9.067-32.881 0z" fill="#555887"/><path d="m497.617 457.068-120.243-120.193-40.634 40.614.294.294 19.903-19.894 120.243 120.193c6.619 6.614 8.37 16.218 5.297 24.437 2.652-1.131 5.141-2.76 7.303-4.921l7.836-7.84c9.041-9.033 9.041-23.656.001-32.69z" fill="#4b4d82"/><path d="m376.769 337.484-39.418 39.389c-4.084 4.081-10.706 4.081-14.79 0l-14.044-14.034c-4.081-4.078-4.081-10.689 0-14.767l39.418-39.389c4.084-4.081 10.706-4.081 14.79 0l14.044 14.034c4.081 4.078 4.081 10.689 0 14.767z" fill="#8384bd"/></g></g></g><path d="m55.03 17.023c-9.13 8.829-11.052 22.266-5.672 33.042-10.643-5.686-24.175-4.178-33.305 4.651-11.298 10.924-11.572 28.91-.611 40.172 24.614 25.289 87.05 9.768 87.05 9.768s18.67-60.487-7.159-87.025c-10.961-11.261-29.006-11.534-40.303-.608z" fill="#555887"/><g><path d="m95.332 17.631c-10.96-11.261-29.005-11.534-40.302-.608-4.05 3.916-6.674 8.741-7.879 13.836 7.297.108 14.552 2.991 20.034 8.624 15.942 16.379 15.467 47.49 12.768 68.913 13.044-1.38 22.54-3.74 22.54-3.74s18.669-60.487-7.161-87.025z" fill="#4b4d82"/></g></g></g><g><path d="m212.855 299.866-46.965-16.149 20.852-45.077c2.903-6.273-3.888-12.92-10.098-9.888l-44.629 21.789-17.129-46.618c-2.384-6.487-11.883-6.393-14.133.147l-16.15 46.966-45.076-20.852c-6.272-2.899-12.921 3.885-9.888 10.097l21.789 44.631-46.618 17.128c-6.488 2.384-6.387 11.885.148 14.133l46.965 16.149-20.851 45.078c-2.904 6.273 3.887 12.918 10.097 9.888l44.631-21.789 17.128 46.618c2.357 6.412 11.889 6.375 14.133-.147l16.15-46.966 45.076 20.852c6.272 2.905 12.92-3.888 9.888-10.097l-21.789-44.631 46.618-17.129c6.487-2.385 6.387-11.885-.149-14.133zm-59.44 20.047c-4.445 2.213-5.829 5.656-4.152 10.33l16.181 33.144-33.475-15.484c-4.707-1.578-8.121-.122-10.241 4.367l-11.993 34.878-12.72-34.62c-1.547-4.205-6.544-6.002-10.33-4.152l-33.145 16.18 15.484-33.476c1.578-4.708.122-8.122-4.368-10.241l-34.876-11.993 34.62-12.72c4.445-2.213 5.829-5.656 4.152-10.33l-16.181-33.144 33.474 15.484c4.707 1.578 8.121.122 10.241-4.367l11.993-34.878 12.721 34.62c2.213 4.446 5.657 5.83 10.331 4.152l33.142-16.181-15.484 33.475c-1.578 4.708-.122 8.122 4.368 10.241l34.877 11.993z"/><path d="m170.19 82.665 28.869 10.267-13.154 27.673c-2.966 6.24 3.751 12.964 9.993 9.993l27.672-13.154 10.267 28.869c2.316 6.512 11.817 6.512 14.133 0l10.267-28.869 27.673 13.154c6.242 2.972 12.959-3.754 9.993-9.993l-13.154-27.673 28.869-10.267c6.512-2.316 6.512-11.817 0-14.133l-28.869-10.266 13.154-27.673c2.966-6.241-3.751-12.963-9.993-9.993l-27.673 13.154-10.268-28.868c-2.316-6.512-11.817-6.512-14.133 0l-10.266 28.869-27.672-13.154c-6.242-2.969-12.96 3.752-9.993 9.993l13.154 27.673-28.869 10.266c-6.512 2.316-6.512 11.816 0 14.132zm41.722-13.048c4.468-2.166 5.888-5.595 4.261-10.286l-7.666-16.128 16.127 7.666c4.691 1.627 8.12.207 10.286-4.261l5.983-16.825 5.983 16.825c2.166 4.468 5.595 5.888 10.286 4.261l16.128-7.666-7.666 16.128c-1.627 4.691-.207 8.12 4.261 10.286l16.824 5.982-16.824 5.983c-4.468 2.166-5.888 5.595-4.261 10.286l7.666 16.128-16.128-7.666c-4.691-1.627-8.12-.207-10.286 4.261l-5.983 16.825-5.983-16.825c-1.499-4.217-6.488-6.067-10.286-4.261l-16.127 7.666 7.666-16.128c1.627-4.691.207-8.12-4.261-10.286l-16.824-5.983z"/><path d="m502.918 451.763-13.407-13.401c-6.858-6.858-17.461 3.754-10.604 10.609l13.407 13.401c6.034 6.03 6.032 16.055-.003 22.084l-7.834 7.838c-6.141 6.139-16.134 6.139-22.276 0l-21.752-21.743 10.185-10.18c6.781-7.266-3.346-17.382-10.604-10.609l-10.19 10.186-21.625-21.616 15.566-15.538c2.932-2.927 2.936-7.676.01-10.607-2.929-2.93-7.675-2.936-10.607-.01l-15.578 15.549-21.631-21.622 10.165-10.162c2.929-2.928 2.93-7.677.001-10.606-2.927-2.929-7.676-2.93-10.606-.001l-10.168 10.166-18.017-18.01 30.025-30.007 73.485 73.452c6.857 6.857 17.462-3.754 10.604-10.609l-74.937-74.904c1.872-6.056.028-13.528-4.456-18.008l-14.044-14.035c-7.002-6.994-18.393-6.994-25.393 0l-14.34 14.33-217.395-215.284c3.952-15.188 14.372-64.789-10.191-90.026-13.82-14.197-36.649-14.542-50.892-.769-7.672 7.42-11.465 17.536-10.917 27.666-10.133-.852-20.391 2.609-28.061 10.026-14.094 13.628-14.447 36.745-.771 50.794 3.452 3.548 7.678 6.582 12.558 9.02 8.677 4.328 15.377-9.088 6.701-13.42-3.37-1.683-6.233-3.723-8.51-6.062-7.891-8.108-7.702-21.666.45-29.549 6.593-6.376 16.462-7.752 24.558-3.427 6.307 3.365 13.441-3.565 10.244-9.965-4.08-8.174-2.402-17.939 4.176-24.301 8.317-8.044 21.647-7.842 29.715.448 17.146 17.616 11.321 57.111 6.54 75.427-6.066 1.221-18.021 3.268-31.157 3.546-9.476.201-8.946 15.162.318 14.996 14.783-.313 27.992-2.635 34.461-3.969l217.562 215.449-14.467 14.457c-6.926 6.922-6.927 18.455 0 25.377l14.044 14.034c4.494 4.491 11.946 6.307 18.007 4.442l116.33 116.285c11.744 11.732 31.719 11.756 43.487-.003l7.834-7.838c11.715-11.707 11.742-31.567 0-43.301zm-189.098-94.229c-1.15-1.385-1.15-2.77 0-4.155l39.418-39.39c1.395-1.153 2.791-1.154 4.187-.001l14.043 14.035c1.142 1.373 1.15 2.749.025 4.127l-39.443 39.418c-1.154 1.154-3.031 1.152-4.186 0z"/></g></g></svg>