<?xml version="1.0" encoding="iso-8859-1"?>
<!-- Generator: Adobe Illustrator 19.0.0, SVG Export Plug-In . SVG Version: 6.00 Build 0)  -->
<svg version="1.1" id="Layer_1" xmlns="http://www.w3.org/2000/svg" xmlns:xlink="http://www.w3.org/1999/xlink" x="0px" y="0px"
	 viewBox="0 0 512.001 512.001" style="enable-background:new 0 0 512.001 512.001;" xml:space="preserve">
<g>
	<path style="fill:#756F64;" d="M392.216,452.085H375.83h-10.894h-32.681l7.883-15.765c1.845-3.691,5.617-6.022,9.743-6.022
		c2.9,0,4.872-2.943,3.767-5.625l-47.024-114.204h-17.943v-43.574h87.149v43.574v34.848c0,20.244,2.821,40.389,8.383,59.855
		l11.921,41.721C396.876,449.495,394.923,452.085,392.216,452.085z"/>
	<path style="fill:#756F64;" d="M234.213,266.894v43.574l-31.707,137.395c-0.571,2.472-2.771,4.222-5.307,4.222h-28.347h-21.787
		l7.883-15.765c1.845-3.691,5.618-6.022,9.743-6.022c2.299,0,4.161-1.863,4.161-4.161V310.468v-43.574H234.213z"/>
</g>
<path style="fill:#EADCB9;" d="M506.553,245.106L506.553,245.106l-14.615,29.231c-6.5,13.002-16.99,23.186-29.551,29.383
	l-3.731,26.116c-4.331,30.321-2.221,61.216,6.193,90.666l7.539,26.389c0.744,2.603-1.21,5.193-3.917,5.193h-16.386h-10.894h-32.681
	l7.883-15.765c1.845-3.691,5.617-6.022,9.743-6.022c2.9,0,4.872-2.943,3.767-5.625l-47.024-114.204H277.787h-10.894l-31.707,137.395
	c-0.571,2.472-2.771,4.222-5.307,4.222h-28.347h-21.787l7.883-15.765c1.845-3.691,5.617-6.022,9.743-6.022
	c2.299,0,4.161-1.863,4.161-4.161V309.728c-22.997-3.104-43.788-15.921-56.852-35.516l-37.957-56.935
	c-2.021-3.031-5.422-4.851-9.065-4.851H16.34c-6.017,0-10.894-4.877-10.894-10.894v-7.036c0-8.909,5.424-16.92,13.695-20.229
	l40.44-16.176c1.341-0.536,2.22-1.836,2.22-3.28c19.525-32.541,52.415-54.809,89.88-60.852l66.497-10.726
	c4.18-0.674,7.497,3.47,5.925,7.4l-5.292,13.23c-2.382,5.954,0.87,12.668,7.02,14.491l238.943,70.798
	C489.554,196.496,506.553,219.261,506.553,245.106z"/>
<path style="fill:#756F64;" d="M506.553,245.106v157.957c0,5.234-6.664,7.456-9.804,3.268l0,0
	c-14.849-19.799-22.877-43.881-22.877-68.63v-136.17L506.553,245.106z"/>
<path style="fill:#66625A;" d="M506.553,371.522v31.541c0,5.234-6.664,7.456-9.804,3.268l0,0
	c-12.409-16.546-20.033-36.085-22.21-56.503c4.863,8.83,11.204,17.224,18.942,24.962l0,0
	C497.668,378.978,506.553,376.757,506.553,371.522z"/>
<path style="fill:#BCB4A0;" d="M506.553,245.106L506.553,245.106l-14.615,29.231c-6.5,13.002-16.99,23.186-29.551,29.383
	l-3.731,26.116c-4.331,30.321-2.221,61.216,6.193,90.666l7.539,26.389c0.744,2.603-1.21,5.193-3.917,5.193h-16.386h-10.894h-32.681
	l7.883-15.765c1.845-3.691,5.617-6.022,9.743-6.022c2.9,0,4.872-2.943,3.767-5.625l-47.024-114.204h-0.149l-12.26-30.024
	c-3.346-8.195-11.318-13.551-20.171-13.551c-11.649,0-23.037,3.44-32.738,9.889l-50.668,33.685l-31.707,137.395
	c-0.571,2.472-2.771,4.222-5.307,4.222h-28.347h-21.787l7.883-15.765c1.845-3.691,5.617-6.022,9.743-6.022
	c2.299,0,4.161-1.863,4.161-4.161V309.728c-22.997-3.104-43.788-15.921-56.852-35.516l-11.233-16.85l0,0l0.102,0.154
	c14.688-12.317,26.766-27.823,35.102-45.688l7.462,22.385c20.054,0,36.312-16.258,36.312-36.312v-9.078
	c0-5.013-4.064-9.078-9.078-9.078h-38.244h-7.146H11.201c2.16-2.35,4.852-4.242,7.941-5.478l40.44-16.176
	c1.341-0.536,2.22-1.836,2.22-3.28c19.525-32.541,52.415-54.809,89.88-60.852l66.497-10.726c4.18-0.674,7.497,3.47,5.925,7.4
	l-5.292,13.23c-2.382,5.954,0.87,12.668,7.02,14.491l238.943,70.798C489.554,196.496,506.553,219.261,506.553,245.106z"/>
<path style="fill:#756F64;" d="M157.957,103.489h-32.681l9.572-38.29c0.777-3.106,3.567-5.284,6.768-5.284
	c3.202,0,5.991,2.179,6.768,5.284L157.957,103.489z"/>
<path style="fill:#999485;" d="M506.553,245.106L506.553,245.106l-14.615,29.231c-6.515,13.03-17.041,23.221-29.64,29.414v-2.815
	l11.574-23.149l0,0c0-25.845-16.999-48.611-41.779-55.953L193.15,151.037c-6.149-1.823-9.401-8.536-7.02-14.491l5.292-13.23
	c1.572-3.932-1.745-8.074-5.925-7.4l-66.497,10.726c-19.155,3.089-37.108,10.428-52.696,21.206
	c19.866-28.74,50.651-48.285,85.377-53.886l9.021-1.455l6.761-27.04c0.71-2.841,3.015-5.115,5.92-5.49
	c3.572-0.462,6.834,1.827,7.682,5.225l5.773,23.09l31.341-5.055c4.18-0.674,7.497,3.47,5.925,7.4l-5.292,13.23
	c-2.382,5.954,0.87,12.668,7.02,14.491l238.943,70.798C489.554,196.496,506.553,219.261,506.553,245.106z"/>
<path style="fill:#756F64;" d="M182.468,103.489h-16.34l4.787-19.146c0.388-1.552,1.783-2.642,3.384-2.642s2.996,1.089,3.384,2.642
	L182.468,103.489z"/>
<path style="fill:#49463E;" d="M27.234,171.03v8.715c0,6.017-4.877,10.894-10.894,10.894H5.804
	c1.314-7.303,6.283-13.549,13.338-16.372L27.234,171.03z"/>
<path style="fill:#66625A;" d="M27.234,171.03v8.715H11.206c2.158-2.35,4.847-4.243,7.936-5.478L27.234,171.03z"/>
<path style="fill:#49463E;" d="M114.383,147.064v10.894h-10.894C103.489,151.941,108.366,147.064,114.383,147.064z"/>
<path d="M466.322,183.931l-238.943-70.798c-1.487-0.44-2.678-1.452-3.355-2.848c-0.676-1.397-0.731-2.958-0.155-4.398l5.292-13.23
	c1.476-3.693,0.875-7.75-1.611-10.854c-2.485-3.105-6.316-4.58-10.238-3.946l-26.403,4.258l-4.56-18.237
	c-1.528-6.115-7.405-10.119-13.665-9.305c-5.015,0.648-9.237,4.495-10.505,9.571l-4.222,16.887l-4.289-17.154
	c-1.385-5.54-6.34-9.41-12.052-9.41c-5.71,0-10.667,3.869-12.052,9.41l-8.25,33c-26.542,10.852-49.116,30.018-64.183,55.13
	c-0.27,0.45-0.472,0.934-0.602,1.436L25.117,166.01c-0.002,0.001-0.003,0.001-0.005,0.002l-7.993,3.197
	C6.719,173.369,0,183.295,0,194.496v7.036c0,9.01,7.33,16.34,16.34,16.34h81.319c1.826,0,3.52,0.907,4.533,2.426l26.723,40.085
	c0.001,0.001,0.001,0.002,0.002,0.003l0.102,0.154c0,0.001,0.001,0.001,0.001,0.002l11.127,16.691
	c6.238,9.357,14.172,17.285,23.256,23.495v124.172c-5.706,0.44-10.736,3.797-13.329,8.984l-7.883,15.765
	c-0.844,1.689-0.754,3.694,0.239,5.3s2.746,2.583,4.633,2.583h32.681h17.454h32.681c5.101,0,9.467-3.472,10.615-8.444
	l30.734-133.174h31.749l44.906,109.056c-5.409,0.655-10.13,3.945-12.615,8.913l-7.883,15.765c-0.844,1.689-0.754,3.694,0.239,5.3
	c0.992,1.606,2.746,2.583,4.633,2.583h59.961c3.015,0,5.786-1.38,7.602-3.788c1.816-2.406,2.381-5.45,1.553-8.349l-11.92-41.721
	c-5.426-18.981-8.176-38.615-8.176-58.357v-24.434l42.86,104.089c-5.409,0.655-10.13,3.945-12.615,8.913l-7.883,15.765
	c-0.844,1.689-0.754,3.694,0.239,5.3s2.746,2.583,4.633,2.583h59.961c3.015,0,5.786-1.38,7.602-3.788
	c1.816-2.407,2.381-5.45,1.553-8.349l-7.539-26.389c-8.258-28.901-10.289-58.644-6.038-88.4l3.336-23.346
	c0.352-0.192,0.695-0.398,1.043-0.596v31.037c0,25.758,8.511,51.291,23.966,71.898c2.121,2.828,5.29,4.379,8.631,4.379
	c1.168,0,2.356-0.19,3.528-0.581c4.525-1.508,7.449-5.564,7.449-10.335V245.106C512,217.056,493.216,191.9,466.322,183.931z
	 M140.133,66.521c0.17-0.682,0.78-1.159,1.484-1.159s1.313,0.476,1.484,1.158l5.608,22.431c-5.121,0.91-10.154,2.102-15.077,3.575
	L140.133,66.521z M21.165,179.324l0.622-0.248v0.669c0,3.003-2.443,5.447-5.447,5.447h-2.553
	C15.571,182.615,18.1,180.551,21.165,179.324z M159.818,438.757c0.929-1.858,2.796-3.012,4.873-3.012
	c5.298,0,9.608-4.311,9.608-9.607v-119.07c6.861,3.353,14.173,5.832,21.787,7.291v110.543c-5.706,0.44-10.736,3.798-13.329,8.984
	l-6.378,12.753h-20.502L159.818,438.757z M390.396,446.638h-49.327l3.941-7.882c0.929-1.858,2.796-3.012,4.873-3.012
	c3.182,0,6.14-1.578,7.911-4.223c1.77-2.644,2.105-5.98,0.892-8.922l-43.928-106.684h24.397c3.008,0,5.447-2.439,5.447-5.447
	c0-3.008-2.439-5.447-5.447-5.447h-32.473c-0.005,0-0.011,0-0.016,0h-21.739l35.653-23.702c8.835-5.874,19.112-8.979,29.721-8.979
	c6.669,0,12.607,3.989,15.128,10.164l5.127,12.555c-0.101,0.416-0.171,0.844-0.171,1.291v48.967c0,20.755,2.891,41.396,8.593,61.351
	L390.396,446.638z M459.976,298.836c-1.611,0.795-2.728,2.335-2.982,4.115l-3.731,26.116c-4.469,31.282-2.333,62.55,6.349,92.933
	l7.038,24.638h-49.327l3.941-7.882c0.929-1.858,2.796-3.012,4.873-3.012c3.182,0,6.14-1.578,7.911-4.223
	c1.77-2.644,2.105-5.98,0.892-8.922l-59.429-144.213c-4.202-10.29-14.099-16.94-25.213-16.94c-12.762,0-25.124,3.734-35.752,10.8
	l-50.642,33.668c-0.057,0.037-0.112,0.075-0.167,0.113c-1.134,0.805-1.87,1.972-2.157,3.238l-31.701,137.373h-32.681h-8.642
	l3.941-7.882c0.929-1.858,2.796-3.012,4.873-3.012c5.298,0,9.608-4.311,9.608-9.608V309.729c0-2.727-2.016-5.033-4.719-5.398
	c-21.616-2.917-40.952-14.996-53.048-33.141l-8.482-12.723c10.643-9.568,19.625-20.54,26.798-32.785l3.417,10.253
	c0.742,2.224,2.823,3.725,5.168,3.725c23.026-0.001,41.758-18.734,41.758-41.76v-9.078c0-8.009-6.515-14.524-14.524-14.524H49.021
	c-3.008,0-5.447,2.439-5.447,5.447s2.439,5.447,5.447,5.447h154.327c2.002,0,3.631,1.63,3.631,3.631v9.078
	c0,15.716-11.809,28.728-27.019,30.627l-6.141-18.423c-0.705-2.116-2.629-3.587-4.855-3.716c-2.232-0.124-4.305,1.113-5.249,3.134
	c-7.069,15.146-16.846,28.5-29.092,39.783l-23.368-35.052c-3.037-4.556-8.119-7.276-13.595-7.276H16.34
	c-3.003,0-5.447-2.443-5.447-5.447v-5.447h5.447c9.01,0,16.34-7.33,16.34-16.34v-5.027l28.926-11.57
	c2.85-1.141,4.861-3.594,5.459-6.511c18.806-30.703,49.898-51.561,85.484-57.3l9.021-1.454c2.151-0.346,3.889-1.942,4.417-4.056
	l6.761-27.04c0.185-0.741,0.746-1.333,1.333-1.41c0.794-0.099,1.509,0.379,1.701,1.145l5.773,23.09
	c0.685,2.744,3.357,4.51,6.151,4.056l31.341-5.055l-5.292,13.23c-1.703,4.257-1.533,9.066,0.466,13.192
	c1.999,4.127,5.667,7.241,10.064,8.544l238.943,70.798c21.901,6.489,37.316,26.721,37.864,49.476l-14.026,28.051
	C481.258,283.517,471.638,293.082,459.976,298.836z M482.102,361.938c1.367,1.539,2.781,3.055,4.259,4.533
	c1.064,1.063,2.458,1.595,3.852,1.595s2.788-0.532,3.852-1.595c2.128-2.128,2.128-5.576,0-7.703
	c-5.964-5.964-10.912-12.475-14.71-19.354c-0.011-0.571-0.037-1.142-0.037-1.712v-38.679c7.229-6.155,13.231-13.731,17.491-22.25
	l4.296-8.592l-0.004,134.877C491.954,390.859,485.503,376.756,482.102,361.938z M437.316,223.381
	c-0.702,2.368-2.87,3.901-5.22,3.901c-0.512,0-1.033-0.073-1.549-0.227l-238.943-70.798c-4.397-1.303-8.065-4.417-10.064-8.544
	c-1.999-4.127-2.169-8.935-0.466-13.192l5.292-13.23l-66.497,10.725c-2.97,0.48-5.765-1.54-6.244-4.51
	c-0.479-2.971,1.54-5.766,4.51-6.244l66.497-10.725c3.927-0.633,7.754,0.841,10.239,3.946c2.485,3.105,3.087,7.161,1.611,10.854
	l-5.292,13.23c-0.576,1.44-0.522,3.001,0.156,4.398c0.676,1.395,1.867,2.408,3.354,2.848l238.943,70.798
	C436.525,217.467,438.171,220.498,437.316,223.381z"/>
<g>
</g>
<g>
</g>
<g>
</g>
<g>
</g>
<g>
</g>
<g>
</g>
<g>
</g>
<g>
</g>
<g>
</g>
<g>
</g>
<g>
</g>
<g>
</g>
<g>
</g>
<g>
</g>
<g>
</g>
</svg>
